<svg xmlns="http://www.w3.org/2000/svg" viewBox="0 0 1007.34 824.89"><defs><style>.cls-1{fill:#fff;}</style></defs><title>Asset 1</title><g id="Layer_2" data-name="Layer 2"><g id="Слой_1" data-name="Слой 1"><path class="cls-1" d="M443.86,824.89a84.47,84.47,0,0,1-26-4.08c-47-15.18-76.49-61.48-107.66-110.49-22.68-35.67-46.14-72.55-76.91-96-21-16-50.8-28.08-82.39-40.88C75.35,542.79-10.32,508.06,1,406.38c6.54-58.72,50.27-95.62,96.56-134.69,19.73-16.65,40.13-33.88,58.67-53.52,22.68-24,42-60.25,60.65-95.26C249.11,62.49,282.42,0,334.05,0h1.21c53.43,1,90.87,38.09,123.9,70.82,22.2,22,43.18,42.78,66.07,49.82,12.34,3.8,25.89,5.64,41.41,5.64h0c24.81,0,51.18-4.81,76.69-9.46,25-4.56,50.85-9.27,74.7-9.27,40.46,0,69.25,13.82,90.6,43.48C845.13,201.71,829.3,262.85,814,322c-13,50.2-25.28,97.61-4.79,135,15.39,28.09,49.33,54.83,85.26,83.12,66.72,52.55,142.34,112.11,101.22,192.13-19.37,37.71-50.58,56-95.42,56h0c-38.94,0-83.49-13.48-126.57-26.52-40.5-12.26-78.75-23.84-111.79-24.7l-2.59,0c-39,0-75.81,22.91-111.41,45.06C512.5,804.1,479.11,824.88,443.86,824.89Zm-109.8-822c-49.92,0-82.82,61.71-114.64,121.4-18.75,35.17-38.14,71.55-61.09,95.87-18.65,19.77-39.12,37-58.91,53.75C53.57,312.57,10.27,349.11,3.85,406.7-7.25,506.22,77.36,540.53,152,570.79c31.77,12.87,61.77,25,83,41.26,31.18,23.76,54.77,60.86,77.59,96.74,30.89,48.57,60.06,94.44,106.12,109.31A81.54,81.54,0,0,0,443.86,822c34.44,0,67.5-20.58,102.5-42.36,36.73-22.87,74.66-46.57,115.59-45.46,33.42.87,71.85,12.5,112.54,24.82,42.88,13,87.22,26.4,125.74,26.4h0c43.66,0,74-17.83,92.88-54.48,40-77.94-31.37-134.19-100.45-188.59-36.17-28.48-70.33-55.39-86-84-21-38.4-8.61-86.34,4.53-137.1,15.15-58.48,30.81-119-4.88-168.54-20.77-28.85-48.82-42.29-88.28-42.29-23.59,0-49.32,4.69-74.19,9.22-25.63,4.67-52.14,9.51-77.21,9.51h0c-15.81,0-29.63-1.89-42.25-5.77-23.57-7.24-44.78-28.27-67.25-50.52-32.65-32.35-69.65-69-121.93-70Z"/><path class="cls-1" d="M451.26,807.73a80.48,80.48,0,0,1-24.4-3.78c-44.51-14.23-72.52-57.85-102.18-104C303.2,666.46,281,631.87,252,609.7c-19.77-15.1-47.72-26.59-77.32-38.76C103.61,541.74,23.07,508.64,33,412.65c5.94-57.38,48.37-93.92,93.3-132.6,18.06-15.55,36.72-31.62,54-49.75,21.56-22.63,39.91-56.69,57.64-89.63C268.49,84,300.08,25.3,348.91,25.3h1c50.37.86,85.8,35.54,117.06,66.14,21,20.58,40.87,40,62.51,46.61,11.72,3.58,24.6,5.33,39.36,5.33,23.27,0,48-4.41,71.87-8.68,23.43-4.18,47.66-8.51,70.06-8.51,38.43,0,65.82,13,86.18,40.93,35.19,48.25,20.8,106.52,6.88,162.87-11.66,47.22-22.69,91.82-3.87,127.22,14.29,26.86,45.91,52.2,79.39,79,64.46,51.66,131.12,105.07,91.86,180-18.63,35.66-48.61,53-91.64,53a202.94,202.94,0,0,1-23.26-1.45c-30.24-3.5-62.93-13-94.55-22.23-38.08-11.09-74-21.56-105.07-22h-1.24c-36.81,0-71.56,21.87-105.16,43S485,807.73,451.26,807.73ZM348.91,28.16C301.79,28.16,270.6,86,240.45,142c-17.84,33.1-36.27,67.33-58.1,90.24-17.37,18.23-36.09,34.35-54.2,49.94-44.48,38.3-86.5,74.49-92.32,130.74-9.71,93.86,69.79,126.53,139.92,155.35,29.78,12.24,57.9,23.8,78,39.14,29.4,22.47,51.75,57.27,73.36,90.93,29.37,45.74,57.11,88.95,100.64,102.86a77.9,77.9,0,0,0,23.54,3.64c32.88,0,64.28-19.75,97.52-40.66,33.95-21.36,69.05-43.44,106.68-43.44h1.28c31.42.42,67.56,11,105.83,22.09,31.51,9.17,64.08,18.66,94.08,22.14a199.3,199.3,0,0,0,22.92,1.41c42.46,0,70.77-16.35,89.12-51.46,38.17-72.9-27.56-125.57-91.12-176.5-33.71-27-65.55-52.53-80.12-79.91-19.33-36.36-8.18-81.48,3.62-129.24,13.76-55.71,28-113.32-6.42-160.5-19.78-27.12-46.43-39.75-83.87-39.75-22.15,0-46.25,4.3-69.56,8.46-24,4.29-48.85,8.72-72.37,8.72-15,0-28.19-1.78-40.19-5.45-22.3-6.8-42.4-26.48-63.67-47.31C434.13,63.26,399.13,29,349.89,28.16Z"/><path class="cls-1" d="M458.68,790.57a76.86,76.86,0,0,1-22.84-3.47c-42-13.28-68.57-54.23-96.71-97.59-20.27-31.23-41.24-63.54-68.47-84.41C252.1,590.88,226,580,198.4,568.46,131.86,540.68,56.44,509.21,65,418.93c5.32-56.16,46.58-92.42,90.26-130.8,16.32-14.34,33.19-29.17,49.09-45.68,20.44-21.22,37.82-53.12,54.65-84,28.91-53,58.79-107.87,104.83-107.87h.83c47.32.72,80.73,33,110.2,61.45,19.83,19.16,38.57,37.25,59,43.41,11.12,3.37,23.32,5,37.32,5,21.72,0,44.75-4,67-7.9,21.86-3.81,44.47-7.75,65.41-7.75,36.41,0,62.4,12.2,81.77,38.38,33.93,45.86,21,101.27,8.45,154.86-10.34,44.23-20.11,86-3,119.38C804,483.08,833.24,507,864.24,532.37c59,48.21,119.93,98,82.53,168-17.88,33.62-46.62,50-87.86,50a196.07,196.07,0,0,1-20.54-1.16c-28.37-3-58.93-11.46-88.48-19.67-35.63-9.91-69.27-19.27-98.28-19.27-34.62,0-67.27,20.83-98.85,40.94C520.92,771.43,490.84,790.57,458.68,790.57ZM363.8,53.46c-44.34,0-72.5,51.68-102.32,106.38-16.91,31-34.39,63.11-55.09,84.59-16,16.6-32.9,31.47-49.26,45.85C112,329.93,73,364.17,67.82,419.2c-8.34,88.19,66,119.24,131.68,146.63,27.79,11.6,54,22.56,72.9,37C300,624,321.12,656.51,341.52,688c27.85,42.92,54.15,83.45,95.17,96.42a74.06,74.06,0,0,0,22,3.34c31.33,0,61.07-18.94,92.54-39,31.92-20.33,64.93-41.35,100.31-41.39,29.47,0,63.3,9.41,99.12,19.37,29.43,8.19,59.87,16.66,88,19.59a192.68,192.68,0,0,0,20.24,1.14c40.64,0,67.76-15.4,85.34-48.45,36.29-67.87-23.75-117-81.82-164.43-31.24-25.54-60.74-49.67-74.2-75.82-17.61-34.31-7.73-76.58,2.73-121.33,12.38-53,25.18-107.72-8-152.51-18.79-25.4-44-37.23-79.48-37.23-20.69,0-43.17,3.92-64.91,7.71-22.39,3.9-45.55,7.94-67.51,7.94-14.28,0-26.76-1.68-38.14-5.13-21-6.37-40-24.69-60.11-44.09-29.09-28.1-62.07-60-108.26-60.66Z"/><path class="cls-1" d="M466.22,773.46a72.57,72.57,0,0,1-21.42-3.22c-39.53-12.21-64.68-50.56-91.3-91.14-19-29-38.74-59.06-64.17-78.62C272,587.16,247.78,576.87,222.14,566,160.1,539.64,89.78,509.78,97,425.2c4.68-55.08,43.08-89.53,87.55-129.41,14.49-13,29.47-26.43,43.84-41.19,19.28-19.79,35.7-49.52,51.58-78.28C307.22,127,335.42,75.9,378.68,75.9h.63c44.27.58,75.66,30.43,103.36,56.78,18.64,17.73,36.25,34.48,55.38,40.21,10.5,3.15,22,4.68,35.27,4.68,20.17,0,41.52-3.62,62.18-7.12,20.29-3.44,41.27-7,60.74-7,34.41,0,59,11.39,77.39,35.85,32.69,43.48,21.17,96.05,10,146.9-9,41.21-17.55,80.14-2.09,111.48,12.08,24.38,39,46.91,67.51,70.77,53.48,44.75,108.79,91,73.25,155.93-17.16,31.58-44.71,46.94-84.21,46.94-5.55,0-11.51-.29-17.71-.89-26.51-2.42-54.92-9.89-82.4-17.13-32.39-8.51-63-16.57-89.53-16.57l-2.1,0c-31.83.57-62,20.07-91.14,38.92C526.51,754.26,496.8,773.46,466.22,773.46ZM378.68,78.76c-41.58,0-68.12,48.06-96.23,98.94-16,28.91-32.49,58.82-52,78.89-14.44,14.82-29.46,28.29-44,41.32-44,39.48-82,73.58-86.61,127.53-7,82.52,62.29,112,123.44,137.92,25.8,11,50.18,21.31,67.81,34.86,25.81,19.85,45.64,50.07,64.82,79.31,26.33,40.14,51.21,78.06,89.76,90a69.52,69.52,0,0,0,20.57,3.11c29.74,0,57.78-18.13,87.47-37.32,29.5-19.06,60-38.79,92.64-39.37,27.4-.32,59,7.85,92.4,16.65,27.37,7.2,55.66,14.64,81.93,17,6.12.58,12,.88,17.45.88C877,728.48,903,714,919.81,683c34.42-62.85-20-108.37-72.57-152.38C818.5,506.6,791.35,483.88,779,459c-15.9-32.23-7.28-71.63,1.86-113.35,11-50.22,22.38-102.15-9.52-144.58-17.81-23.67-41.67-34.71-75.1-34.71-19.23,0-40.09,3.53-60.26,7-20.77,3.52-42.25,7.16-62.65,7.16-13.51,0-25.32-1.57-36.09-4.81-19.79-5.92-37.63-22.9-56.53-40.88-27.32-26-58.28-55.44-101.42-56Z"/><path class="cls-1" d="M473.67,756.32a68.59,68.59,0,0,1-19.89-3c-37-11.22-60.76-46.91-85.87-84.69-17.83-26.83-36.27-54.57-59.92-72.81-16.13-12.44-38.48-22.11-62.14-32.36-57.54-24.92-122.75-53.16-116.9-132,4-54.22,41.69-88.68,85.29-128.58,12.54-11.47,25.51-23.34,38.17-36.17,18.12-18.37,33.57-45.92,48.52-72.57,25.63-45.7,52.14-93,92.62-93H394c41.22.44,70.6,27.88,96.52,52.1,17.46,16.31,33.94,31.71,51.82,37,9.9,2.94,20.77,4.37,33.26,4.37,18.61,0,38.28-3.23,57.3-6.35,18.71-3.07,38-6.24,56-6.24,32.4,0,55.59,10.58,73,33.3,31.49,41.12,21.41,90.9,11.66,139-7.73,38.17-15,74.23-1.25,103.49,11,23.14,35.49,44.24,61.46,66.57,48,41.28,97.62,84,64.07,143.95-16.77,30-42.43,43.95-80.76,43.95-4.63,0-9.56-.22-14.66-.62-24.61-1.89-50.86-8.35-76.25-14.59-30.85-7.58-59.88-14.74-85-13.84-29.11,1.09-56.76,19.26-83.51,36.84C530.67,737.95,502.71,756.32,473.67,756.32ZM393.55,104.05c-38.81,0-63.74,44.45-90.13,91.5-15,26.81-30.59,54.53-49,73.18-12.71,12.88-25.71,24.77-38.27,36.27C173,344.5,135.74,378.6,131.79,431.68c-5.7,76.85,58.53,104.67,115.19,129.2,23.82,10.32,46.33,20.07,62.74,32.72,24,18.53,42.6,46.47,60.56,73.49,24.83,37.35,48.27,72.62,84.32,83.54a65.69,65.69,0,0,0,19.06,2.83c28.19,0,54.56-17.33,82.47-35.68,27.08-17.79,55.07-36.18,85-37.3,25.48-.87,54.7,6.29,85.76,13.93,25.27,6.21,51.4,12.63,75.78,14.5,5,.41,9.9.61,14.44.61,37.19,0,62.06-13.5,78.28-42.48,32.41-57.93-16.32-99.85-63.44-140.39-26.2-22.54-51-43.82-62.18-67.51-14.19-30.12-6.79-66.63,1-105.27,9.63-47.52,19.58-96.65-11.12-136.75-16.82-22-39.29-32.18-70.73-32.18-17.77,0-37,3.16-55.58,6.2-19.14,3.14-38.93,6.39-57.77,6.39-12.77,0-23.91-1.47-34.07-4.49-18.52-5.48-35.25-21.1-53-37.65C463,131.53,434.07,104.48,394,104.05Z"/><path class="cls-1" d="M481.13,739.19a64.36,64.36,0,0,1-18.37-2.67c-34.53-10.22-56.83-43.27-80.44-78.25-16.62-24.61-33.8-50.06-55.66-67-14.92-11.55-35.4-20.63-57.09-30.23-53.05-23.5-113.18-50.13-108.63-123.28,3.34-53.62,40.55-88.3,83.64-128.45,10.43-9.71,21.2-19.76,31.88-30.43,16.95-16.94,31.42-42.3,45.42-66.83,24-42.06,48.84-85.54,86.56-85.54,38.4.29,65.76,25.33,89.91,47.42,16.27,14.88,31.63,28.94,48.25,33.79a109.76,109.76,0,0,0,31.26,4.06c17,0,35-2.84,52.41-5.57,17.12-2.7,34.82-5.49,51.34-5.49,30.41,0,52.23,9.78,68.64,30.77,30.31,38.78,21.66,85.79,13.3,131.25-6.46,35.1-12.55,68.26-.43,95.44,9.84,21.88,32,41.54,55.38,62.36,42.57,37.83,86.58,77,54.92,131.94-16.09,27.94-40.79,41-77.71,41-3.57,0-7.34-.13-11.23-.36-22.61-1.41-46.57-6.79-69.75-12-28.61-6.43-55.55-12.54-78.67-11.16-26.39,1.59-51.54,18.43-75.86,34.74C534.86,721.63,508.65,739.19,481.13,739.19ZM408.65,129.35c-36.28,0-59.61,40.86-84.3,84.11-14.09,24.69-28.67,50.21-45.88,67.43-10.71,10.72-21.51,20.77-31.95,30.51-42.64,39.74-79.47,74.06-82.73,126.54-4.43,71.16,54.74,97.37,106.94,120.49,21.85,9.68,42.49,18.83,57.69,30.59,22.22,17.22,39.53,42.86,56.28,67.66C408,691.21,430,723.84,463.56,733.78a61.94,61.94,0,0,0,17.56,2.56c26.65,0,52.5-17.31,77.49-34.06,24.64-16.51,50.12-33.57,77.28-35.22,23.55-1.32,50.66,4.75,79.46,11.23,23.07,5.19,46.92,10.56,69.3,11.95,3.82.24,7.54.35,11.05.35,35.8,0,59.7-12.55,75.23-39.51,30.5-53-12.63-91.32-54.33-128.39-23.66-21-46-40.89-56.09-63.33-12.48-28-6.31-61.57.23-97.12C769,317.38,777.52,271,748,233.25c-15.83-20.25-36.92-29.68-66.39-29.68-16.3,0-33.89,2.77-50.89,5.45-17.5,2.76-35.6,5.61-52.86,5.61a112.5,112.5,0,0,1-32.06-4.17c-17.26-5-32.86-19.31-49.38-34.43C472.65,154.29,445.72,129.64,408.65,129.35Z"/><path class="cls-1" d="M488.57,722.05a60.51,60.51,0,0,1-16.84-2.4c-32-9.24-52.92-39.64-75-71.82-15.39-22.4-31.29-45.56-51.37-61.17-13.71-10.66-32.33-19.12-52-28.09C244.7,536.49,189.64,511.45,192.92,444c2.6-53.43,39.85-88.66,83-129.46,8-7.57,16.29-15.41,24.58-23.57,15.76-15.52,29.24-38.66,42.29-61.05,22.41-38.43,45.57-78.17,80.55-78.17,35.13.16,60.48,22.79,82.84,42.75,15.08,13.46,29.32,26.17,44.69,30.59a104.14,104.14,0,0,0,29.27,3.75c15.46,0,31.75-2.45,47.51-4.81,15.52-2.33,31.58-4.74,46.6-4.74,28.45,0,48.88,9,64.31,28.26,29.18,36.46,22,80.73,15,123.56-5.21,32-10.15,62.26.37,87.3,8.68,20.66,29.3,39.76,49.25,58.21,37.15,34.37,75.57,69.92,45.8,119.9-15.45,25.94-39.21,38-74.78,38q-3.79,0-7.65-.17c-20.68-.88-42.44-5.25-63.48-9.47-22.57-4.53-43.89-8.81-63-8.81-3.19,0-6.26.13-9.16.37-23.69,2.07-46.33,17.59-68.24,32.6C539,705.29,514.59,722.05,488.57,722.05ZM423.35,154.64c-33.35,0-55.08,37.29-78.09,76.76-13.14,22.54-26.73,45.86-42.75,61.65-8.31,8.18-16.61,16-24.62,23.61-42.69,40.37-79.56,75.24-82.1,127.52-3.19,65.48,50.94,90.09,98.69,111.8,19.87,9,38.64,17.57,52.61,28.42,20.43,15.9,36.47,39.24,52,61.81C420.86,678,441.47,708,472.52,716.92a58.22,58.22,0,0,0,16.05,2.27c25.13,0,49.21-16.5,72.5-32.45,22.21-15.22,45.17-31,69.61-33.1,3-.25,6.13-.37,9.4-.37,19.37,0,40.83,4.31,63.54,8.86,20.93,4.21,42.58,8.54,63,9.42q3.81.16,7.53.17c34.46,0,57.44-11.64,72.33-36.61,28.58-48-9-82.74-45.29-116.35-20.17-18.67-41-38-50-59.21-10.83-25.79-5.84-56.43-.56-88.86,6.88-42.2,14-85.85-14.39-121.31-15-18.8-34.19-27.18-62.08-27.18-14.82,0-30.76,2.39-46.18,4.71-15.85,2.38-32.25,4.84-47.93,4.84a107,107,0,0,1-30.07-3.85c-16-4.59-30.47-17.52-45.8-31.2C482.29,177,457.37,154.8,423.35,154.64Z"/><path class="cls-1" d="M496,704.9a57,57,0,0,1-15.3-2.1c-29.55-8.27-49-36-69.67-65.45-14.15-20.17-28.78-41-47-55.32-12.48-9.75-29.24-17.6-47-25.92-44.13-20.68-94.16-44.11-92.1-105.79,1.8-53.79,39.81-90,83.83-132q7.77-7.41,15.8-15.15c14.53-14.08,27-35,39.1-55.29,21.7-36.4,42.19-70.77,74.27-70.77s55.51,20.28,76.1,38.09c13.89,12,27,23.38,41.13,27.35A99.06,99.06,0,0,0,582.47,246c13.88,0,28.46-2.06,42.57-4.06,13.92-2,28.31-4,41.82-4,26.5,0,45.57,8.18,60,25.74,28.13,34.21,22.35,75.83,16.76,116.08-4,28.85-7.79,56.1,1.08,78.95,7.52,19.39,25.55,36.94,43,53.91,31.82,31,64.71,63,36.8,108-19.5,31.47-50.61,35.12-72.33,35.12-1.19,0-2.38,0-3.59,0-18.71-.35-38.25-3.71-57.13-6.94-19.11-3.26-37.16-6.36-53.56-6.36a104,104,0,0,0-12.12.66c-21,2.54-41.11,16.71-60.58,30.43C543.24,688.93,520.54,704.9,496,704.9Zm-58-525c-30.58,0-50.67,33.7-71.94,69.38-12.18,20.42-24.77,41.54-39.57,55.88q-8,7.77-15.81,15.17c-45.36,43.25-81.19,77.42-82.95,130-2,59.8,47.12,82.81,90.46,103.11,17.89,8.39,34.79,16.3,47.53,26.26,18.6,14.56,33.35,35.59,47.62,55.92,20.33,29,39.53,56.36,68.1,64.34a53.77,53.77,0,0,0,14.53,2c23.63,0,46-15.72,67.54-30.92,19.77-13.91,40.2-28.3,61.89-30.92a105.49,105.49,0,0,1,12.46-.68c16.64,0,34.81,3.11,54,6.4,18.78,3.21,38.21,6.55,56.71,6.9l3.53,0c33.88,0,55.44-10.41,69.9-33.75,26.71-43.1-3.93-72.91-36.36-104.47-17.66-17.19-35.92-35-43.67-54.93-9.14-23.54-5.3-51.15-1.24-80.37,5.51-39.64,11.2-80.63-16.13-113.88-14-17.08-31.87-24.69-57.81-24.69-13.32,0-27.6,2-41.42,4-14.2,2-28.89,4.08-43,4.08a101.67,101.67,0,0,1-28.12-3.54c-14.73-4.15-28.08-15.7-42.22-27.94C491.93,199.86,469,180,438,179.95Z"/><path class="cls-1" d="M503.42,687.78a53,53,0,0,1-13.73-1.83c-27.08-7.29-45.17-32.44-64.33-59.07-12.91-17.93-26.25-36.49-42.71-49.45-11.25-8.86-26.16-16.09-41.94-23.75C301,534.39,256,512.55,256.89,456.61c.88-55,39-91.28,87.31-137.15l4.37-4.15c13.3-12.65,24.8-31.34,35.91-49.4,20-32.55,38.93-63.29,68.23-63.5h.54c28.76,0,50,17.74,68.65,33.39,12.68,10.61,24.66,20.64,37.51,24.17a93.91,93.91,0,0,0,25.44,3.12c12.28,0,25.14-1.68,37.57-3.3,12.29-1.61,25-3.27,37-3.27,24.59,0,42.32,7.38,55.78,23.23,27.19,32,22.83,71.09,18.62,108.87-2.86,25.59-5.55,49.76,1.69,70.35,6.36,18.08,21.74,34.06,36.63,49.51,26.55,27.56,54,56.07,27.92,96.23C781.68,633,753.31,636.81,730.65,637h-1.46c-16.23,0-33-2.27-49.14-4.46-15.45-2.09-30-4.07-43.56-4.07a100.93,100.93,0,0,0-15.84,1.13c-18.31,2.93-36,15.78-53,28.22C547.39,672.55,526.47,687.78,503.42,687.78ZM453.25,205.24h-.52c-27.72.2-46.22,30.29-65.82,62.15-11.21,18.22-22.8,37.07-36.37,50l-4.38,4.16c-47.8,45.41-85.56,81.28-86.42,135.13C258.88,510.78,303,532.2,342,551.11c15.92,7.73,31,15,42.46,24.08,16.78,13.21,30.24,31.93,43.26,50,18.85,26.2,36.66,51,62.75,58a49.92,49.92,0,0,0,13,1.73c22.13,0,42.66-15,62.53-29.42,17.34-12.63,35.28-25.69,54.26-28.72a103.24,103.24,0,0,1,16.29-1.17c13.71,0,28.39,2,43.94,4.09,16.08,2.18,32.72,4.44,48.76,4.43h1.44c21.94-.19,49.39-3.87,67-31,24.85-38.26-.62-64.7-27.59-92.7-15.09-15.67-30.7-31.87-37.26-50.54-7.45-21.2-4.72-45.68-1.83-71.61,4.14-37.18,8.43-75.62-18-106.7-13.06-15.37-29.59-22.23-53.61-22.23-11.8,0-24.42,1.65-36.61,3.24-12.53,1.64-25.48,3.33-37.94,3.33a96.71,96.71,0,0,1-26.2-3.23C545.2,259,533,248.79,520.07,238,500.85,221.88,481,205.24,453.25,205.24Z"/><path class="cls-1" d="M510.84,670.63a49.33,49.33,0,0,1-12.17-1.54c-24.61-6.3-41.34-28.86-59-52.73-11.64-15.7-23.68-31.93-38.31-43.54-10-7.94-23.06-14.55-36.87-21.55-35.32-17.89-75.35-38.18-75.57-88.36-.23-53.14,34.57-89.67,83.76-135.47,12-11.21,22.51-27.63,32.64-43.5,18.33-28.74,35.64-55.88,62.12-56.25h.92c25.55,0,44.66,15.28,61.52,28.76,11.46,9.16,22.28,17.81,33.84,20.93a89.78,89.78,0,0,0,23.52,2.78c10.65,0,21.76-1.3,32.51-2.57S641.34,275,651.76,275c23.1,0,39.05,6.41,51.73,20.78,26.41,29.94,23.48,66.61,20.64,102.05-1.78,22.2-3.46,43.17,2.16,61.35,5.17,16.74,17.85,31.1,30.12,45,22.35,25.31,43.46,49.22,19.18,84.53-16.87,24.53-42.45,28.69-62.86,29.56-14.61.63-29.57-.72-44-2-11.41-1-22.19-2-32.42-2a100.15,100.15,0,0,0-20.81,1.88c-15.61,3.3-30.08,14.28-45.38,25.89C551.64,656.11,532.49,670.63,510.84,670.63Zm-42.54-440.1h-.88c-24.94.35-41.85,26.87-59.76,54.94-10.22,16-20.79,32.59-33.09,44.05-48.65,45.31-83.07,81.39-82.85,133.37.22,48.44,39.42,68.31,74,85.83,13.94,7.07,27.12,13.74,37.36,21.86,14.93,11.86,27.08,28.24,38.84,44.09,17.39,23.46,33.82,45.61,57.46,51.66a46,46,0,0,0,11.46,1.46c20.69,0,39.44-14.23,57.58-28,14.89-11.3,30.28-23,46.52-26.41a103.18,103.18,0,0,1,21.4-1.94c10.36,0,21.2,1,32.68,2,14.3,1.29,29.12,2.66,43.58,2,21-.9,44.57-5,60.63-28.33,23-33.48,2.63-56.57-19-81-12.47-14.11-25.36-28.71-30.71-46-5.78-18.71-4.08-39.94-2.28-62.42,2.79-34.86,5.68-70.91-19.93-99.94C689.26,284,674,277.89,651.76,277.89c-10.25,0-21.17,1.28-31.72,2.52-10.83,1.27-22,2.59-32.84,2.59a92.5,92.5,0,0,1-24.27-2.88c-12.13-3.27-23.18-12.1-34.88-21.45C510.75,244.83,492.86,230.53,468.31,230.53Z"/><path class="cls-1" d="M518.24,653.49a45.09,45.09,0,0,1-10.58-1.27c-22.18-5.33-37.56-25.3-53.84-46.44-10.36-13.45-21.06-27.35-33.85-37.6-8.76-7-19.95-13-31.8-19.3-31-16.53-66.05-35.26-67.31-79.7-1.4-49.29,28-86.14,75.81-129.64,10.75-9.77,20.19-23.89,29.31-37.54,16.67-24.95,32.42-48.51,56.08-49h1.32c22.33,0,39.33,12.81,54.33,24.11,10.25,7.72,19.93,15,30.23,17.7a86.15,86.15,0,0,0,21.8,2.47c9,0,18.29-.94,27.3-1.85s18.17-1.84,27-1.84c21.33,0,36.06,5.65,47.77,18.33,25.89,28,24.35,62.52,22.86,95.88-.83,18.59-1.61,36.16,2.42,51.73,4,15.32,13.87,28,23.44,40.29,17,21.85,33.15,42.49,10.6,73-15.23,20.63-37,25.12-56.31,26.79-5.46.47-11.41.7-18.21.7-6.38,0-12.76-.2-18.92-.39s-11.84-.36-17.52-.36c-12.77,0-21.93,1-29.71,3.16-12.94,3.63-25,13.27-37.76,23.48C555.9,639.61,538.54,653.49,518.24,653.49ZM483.38,255.81l-1.26,0c-22.17.5-37.52,23.46-53.76,47.77-9.22,13.8-18.75,28.06-29.76,38.07-47.24,42.95-76.24,79.25-74.87,127.44,1.21,42.78,35.53,61.09,65.8,77.26,12,6.38,23.26,12.41,32.23,19.6,13.05,10.46,23.87,24.5,34.32,38.08,16,20.72,31,40.31,52.25,45.4a42.55,42.55,0,0,0,9.91,1.19c19.3,0,36.26-13.57,52.66-26.68,13-10.39,25.27-20.2,38.77-24,8-2.25,17.44-3.25,30.48-3.25,5.72,0,11.49.18,17.6.36s12.5.39,18.83.39c6.72,0,12.59-.23,18-.7,18.66-1.61,39.7-5.92,54.26-25.63,21.26-28.81,6.52-47.71-10.56-69.59-9.75-12.5-19.83-25.43-24-41.32s-3.34-33.76-2.51-52.58c1.46-32.78,3-66.67-22.1-93.82-11.12-12-25.21-17.41-45.67-17.41-8.66,0-17.83.92-26.69,1.82-9.09.92-18.48,1.87-27.59,1.87a88.82,88.82,0,0,1-22.52-2.56c-10.84-2.83-20.75-10.29-31.23-18.19C520.63,267.78,504.75,255.81,483.38,255.81Z"/><path class="cls-1" d="M525.62,636.36a41.65,41.65,0,0,1-9-1c-19.79-4.36-33.88-21.8-48.79-40.26-9-11.16-18.34-22.7-29.21-31.53-7.5-6.08-16.82-11.38-26.69-17-26.67-15.18-56.9-32.38-59.1-71.1-2.45-43.14,17.21-79,67.87-123.79,9.41-8.32,17.79-20.12,25.88-31.53,15-21.19,29.25-41.21,50.13-41.9,19.92-.72,35.35,10,48.88,19.45,9,6.28,17.56,12.22,26.58,14.46a84.17,84.17,0,0,0,20.35,2.18c7.19,0,14.62-.59,21.82-1.17S628.88,312,636,312c13.29,0,30.32,1.81,44.12,15.92,25.85,26.42,25.65,59.22,25.46,90.93-.09,14.58-.17,28.35,2.33,40.92,2.74,13.76,9.77,24.69,16.57,35.26,11.9,18.48,23.14,35.93,2.19,61.84-13.55,16.76-31.91,21.43-49.72,24-10.13,1.46-20.15,1.94-29.84,2.41-15.29.75-29.74,1.45-41.69,5.94-10.29,3.86-19.93,12.13-30.14,20.89C560.2,623,544.67,636.36,525.62,636.36ZM498.53,281.1l-1.71,0c-19.47.65-33.28,20.11-47.9,40.7-8.19,11.54-16.65,23.47-26.32,32C372.68,398,353.3,433.17,355.7,475.33c2.12,37.17,31.63,54,57.66,68.77,10,5.67,19.4,11,27.08,17.26,11.11,9,20.53,20.69,29.64,32,14.59,18.06,28.37,35.12,47.18,39.26a38.54,38.54,0,0,0,8.36.92c18,0,33.12-13,47.75-25.53,10.41-8.92,20.24-17.35,31-21.39,12.36-4.65,27-5.36,42.55-6.12,9.62-.46,19.58-.94,29.58-2.39,17.24-2.47,35-7,47.91-23,19.64-24.3,9.93-39.4-2.37-58.51-6.62-10.29-14.13-21.95-17-36.24-2.55-12.85-2.47-26.77-2.38-41.5.19-31.14.38-63.34-24.64-88.92C665,316.6,648.7,314.89,636,314.89c-7,0-14.3.58-21.38,1.15-7.25.58-14.74,1.18-22,1.18a87.14,87.14,0,0,1-21-2.26c-9.53-2.37-18.27-8.45-27.52-14.89C530.58,290.74,516.71,281.1,498.53,281.1Z"/><path class="cls-1" d="M533,619.24a37.71,37.71,0,0,1-7.29-.72c-17.48-3.4-30.37-18.39-44-34.25-7.6-8.83-15.46-18-24.36-25.32-6.18-5.07-13.6-9.66-21.46-14.51-22.47-13.86-47.94-29.57-51-62.63-4-42.77,14.53-79.16,59.93-118,8-6.85,15.28-16.28,22.3-25.4,12.86-16.71,26.17-34,44.31-34.86,16.83-.85,29.8,7.15,42.17,14.82,7.79,4.83,15.16,9.4,22.89,11.2a84.76,84.76,0,0,0,19.46,1.91c5.19,0,10.52-.27,15.68-.55s10.44-.54,15.57-.54c13.3,0,28.6,1.62,41.21,13.59C695.18,369.46,696.15,403,697,432.5c.29,9.72.55,18.91,1.65,27.61,1.49,11.87,5.77,21.28,9.55,29.58,7.57,16.64,13.55,29.79-6.09,51.31-12.27,13.46-28.68,18-43.09,21.2-7.39,1.63-14.57,2.77-21.51,3.88-13.73,2.19-26.71,4.26-37.18,9.67-7.66,4-14.89,10.79-22.54,18C564.58,606.3,550.91,619.24,533,619.24ZM513.73,306.37c-.73,0-1.46,0-2.21.05-16.82.81-29.15,16.81-42.19,33.75-7.11,9.23-14.46,18.78-22.71,25.83-44.64,38.16-62.82,73.79-59,115.54,2.93,31.64,27.75,47,49.65,60.47,7.95,4.91,15.46,9.54,21.78,14.74,9.1,7.51,17,16.73,24.71,25.66,13.31,15.49,25.89,30.11,42.38,33.32a36,36,0,0,0,6.75.66c16.82,0,30.07-12.55,42.88-24.67,7.8-7.38,15.17-14.36,23.19-18.5,10.88-5.62,24.07-7.72,38-10,6.91-1.1,14-2.24,21.34-3.85,14.62-3.24,29.88-7.48,41.6-20.33,18.37-20.13,13-31.91,5.59-48.21-3.86-8.48-8.24-18.1-9.78-30.41-1.11-8.84-1.38-18.09-1.67-27.88-.89-30.42-1.81-61.87-27.76-86.51-11.89-11.29-26.51-12.81-39.24-12.81-5.06,0-10.32.27-15.42.54s-10.57.55-15.83.55a87.65,87.65,0,0,1-20.11-2c-8.19-1.91-15.75-6.6-23.75-11.56C540.6,313.71,528.75,306.37,513.73,306.37Z"/><path class="cls-1" d="M540.2,602.12a35.44,35.44,0,0,1-5.53-.45c-15.31-2.45-27.19-15.15-39.77-28.6-6-6.41-12.18-13-18.94-18.73-4.76-4-10.24-7.76-16-11.73-18.42-12.63-39.29-27-43.1-54.48-5.89-42.6,10.63-78.25,52-112.17,6.53-5.35,12.58-12.35,18.44-19.13,11.44-13.22,23.28-26.9,38.77-28,14.09-.89,25,4.74,35.58,10.22,6.51,3.38,12.66,6.56,19.08,7.91a102.81,102.81,0,0,0,20.95,1.71c2.33,0,4.65,0,7-.06s4.65-.06,7-.06c13.42,0,28.76.89,41.08,11.48,30.65,26.34,31.67,61.95,32.58,93.36.07,2.37.14,4.72.22,7a135.82,135.82,0,0,0,2.76,21.81c2.95,15.59,4.72,25-14.61,42.87-10.5,9.7-23.46,14-36,18.19l-.42.14c-3.46,1.15-6.82,2.21-10.08,3.25-14,4.45-26.1,8.3-35.76,15.48-5.08,3.79-9.91,9.08-15,14.69C569.56,588.71,557.35,602.12,540.2,602.12Zm-11.09-270.5c-.94,0-1.9,0-2.87.1-14.3,1-25.23,13.61-36.8,27-5.94,6.86-12.08,14-18.79,19.46-40.53,33.24-56.73,68.06-51,109.58,3.63,26.27,24,40.22,41.88,52.52,5.85,4,11.38,7.81,16.25,11.9,6.89,5.81,13.14,12.5,19.19,19,12.24,13.08,23.79,25.44,38.14,27.74a33.2,33.2,0,0,0,5.08.4c15.9,0,27.15-12.35,38-24.3,5.2-5.7,10.12-11.1,15.42-15,10-7.47,22.34-11.39,36.59-15.92,3.25-1,6.6-2.09,10-3.24l.42-.14c12.24-4.07,24.9-8.29,35-17.58,18.17-16.79,16.6-25.12,13.74-40.24a137.92,137.92,0,0,1-2.81-22.24c-.08-2.32-.15-4.67-.22-7-.89-30.82-1.9-65.76-31.58-91.28-11.58-10-25.72-10.79-39.22-10.79-2.3,0-4.6,0-6.91.06s-4.67.06-7,.06a105.45,105.45,0,0,1-21.54-1.77c-6.79-1.43-13.12-4.7-19.8-8.17C550.82,336.7,541,331.62,529.11,331.62Z"/><path class="cls-1" d="M547.28,585a32.09,32.09,0,0,1-3.57-.2c-13.66-1.5-25.12-12.48-37.25-24.11-3.82-3.66-7.77-7.44-11.85-11-3.07-2.67-6.36-5.26-9.85-8-14.72-11.64-31.41-24.83-35.94-47.24-8.48-42,5.92-76.8,44.06-106.39a177.09,177.09,0,0,0,13.87-12.48c10.26-9.9,20.86-20.13,33.92-21.44,11.16-1.12,20.47,2.33,29.39,5.66a86.65,86.65,0,0,0,14.85,4.57,152.3,152.3,0,0,0,20,1.75c13.87.6,28.2,1.22,39.94,9.94,32.9,24.46,37.37,59.59,35.33,84.75-2.26,27.85-3.3,31.48-27.21,48.45-6.41,4.55-13.5,7.83-20.36,11-3.09,1.43-6.19,2.85-9.22,4.4-15.91,8.07-25.47,15-33,23.86-2.62,3.1-5.13,6.64-7.78,10.38C574,571.15,564.19,585,547.28,585ZM545,356.81a40.26,40.26,0,0,0-4,.2c-12.07,1.21-21.87,10.66-32.23,20.66a178.45,178.45,0,0,1-14.1,12.67c-37.19,28.87-51.26,62.75-43,103.57,4.32,21.38,20.57,34.22,34.9,45.56,3.51,2.77,6.83,5.39,9.94,8.09,4.14,3.6,8.11,7.4,12,11.09,11.77,11.28,22.9,21.93,35.6,23.33,17.41,1.91,27-11.64,36.27-24.71,2.68-3.79,5.22-7.38,7.93-10.58,7.7-9.06,17.83-16.41,33.89-24.55,3.07-1.56,6.19-3,9.32-4.45,6.74-3.11,13.71-6.33,19.91-10.73,23.07-16.37,23.79-18.85,26-46.35,2-24.45-2.33-58.55-34.19-82.23-11-8.2-24.3-8.77-38.36-9.38a155.31,155.31,0,0,1-20.4-1.79,89,89,0,0,1-15.34-4.71C561.57,359.71,553.8,356.81,545,356.81Z"/><path class="cls-1" d="M553.76,568l-1,0c-13.79-.41-27.63-12-39.53-22.88C500,533,486.52,519.63,480.85,500.88c-8.48-28.06-9.11-68.31,36.13-100.68l4.08-2.94c10.73-7.78,21.83-15.82,34.23-17.78a54.15,54.15,0,0,1,8.49-.64,111.91,111.91,0,0,1,17.77,1.85c2.53.4,5.05.8,7.58,1.12,2.19.28,4.38.53,6.57.78,12.88,1.49,26.21,3,37.38,9.53,29,16.82,43.84,44,37.87,69.17-4.37,18.83-15.2,22.47-28.91,27.09-4.35,1.46-8.84,3-13.74,5.11l-.94.41c-7.42,3.23-15.1,6.56-21.67,12-10.57,8.66-16,19-20.25,28.92-.62,1.44-1.22,2.89-1.83,4.34C577.69,553.3,571.57,568,553.76,568Zm10-186.3a50.91,50.91,0,0,0-8.05.61c-11.72,1.84-22.06,9.33-33,17.26l-4.09,3c-43.86,31.39-43.27,70.36-35.06,97.53,5.46,18.06,18.6,31.11,31.59,42.94,11.52,10.5,24.88,21.75,37.7,22.13h.89c15.9,0,21.4-13.17,27.22-27.13.61-1.46,1.22-2.93,1.84-4.37,4.42-10.24,10-21,21.06-30,6.88-5.64,14.74-9.06,22.34-12.36l.94-.41c5-2.18,9.77-3.78,14-5.2,13.87-4.67,23-7.75,27-25,5.67-24-8.67-49.87-36.53-66-10.66-6.19-23.1-7.63-36.27-9.16-2.2-.26-4.4-.51-6.59-.79-2.56-.32-5.11-.73-7.68-1.14A109.89,109.89,0,0,0,563.78,381.68Z"/></g></g></svg>