<svg xmlns="http://www.w3.org/2000/svg" xmlns:xlink="http://www.w3.org/1999/xlink" viewBox="0 0 1010.93 827.82"><defs><style>.cls-1{fill:url(#linear-gradient);}.cls-2{fill:url(#linear-gradient-2);}.cls-3{fill:url(#linear-gradient-3);}.cls-4{fill:url(#linear-gradient-4);}.cls-5{fill:url(#linear-gradient-5);}.cls-6{fill:url(#linear-gradient-6);}.cls-7{fill:url(#linear-gradient-7);}.cls-8{fill:url(#linear-gradient-8);}.cls-9{fill:url(#linear-gradient-9);}.cls-10{fill:url(#linear-gradient-10);}.cls-11{fill:url(#linear-gradient-11);}.cls-12{fill:url(#linear-gradient-12);}.cls-13{fill:url(#linear-gradient-13);}.cls-14{fill:url(#linear-gradient-14);}.cls-15{fill:url(#linear-gradient-15);}.cls-16{fill:url(#linear-gradient-16);}</style><linearGradient id="linear-gradient" y1="413.91" x2="1010.93" y2="413.91" gradientUnits="userSpaceOnUse"><stop offset="0" stop-color="#b943fa"/><stop offset="1" stop-color="#c521a0"/></linearGradient><linearGradient id="linear-gradient-2" x1="32.29" y1="417.99" x2="986.44" y2="417.99" xlink:href="#linear-gradient"/><linearGradient id="linear-gradient-3" x1="64.55" y1="422.08" x2="961.65" y2="422.08" xlink:href="#linear-gradient"/><linearGradient id="linear-gradient-4" x1="96.8" y1="426.19" x2="936.89" y2="426.19" xlink:href="#linear-gradient"/><linearGradient id="linear-gradient-5" x1="129.04" y1="430.28" x2="912.08" y2="430.28" xlink:href="#linear-gradient"/><linearGradient id="linear-gradient-6" x1="161.27" y1="434.38" x2="887.35" y2="434.38" xlink:href="#linear-gradient"/><linearGradient id="linear-gradient-7" x1="193.47" y1="438.47" x2="862.65" y2="438.47" xlink:href="#linear-gradient"/><linearGradient id="linear-gradient-8" x1="225.64" y1="442.57" x2="838.01" y2="442.57" xlink:href="#linear-gradient"/><linearGradient id="linear-gradient-9" x1="257.8" y1="446.66" x2="813.44" y2="446.66" xlink:href="#linear-gradient"/><linearGradient id="linear-gradient-10" x1="289.91" y1="450.75" x2="789.2" y2="450.75" xlink:href="#linear-gradient"/><linearGradient id="linear-gradient-11" x1="321.96" y1="454.84" x2="764.91" y2="454.84" xlink:href="#linear-gradient"/><linearGradient id="linear-gradient-12" x1="353.9" y1="458.93" x2="740.97" y2="458.93" xlink:href="#linear-gradient"/><linearGradient id="linear-gradient-13" x1="385.69" y1="463.01" x2="717.91" y2="463.01" xlink:href="#linear-gradient"/><linearGradient id="linear-gradient-14" x1="417.16" y1="467.1" x2="696.49" y2="467.1" xlink:href="#linear-gradient"/><linearGradient id="linear-gradient-15" x1="448.07" y1="471.15" x2="683.06" y2="471.15" xlink:href="#linear-gradient"/><linearGradient id="linear-gradient-16" x1="478.06" y1="475.09" x2="674.65" y2="475.09" xlink:href="#linear-gradient"/></defs><title>Asset 1</title><g id="Layer_2" data-name="Layer 2"><g id="Слой_1" data-name="Слой 1"><path class="cls-1" d="M445.43,827.82a84.85,84.85,0,0,1-26.06-4.09c-47.19-15.23-76.74-61.7-108-110.88C288.58,677.06,265,640,234.16,616.5c-21-16-51-28.18-82.68-41C75.62,544.72-10.36,509.86,1,407.83c6.57-58.92,50.45-96,96.9-135.16,19.8-16.71,40.29-34,58.88-53.71,22.77-24.13,42.14-60.46,60.87-95.6C250,62.71,283.43,0,335.24,0l1.22,0c53.61,1,91.18,38.22,124.33,71.07,22.28,22.08,43.32,42.94,66.3,50,12.38,3.81,26,5.65,41.56,5.65h0c24.9,0,51.37-4.83,77-9.49,25.08-4.57,51-9.3,75-9.3,40.6,0,69.49,13.87,90.92,43.63,36.61,50.85,20.71,112.2,5.34,171.52-13,50.38-25.37,98-4.81,135.51,15.45,28.2,49.51,55,85.56,83.42,67,52.74,142.85,112.51,101.58,192.81-19.44,37.84-50.76,56.23-95.77,56.23h0c-39.08,0-83.79-13.53-127-26.61-40.65-12.3-79-23.93-112.19-24.79l-2.6,0c-39.14,0-76.08,23-111.81,45.22C514.33,807,480.81,827.81,445.43,827.82ZM335.24,2.87c-50.09,0-83.11,61.93-115,121.83-18.82,35.29-38.28,71.79-61.3,96.2-18.72,19.84-39.26,37.18-59.13,54-46,38.83-89.46,75.5-95.9,133.29C-7.27,508,77.64,542.45,152.55,572.82c31.88,12.92,62,25.12,83.34,41.41,31.29,23.85,55,61.08,77.87,97.08C344.76,760,374,806.09,420.26,821A81.73,81.73,0,0,0,445.43,825c34.56,0,67.74-20.65,102.87-42.51,36.07-22.45,73.37-45.66,113.33-45.66.89,0,1.79,0,2.67,0,33.54.87,72.11,12.54,112.94,24.9,43,13,87.54,26.49,126.2,26.49h0c43.83,0,74.32-17.89,93.22-54.67,40.19-78.21-31.49-134.67-100.8-189.26-36.3-28.58-70.58-55.58-86.3-84.29-21.12-38.54-8.65-86.66,4.54-137.6C829.31,263.7,845,203,809.21,153.25c-20.84-28.95-49-42.45-88.59-42.45-23.68,0-49.49,4.72-74.45,9.26-25.72,4.7-52.32,9.55-77.48,9.55h0c-15.88,0-29.74-1.89-42.41-5.8-23.64-7.26-44.93-28.36-67.47-50.7C426,40.66,388.87,3.86,336.41,2.88Z"/><path class="cls-2" d="M452.88,810.59a80.73,80.73,0,0,1-24.49-3.79c-44.67-14.28-72.78-58.06-102.54-104.4-21.56-33.58-43.85-68.29-73-90.54C233.05,596.71,205,585.18,175.3,573,104,543.66,23.16,510.45,33.13,414.12c6-57.58,48.53-94.25,93.62-133.07,18.12-15.6,36.85-31.73,54.19-49.93,21.64-22.71,40.06-56.89,57.86-90C269.45,84.25,301.15,25.39,350.16,25.39h1c50.56.86,86.11,35.67,117.47,66.38,21.09,20.64,41,40.15,62.72,46.77,11.77,3.59,24.7,5.35,39.51,5.35,23.36,0,48.14-4.43,72.13-8.71,23.51-4.19,47.83-8.53,70.31-8.53,38.57,0,66,13,86.48,41.07,35.32,48.43,20.88,106.91,6.91,163.45-11.71,47.39-22.77,92.15-3.89,127.68,14.35,27,46.08,52.38,79.66,79.3,64.69,51.84,131.57,105.45,92.18,180.69C956,754.62,925.9,772,882.71,772a203.76,203.76,0,0,1-23.34-1.45c-30.35-3.51-63.17-13.07-94.9-22.31-38.21-11.13-74.31-21.64-105.44-22.06H657.8c-36.93,0-71.81,21.94-105.54,43.16S486.69,810.59,452.88,810.59ZM350.16,28.26c-47.29,0-78.59,58.09-108.85,114.27-17.9,33.22-36.4,67.58-58.31,90.57-17.42,18.29-36.22,34.47-54.39,50.12C84,321.66,41.81,358,36,414.42c-9.74,94.2,70,127,140.42,155.91,29.88,12.27,58.1,23.88,78.24,39.27,29.5,22.55,51.93,57.47,73.63,91.26,29.47,45.9,57.31,89.26,101,103.23a78.17,78.17,0,0,0,23.62,3.65c33,0,64.5-19.82,97.86-40.81,34.07-21.43,69.3-43.59,107.06-43.59h1.28c31.52.42,67.79,11,106.2,22.17,31.62,9.21,64.32,18.73,94.43,22.22a200,200,0,0,0,23,1.42c42.61,0,71-16.41,89.42-51.64,38.3-73.16-27.65-126-91.44-177.13-33.82-27.11-65.77-52.72-80.39-80.2-19.4-36.49-8.21-81.78,3.63-129.71,13.81-55.9,28.09-113.72-6.43-161.06-19.85-27.22-46.6-39.9-84.17-39.9-22.22,0-46.41,4.32-69.81,8.5-24.1,4.3-49,8.75-72.63,8.75-15.1,0-28.3-1.8-40.34-5.47-22.38-6.83-42.54-26.57-63.9-47.48-31-30.33-66.11-64.71-115.51-65.55Z"/><path class="cls-3" d="M460.31,793.38a77.15,77.15,0,0,1-22.93-3.48c-42.14-13.33-68.81-54.42-97-97.93C320,660.61,299,628.19,271.63,607.24,253,593,226.83,582.05,199.11,570.48,132.33,542.61,56.64,511,65.22,420.43c5.34-56.36,46.74-92.75,90.58-131.27,16.37-14.41,33.31-29.28,49.25-45.84C225.56,222,243,190,259.88,159c29-53.22,59-108.26,105.21-108.26h.83c47.5.72,81,33.1,110.61,61.68,19.9,19.22,38.7,37.38,59.15,43.56,11.15,3.38,23.4,5,37.45,5,21.79,0,44.9-4,67.25-7.92,21.94-3.82,44.63-7.77,65.64-7.77,36.55,0,62.62,12.24,82.07,38.51,34,46,21,101.65,8.47,155.42-10.38,44.38-20.18,86.31-3,119.8,13.24,25.71,42.63,49.74,73.73,75.17,59.17,48.38,120.35,98.39,82.83,168.57C932.19,736.58,903.34,753,862,753a196.51,196.51,0,0,1-20.61-1.17c-28.47-3-59.13-11.49-88.78-19.74-35.76-9.95-69.53-19.34-98.65-19.34-34.73,0-67.5,20.91-99.19,41.09C522.78,774.16,492.6,793.38,460.31,793.38ZM365.09,53.64c-44.5,0-72.77,51.87-102.69,106.78-17,31.12-34.51,63.32-55.27,84.87-16,16.65-33,31.58-49.44,46C112.4,331.09,73.3,365.47,68.06,420.68c-8.38,88.5,66.28,119.66,132.15,147.15,27.89,11.64,54.25,22.64,73.16,37.14,27.72,21.24,48.9,53.87,69.38,85.44,27.94,43.07,54.34,83.74,95.49,96.75a74.31,74.31,0,0,0,22.07,3.35c31.45,0,61.28-19,92.88-39.12,32-20.39,65.16-41.49,100.66-41.53,29.58,0,63.53,9.44,99.49,19.44,29.54,8.22,60.08,16.71,88.31,19.67A193.67,193.67,0,0,0,862,750.11c40.79,0,68-15.45,85.65-48.62,36.42-68.11-23.84-117.37-82.11-165-31.36-25.63-61-49.85-74.47-76.09-17.67-34.42-7.76-76.84,2.74-121.75,12.43-53.14,25.28-108.1-8-153.05-18.85-25.5-44.2-37.37-79.76-37.37-20.76,0-43.32,3.94-65.15,7.74-22.47,3.92-45.7,8-67.74,8-14.34,0-26.86-1.68-38.28-5.14-21.12-6.38-40.16-24.78-60.3-44.24-29.21-28.21-62.3-60.18-108.66-60.88Z"/><path class="cls-4" d="M467.88,776.21A72.86,72.86,0,0,1,446.39,773c-39.67-12.25-64.9-50.72-91.62-91.45-19.12-29.15-38.88-59.28-64.41-78.9C273,589.25,248.65,578.92,222.93,568,160.67,541.56,90.11,511.59,97.31,426.7c4.7-55.27,43.24-89.84,87.86-129.87,14.55-13,29.59-26.52,44-41.34,19.35-19.85,35.83-49.69,51.76-78.55C308.32,127.4,336.62,76.18,380,76.18h.64c44.42.57,75.92,30.55,103.72,57,18.71,17.8,36.38,34.6,55.58,40.35,10.53,3.17,22.11,4.71,35.39,4.71,20.24,0,41.67-3.63,62.39-7.14,20.37-3.45,41.42-7,61-7,34.52,0,59.2,11.43,77.65,36,32.81,43.63,21.25,96.4,10.07,147.43-9.06,41.36-17.62,80.42-2.11,111.87,12.13,24.47,39.15,47.08,67.75,71,53.68,44.91,109.18,91.36,73.52,156.49-17.22,31.69-44.86,47.1-84.51,47.1-5.57,0-11.54-.3-17.77-.89-26.6-2.43-55.12-9.93-82.69-17.19-32.49-8.54-63.19-16.62-89.85-16.62l-2.11,0c-31.93.57-62.19,20.14-91.45,39.05C528.38,756.94,498.58,776.21,467.88,776.21ZM380,79c-41.73,0-68.37,48.23-96.58,99.3-16,29-32.6,59-52.21,79.17-14.49,14.87-29.57,28.4-44.15,41.47-44.17,39.61-82.32,73.83-86.92,128-7,82.81,62.52,112.35,123.88,138.4,25.9,11,50.36,21.39,68.05,35,25.92,19.92,45.82,50.26,65.06,79.59,26.43,40.3,51.4,78.34,90.08,90.29a69.79,69.79,0,0,0,20.64,3.12c29.85,0,58-18.19,87.78-37.45,29.59-19.13,60.21-38.92,93-39.51l2.16,0c27,0,57.9,8.12,90.58,16.72,27.46,7.22,55.87,14.69,82.23,17.1,6.14.58,12,.88,17.5.88,39,0,65.09-14.49,82-45.61,34.53-63.08-20-108.75-72.84-152.92-28.85-24.13-56.09-46.94-68.49-71.95-16-32.34-7.29-71.88,1.88-113.74,11-50.4,22.46-102.52-9.56-145.1-17.87-23.76-41.82-34.83-75.36-34.83-19.31,0-40.24,3.55-60.48,7-20.84,3.53-42.4,7.18-62.87,7.18-13.57,0-25.42-1.58-36.22-4.83-19.85-5.94-37.76-23-56.73-41C455,109.15,423.93,79.6,380.63,79Z"/><path class="cls-5" d="M475.35,759a68.9,68.9,0,0,1-20-3c-37.16-11.26-61-47.07-86.17-85-17.89-26.93-36.4-54.77-60.14-73.08-16.19-12.48-38.61-22.19-62.36-32.47C189,540.5,123.54,512.17,129.4,433c4.06-54.42,41.84-89,85.59-129,12.59-11.52,25.6-23.44,38.31-36.32C271.5,249.24,287,221.59,302,194.85c25.72-45.87,52.32-93.3,93-93.3h.43c41.37.44,70.85,28,96.86,52.28,17.51,16.38,34.06,31.83,52,37.14,9.94,3,20.85,4.38,33.38,4.38,18.67,0,38.41-3.24,57.5-6.36,18.78-3.08,38.18-6.27,56.25-6.27,32.52,0,55.8,10.63,73.26,33.43,31.59,41.26,21.48,91.23,11.69,139.54-7.76,38.3-15.09,74.49-1.25,103.86,11,23.23,35.63,44.4,61.69,66.82,48.16,41.43,98,84.26,64.3,144.45-16.83,30.08-42.58,44.1-81.05,44.1-4.65,0-9.6-.22-14.73-.62-24.69-1.89-51-8.38-76.5-14.63-31-7.63-60.16-14.79-85.29-13.9-29.21,1.1-57,19.33-83.8,37C532.57,740.57,504.51,759,475.35,759ZM395,104.42c-39,0-64,44.61-90.46,91.83-15.09,26.9-30.7,54.72-49.16,73.44-12.75,12.94-25.8,24.87-38.41,36.42-43.31,39.62-80.7,73.84-84.67,127.11-5.72,77.13,58.74,105,115.61,129.66,23.91,10.36,46.49,20.14,63,32.84,24.1,18.61,42.74,46.64,60.77,73.76C396.53,707,420,742.35,456.22,753.31a65.91,65.91,0,0,0,19.13,2.84c28.3,0,54.76-17.4,82.78-35.81C585.3,702.5,613.39,684,643.4,682.91c1.44,0,2.9-.08,4.38-.08,24.53,0,52.29,6.83,81.7,14.06,25.35,6.24,51.57,12.68,76,14.55,5.06.41,9.94.61,14.5.61,37.32,0,62.28-13.55,78.55-42.63,32.52-58.13-16.38-100.2-63.66-140.88-26.3-22.62-51.14-44-62.41-67.76-14.24-30.23-6.82-66.87,1-105.65,9.66-47.68,19.64-97-11.16-137.23-16.88-22-39.44-32.3-71-32.3-17.83,0-37.13,3.18-55.79,6.24-19.2,3.15-39.06,6.4-58,6.4-12.81,0-24-1.47-34.19-4.51-18.59-5.5-35.37-21.17-53.14-37.79-25.63-23.94-54.68-51.09-94.94-51.51Z"/><path class="cls-6" d="M482.84,741.81a64.57,64.57,0,0,1-18.43-2.68c-34.66-10.27-57-43.43-80.74-78.54-16.67-24.7-33.91-50.23-55.85-67.22-15-11.59-35.53-20.7-57.3-30.34-53.24-23.58-113.59-50.31-109-123.72,3.34-53.81,40.7-88.62,83.95-128.92,10.46-9.75,21.27-19.82,32-30.53,17-17,31.53-42.45,45.57-67.05C347.11,170.6,372,127,409.89,127c38.54.3,66,25.43,90.23,47.6,16.33,14.94,31.74,29,48.43,33.9a110.13,110.13,0,0,0,31.38,4.08c17.1,0,35.15-2.85,52.6-5.6,17.18-2.7,34.95-5.51,51.52-5.51,30.53,0,52.41,9.82,68.88,30.88,30.42,38.92,21.75,86.11,13.35,131.74-6.47,35.22-12.6,68.49-.43,95.77,9.88,22,32.07,41.69,55.57,62.57,42.72,38,86.9,77.25,55.12,132.42-16.14,28-40.93,41.1-78,41.1-3.58,0-7.37-.13-11.27-.37-22.69-1.41-46.74-6.82-70-12.06-28.69-6.45-55.58-12.54-79-11.2-26.48,1.6-51.72,18.51-76.13,34.86C536.76,724.19,510.46,741.81,482.84,741.81Zm-72.74-612c-36.41,0-59.82,41-84.61,84.42-14.14,24.77-28.76,50.38-46,67.65-10.75,10.75-21.58,20.85-32.06,30.61-42.8,39.88-79.77,74.34-83,127-4.44,71.42,54.93,97.72,107.32,120.92,21.92,9.72,42.63,18.9,57.89,30.7,22.3,17.28,39.67,43,56.46,67.89,23.4,34.67,45.51,67.42,79.18,77.39A62.19,62.19,0,0,0,482.84,739c26.75,0,52.68-17.37,77.76-34.18,24.73-16.57,50.3-33.7,77.56-35.34,23.64-1.34,50.84,4.77,79.75,11.27,23.15,5.21,47.07,10.6,69.54,12,3.84.24,7.57.36,11.09.36,35.93,0,59.91-12.6,75.49-39.65,30.62-53.16-12.67-91.64-54.53-128.86-23.73-21.09-46.15-41-56.28-63.55-12.52-28.08-6.32-61.79.24-97.45,8.28-45,16.83-91.54-12.79-129.44-15.88-20.33-37.06-29.8-66.63-29.8-16.36,0-34,2.78-51.08,5.48-17.56,2.77-35.72,5.63-53,5.63a112.93,112.93,0,0,1-32.18-4.19c-17.32-5.05-33-19.38-49.55-34.54C474.34,154.83,447.31,130.11,410.1,129.81Z"/><path class="cls-7" d="M490.31,724.62a60.67,60.67,0,0,1-16.9-2.41c-32.16-9.27-53.11-39.78-75.3-72.09-15.44-22.48-31.41-45.71-51.54-61.38-13.75-10.7-32.44-19.19-52.23-28.19-48.75-22.16-104-47.28-100.72-114.94,2.61-53.63,40-89,83.29-129.92,8-7.6,16.34-15.45,24.66-23.65,15.81-15.57,29.35-38.8,42.45-61.26,22.49-38.57,45.73-78.45,80.83-78.45,35.26.16,60.7,22.87,83.15,42.9,15.13,13.52,29.42,26.27,44.84,30.71a104.72,104.72,0,0,0,29.38,3.75c15.52,0,31.87-2.45,47.68-4.83,15.58-2.34,31.69-4.77,46.77-4.77,28.54,0,49.06,9,64.53,28.36,29.29,36.59,22,81,15,124-5.24,32.13-10.18,62.48.38,87.61C765.3,480.79,786,500,806,518.47c37.28,34.5,75.83,70.18,46,120.33-15.5,26-39.34,38.14-75,38.14q-3.8,0-7.68-.17c-20.75-.89-42.6-5.27-63.71-9.5-22.65-4.55-44.05-8.84-63.21-8.84-3.2,0-6.29.13-9.2.38-23.76,2.07-46.48,17.65-68.46,32.72C541,707.79,516.42,724.62,490.31,724.62ZM424.84,155.19c-33.46,0-55.27,37.42-78.36,77-13.19,22.62-26.83,46-42.91,61.87-8.34,8.21-16.66,16.07-24.71,23.68-42.84,40.51-79.84,75.51-82.4,128-3.2,65.71,51.12,90.41,99.05,112.19,19.94,9.07,38.78,17.63,52.8,28.52,20.49,16,36.58,39.38,52.14,62,21.89,31.86,42.58,62,73.73,71a58.42,58.42,0,0,0,16.11,2.28c25.22,0,49.39-16.56,72.77-32.58,22.28-15.27,45.33-31.06,69.84-33.21,3-.25,6.17-.37,9.44-.37,19.44,0,41,4.32,63.77,8.89,21,4.22,42.74,8.57,63.26,9.45q3.82.16,7.56.17c34.58,0,57.64-11.68,72.57-36.74,28.69-48.17-9-83-45.45-116.77-20.24-18.73-41.17-38.1-50.12-59.41-10.87-25.88-5.86-56.62-.55-89.19,6.9-42.35,14-86.15-14.44-121.74-15.1-18.87-34.31-27.28-62.3-27.28-14.87,0-30.86,2.4-46.34,4.73-15.91,2.39-32.36,4.85-48.1,4.85A107.29,107.29,0,0,1,552,228.68c-16.05-4.6-30.59-17.57-46-31.3C484,177.67,459,155.35,424.84,155.19Z"/><path class="cls-8" d="M497.78,707.41a57.16,57.16,0,0,1-15.35-2.11c-29.66-8.3-49.21-36.17-69.93-65.67-14.2-20.25-28.88-41.17-47.21-55.53-12.53-9.79-29.35-17.66-47.16-26-44.29-20.75-94.49-44.26-92.42-106.17,1.81-54,40-90.36,84.12-132.47q7.8-7.44,15.87-15.21c14.58-14.13,27.11-35.16,39.24-55.49,21.78-36.53,42.35-71,74.53-71s55.71,20.36,76.37,38.22c13.94,12.07,27.1,23.46,41.27,27.45a99.21,99.21,0,0,0,27.44,3.45c13.93,0,28.56-2.07,42.72-4.08,14-2,28.4-4,42-4,26.6,0,45.74,8.21,60.23,25.83,28.23,34.34,22.43,76.09,16.81,116.49-4,28.95-7.82,56.3,1.08,79.23,7.56,19.46,25.65,37.07,43.16,54.1,31.93,31.07,65,63.2,36.93,108.41-19.56,31.58-50.79,35.24-72.58,35.24-1.19,0-2.4,0-3.6,0-18.79-.35-38.39-3.72-57.34-7-19.17-3.28-37.29-6.38-53.73-6.38a104.39,104.39,0,0,0-12.17.66c-21,2.55-41.25,16.77-60.8,30.54C545.18,691.38,522.4,707.41,497.78,707.41ZM439.59,180.59c-30.7,0-50.85,33.82-72.2,69.62-12.22,20.5-24.86,41.7-39.7,56.08-5.37,5.21-10.68,10.26-15.89,15.23-45.52,43.4-81.47,77.69-83.24,130.5-2,60,47.29,83.1,90.78,103.47,18,8.42,34.92,16.36,47.7,26.35,18.68,14.61,33.49,35.72,47.8,56.13,20.4,29.08,39.67,56.55,68.35,64.56a53.9,53.9,0,0,0,14.58,2c23.71,0,46.12-15.78,67.78-31,19.83-14,40.35-28.4,62.11-31a105.88,105.88,0,0,1,12.5-.68c16.69,0,34.92,3.12,54.22,6.42,18.86,3.23,38.35,6.57,56.92,6.93,1.18,0,2.36,0,3.54,0,34,0,55.64-10.45,70.15-33.87,26.8-43.27-3.95-73.18-36.5-104.85-17.73-17.24-36.05-35.08-43.83-55.11-9.18-23.63-5.33-51.34-1.25-80.67,5.54-39.78,11.25-80.91-16.18-114.28-14.1-17.14-32-24.79-58-24.79-13.36,0-27.7,2-41.57,4-14.25,2-29,4.1-43.12,4.1a102.18,102.18,0,0,1-28.22-3.55c-14.78-4.16-28.18-15.77-42.37-28C493.67,200.58,470.69,180.68,439.59,180.59Z"/><path class="cls-9" d="M505.22,690.22a53.29,53.29,0,0,1-13.79-1.83c-27.17-7.31-45.33-32.55-64.56-59.28-12.95-18-26.34-36.62-42.86-49.63-11.3-8.89-26.26-16.15-42.09-23.84-39.85-19.35-85-41.27-84.11-97.4C258.69,403,297,366.6,345.47,320.55l4.35-4.13c13.35-12.7,24.88-31.45,36-49.58,20.1-32.66,39.07-63.52,68.48-63.73h.54c28.86,0,50.12,17.81,68.89,33.52,12.72,10.65,24.74,20.71,37.63,24.25A94.57,94.57,0,0,0,586.93,264c12.31,0,25.22-1.68,37.7-3.32s25.08-3.28,37.11-3.28c24.69,0,42.48,7.41,56,23.31C745,312.86,740.64,352.07,736.41,390c-2.86,25.67-5.57,49.94,1.7,70.6,6.38,18.15,21.83,34.19,36.75,49.69,26.65,27.67,54.2,56.27,28,96.57-18.45,28.39-46.91,32.25-69.65,32.43h-1.46c-16.29,0-33.08-2.28-49.31-4.48-15.51-2.1-30.15-4.08-43.72-4.08a101.44,101.44,0,0,0-15.89,1.13c-18.37,2.94-36.08,15.84-53.21,28.31C549.34,674.94,528.36,690.22,505.22,690.22ZM454.87,206h-.52c-27.81.21-46.38,30.4-66,62.37-11.25,18.29-22.88,37.2-36.51,50.15l-4.35,4.13c-48,45.58-85.91,81.6-86.77,135.65-.87,54.32,43.42,75.82,82.51,94.79,16,7.76,31.07,15.09,42.61,24.16,16.83,13.26,30.35,32,43.41,50.21,18.91,26.29,36.78,51.14,63,58.18a50.09,50.09,0,0,0,13,1.74c22.2,0,42.81-15,62.74-29.52,17.4-12.68,35.4-25.78,54.44-28.82a103.61,103.61,0,0,1,16.35-1.17c13.76,0,28.5,2,44.1,4.11,16.14,2.18,32.83,4.45,48.93,4.44h1.44c22-.19,49.56-3.89,67.26-31.13,24.93-38.39-.62-64.92-27.69-93-15.14-15.73-30.81-32-37.39-50.72-7.48-21.27-4.75-45.85-1.84-71.86,4.16-37.32,8.47-75.89-18-107.08-13.09-15.42-29.69-22.31-53.79-22.31-11.84,0-24.5,1.66-36.73,3.26-12.57,1.64-25.57,3.34-38.08,3.34a96.86,96.86,0,0,1-26.3-3.24c-13.49-3.71-25.74-14-38.71-24.81C502.63,222.67,482.68,206,454.87,206Z"/><path class="cls-10" d="M512.67,673a49.51,49.51,0,0,1-12.21-1.55c-24.71-6.32-41.49-29-59.26-52.91-11.68-15.76-23.76-32-38.44-43.7-10.05-8-23.15-14.6-37-21.63-35.44-18-75.62-38.31-75.84-88.67-.23-53.33,34.69-90,84-136,12.09-11.26,22.61-27.74,32.77-43.66,18.39-28.84,35.77-56.08,62.33-56.45H470c25.65,0,44.82,15.33,61.75,28.86,11.5,9.19,22.37,17.88,34,21a90.16,90.16,0,0,0,23.61,2.78c10.68,0,21.83-1.3,32.62-2.57S643.62,276,654.08,276c23.19,0,39.19,6.43,51.91,20.85,26.51,30,23.56,66.84,20.72,102.41-1.79,22.28-3.47,43.33,2.17,61.58,5.19,16.8,17.91,31.21,30.22,45.16,22.43,25.4,43.61,49.39,19.25,84.82-16.93,24.62-42.61,28.79-63.1,29.67-14.59.62-29.66-.72-44.11-2-11.45-1-22.26-2-32.53-2a100.55,100.55,0,0,0-20.88,1.88c-15.68,3.32-30.19,14.33-45.55,26C553.59,658.44,534.38,673,512.67,673ZM470,231.34h-.88c-25,.35-42,27-59.95,55.13-10.26,16.08-20.88,32.72-33.23,44.21-48.82,45.48-83.35,81.69-83.14,133.84.21,48.62,39.56,68.55,74.27,86.14,14,7.09,27.21,13.79,37.49,21.93,15,11.9,27.17,28.34,39,44.24,17.45,23.54,33.94,45.77,57.67,51.84a46.18,46.18,0,0,0,11.5,1.47c20.76,0,39.57-14.28,57.77-28.08,14.95-11.34,30.4-23.06,46.7-26.51a103.49,103.49,0,0,1,21.47-1.94c10.4,0,21.27,1,32.79,2,14.36,1.29,29.28,2.65,43.74,2,21-.91,44.74-5,60.85-28.43,23.11-33.6,2.63-56.77-19-81.31-12.5-14.17-25.44-28.82-30.81-46.21-5.8-18.78-4.09-40.09-2.29-62.64,2.8-35,5.7-71.16-20-100.29-12.13-13.75-27.47-19.88-49.76-19.88-10.29,0-21.24,1.28-31.83,2.53-10.86,1.27-22.11,2.59-33,2.59a92.85,92.85,0,0,1-24.36-2.89c-12.18-3.28-23.27-12.15-35-21.53C512.56,245.7,494.61,231.34,470,231.34Z"/><path class="cls-11" d="M520.09,655.82a45.26,45.26,0,0,1-10.62-1.27c-22.26-5.35-37.69-25.39-54-46.6-10.39-13.5-21.13-27.45-34-37.73-8.8-7-20-13-31.91-19.37-31.08-16.59-66.29-35.38-67.56-80-1.39-49.45,28.08-86.45,76.07-130.1,10.79-9.81,20.27-24,29.43-37.68,16.72-25,32.53-48.67,56.27-49.21l1.33,0c22.4,0,39.46,12.86,54.5,24.19,10.29,7.76,20,15.08,30.35,17.78a86.88,86.88,0,0,0,21.88,2.47c9,0,18.35-.94,27.4-1.85s18.24-1.84,27.08-1.84c21.4,0,36.18,5.66,47.93,18.39,26,28.12,24.43,62.74,22.94,96.22-.83,18.67-1.61,36.29,2.44,51.92,4,15.37,13.9,28.11,23.51,40.42,17.11,21.93,33.27,42.64,10.64,73.3-15.28,20.7-37.14,25.21-56.5,26.89-5.49.47-11.46.7-18.28.7-6.4,0-12.8-.2-19-.39s-11.87-.37-17.57-.37c-12.82,0-22,1-29.82,3.17-13,3.64-25.08,13.32-37.89,23.56C557.88,641.88,540.46,655.82,520.09,655.82Zm-35-399.1-1.27,0c-22.25.49-37.65,23.54-54,47.93-9.25,13.85-18.83,28.18-29.88,38.22-47.4,43.1-76.51,79.53-75.15,127.89,1.21,42.94,35.66,61.31,66,77.53,12,6.4,23.34,12.45,32.35,19.67,13.09,10.5,23.95,24.59,34.43,38.21,16,20.8,31.16,40.45,52.44,45.56a42.77,42.77,0,0,0,9.95,1.19c19.37,0,36.39-13.62,52.85-26.78,13-10.43,25.37-20.28,38.91-24.08,8.07-2.26,17.5-3.27,30.59-3.27,5.74,0,11.53.18,17.66.37s12.55.39,18.9.39c6.74,0,12.64-.23,18-.7,18.73-1.62,39.84-5.94,54.44-25.72,21.34-28.91,6.55-47.88-10.59-69.84-9.79-12.55-19.9-25.52-24-41.48s-3.36-33.88-2.52-52.75c1.47-32.9,3-66.92-22.19-94.17-11.16-12.08-25.29-17.46-45.82-17.46-8.7,0-17.9.93-26.79,1.83-9.13.92-18.55,1.87-27.7,1.87a89,89,0,0,1-22.6-2.58c-10.88-2.83-20.82-10.32-31.34-18.25C522.48,268.73,506.55,256.72,485.11,256.72Z"/><path class="cls-12" d="M527.5,638.62a41.83,41.83,0,0,1-9-1c-19.86-4.37-34-21.87-49-40.4-9-11.2-18.4-22.78-29.31-31.64-7.53-6.1-16.89-11.42-26.8-17.06-26.77-15.22-57.1-32.48-59.32-71.35-2.46-43.29,17.28-79.27,68.12-124.22,9.45-8.36,17.85-20.19,26-31.64,15.09-21.26,29.34-41.35,50.3-42.05l1.81,0c19.15,0,34.08,10.38,47.25,19.56,9.07,6.29,17.62,12.25,26.68,14.5a84.45,84.45,0,0,0,20.42,2.19c7.21,0,14.67-.6,21.89-1.18s14.56-1.16,21.68-1.16c13.34,0,30.42,1.82,44.27,16,25.94,26.51,25.74,59.43,25.56,91.26-.09,14.63-.18,28.45,2.33,41.06,2.75,13.81,9.81,24.79,16.63,35.38,11.94,18.56,23.22,36.07,2.19,62.07-13.6,16.82-32,21.51-49.9,24.09-10.17,1.46-20.23,1.94-30,2.42-15.34.75-29.85,1.45-41.84,6-10.32,3.88-20,12.18-30.24,21C562.21,625.25,546.61,638.62,527.5,638.62ZM500.3,282.09l-1.71,0c-19.54.65-33.4,20.18-48.07,40.85-8.22,11.58-16.71,23.55-26.41,32.13C374,399.39,354.55,434.71,357,477c2.12,37.31,31.74,54.16,57.88,69,10,5.69,19.47,11.07,27.17,17.32,11.16,9.06,20.6,20.76,29.75,32.08,14.64,18.13,28.48,35.24,47.35,39.4a38.64,38.64,0,0,0,8.39.93c18.06,0,33.24-13,47.92-25.62,10.45-9,20.31-17.42,31.1-21.47,12.41-4.67,27.12-5.38,42.7-6.14,9.66-.46,19.64-.95,29.68-2.4,17.31-2.48,35.11-7,48.08-23,19.72-24.39,10-39.54-2.37-58.72-6.65-10.32-14.18-22-17-36.37-2.56-12.91-2.48-26.87-2.4-41.65.19-31.25.38-63.57-24.74-89.24C667.36,317.72,651,316,638.23,316c-7,0-14.35.58-21.45,1.15-7.28.58-14.8,1.18-22.12,1.18a87.62,87.62,0,0,1-21.12-2.27c-9.57-2.38-18.34-8.49-27.63-14.94C532.47,291.77,518.56,282.09,500.3,282.09Z"/><path class="cls-13" d="M534.85,621.44a37.88,37.88,0,0,1-7.32-.72c-17.53-3.41-30.47-18.45-44.16-34.37-7.62-8.87-15.5-18-24.43-25.41-6.21-5.09-13.66-9.69-21.55-14.56-22.55-13.91-48.11-29.68-51.18-62.86-4-42.92,14.58-79.43,60.16-118.4,8.05-6.87,15.33-16.34,22.38-25.48,12.92-16.77,26.27-34.12,44.47-35,17.11-.9,29.92,7.17,42.33,14.88,7.81,4.85,15.2,9.43,23,11.23A84.8,84.8,0,0,0,598,332.67c5.21,0,10.56-.28,15.74-.54s10.47-.54,15.62-.54c13.35,0,28.7,1.62,41.36,13.64,26.9,25.54,27.87,59.16,28.74,88.8.28,9.77.55,19,1.65,27.73,1.5,11.92,5.79,21.35,9.58,29.68,7.61,16.7,13.61,29.9-6.1,51.5-12.33,13.52-28.79,18.07-43.25,21.27-7.41,1.64-14.61,2.78-21.58,3.9-13.78,2.2-26.8,4.27-37.31,9.7-7.7,4-14.95,10.83-22.62,18.1C566.59,608.46,552.88,621.44,534.85,621.44Zm-19.29-314c-.73,0-1.47,0-2.21.06-16.88.81-29.24,16.87-42.34,33.86-7.13,9.27-14.51,18.85-22.79,25.93-44.79,38.28-63,74-59.15,116,2.93,31.75,27.84,47.12,49.83,60.68,8,4.92,15.5,9.57,21.85,14.79,9.13,7.53,17.09,16.79,24.79,25.74,13.37,15.54,26,30.22,42.54,33.45a36.13,36.13,0,0,0,6.77.66c16.88,0,30.18-12.59,43-24.76,7.82-7.41,15.22-14.42,23.27-18.57,10.92-5.63,24.15-7.75,38.17-10,6.93-1.1,14.09-2.25,21.42-3.87,14.67-3.25,30-7.51,41.76-20.4,18.43-20.21,13.05-32,5.6-48.39-3.87-8.5-8.26-18.16-9.82-30.51-1.12-8.87-1.39-18.15-1.68-28-.89-30.52-1.81-62.07-27.84-86.81-11.93-11.33-26.6-12.86-39.39-12.86-5.07,0-10.36.28-15.47.54s-10.61.55-15.89.55a88.34,88.34,0,0,1-20.19-2c-8.22-1.91-15.8-6.62-23.82-11.6C542.53,314.83,530.64,307.45,515.56,307.45Z"/><path class="cls-14" d="M542.13,604.26a35.56,35.56,0,0,1-5.55-.45c-15.37-2.46-27.3-15.21-39.93-28.72-6-6.42-12.22-13.06-19-18.78-4.78-4-10.27-7.78-16.08-11.77-18.48-12.68-39.43-27.05-43.25-54.67C412.4,447.11,429,411.34,470.5,377.3c6.55-5.38,12.64-12.4,18.52-19.2,11.48-13.27,23.36-27,38.9-28.06,14-.94,25.08,4.76,35.7,10.25,6.53,3.39,12.71,6.59,19.14,7.94a103.28,103.28,0,0,0,21,1.72c2.33,0,4.67,0,7-.07s4.66-.06,7-.06c13.46,0,28.86.9,41.22,11.52,30.75,26.44,31.79,62.18,32.7,93.71q.1,3.55.22,7A135.41,135.41,0,0,0,694.67,484c3,15.65,4.74,25.09-14.65,43-10.55,9.74-23.54,14.06-36.1,18.24l-.43.15c-3.47,1.15-6.86,2.23-10.13,3.27-14.05,4.47-26.2,8.33-35.88,15.53-5.1,3.8-9.94,9.11-15.06,14.73C571.6,590.8,559.35,604.26,542.13,604.26ZM531,332.8c-.94,0-1.9,0-2.87.1-14.36,1-25.32,13.66-36.93,27.07-6,6.89-12.13,14-18.87,19.54-40.67,33.36-56.92,68.29-51.15,110,3.64,26.36,24,40.37,42,52.71,5.87,4,11.42,7.83,16.3,11.94,6.91,5.82,13.18,12.53,19.24,19C511,586.28,522.62,598.68,537,601a33.37,33.37,0,0,0,5.1.4c16,0,27.24-12.4,38.17-24.39,5.22-5.73,10.14-11.14,15.46-15.1,10.07-7.5,22.43-11.42,36.72-16,3.27-1,6.64-2.11,10.09-3.27l.44-.15c12.26-4.08,25-8.31,35.06-17.63,18.22-16.84,16.65-25.2,13.79-40.37A138.14,138.14,0,0,1,689,462.19q-.12-3.48-.22-7.05c-.9-30.94-1.9-66-31.71-91.62-11.61-10-25.81-10.82-39.35-10.82-2.31,0-4.62,0-6.94.06s-4.69.06-7,.06A105.52,105.52,0,0,1,582.17,351c-6.82-1.43-13.15-4.73-19.86-8.2C552.78,337.9,542.93,332.8,531,332.8Z"/><path class="cls-15" d="M549.22,587.09a31.83,31.83,0,0,1-3.58-.2c-13.7-1.5-25.21-12.52-37.39-24.19-3.83-3.67-7.79-7.47-11.89-11-3.09-2.67-6.39-5.29-9.89-8.05-14.77-11.68-31.5-24.91-36.05-47.39-8.51-42.15,6-77.08,44.22-106.78a177.17,177.17,0,0,0,13.9-12.5c10.3-9.94,21-20.22,34.06-21.54,11.3-1.12,20.55,2.35,29.5,5.68a86.59,86.59,0,0,0,14.9,4.59,153.54,153.54,0,0,0,20.09,1.77c13.92.59,28.31,1.22,40.09,10,33,24.55,37.49,59.81,35.45,85.05-2.27,27.94-3.32,31.59-27.31,48.62-6.44,4.57-13.56,7.86-20.43,11-3.11,1.43-6.21,2.86-9.26,4.41-16,8.11-25.57,15-33.13,23.95-2.63,3.1-5.14,6.64-7.79,10.4C576,573.18,566.2,587.09,549.22,587.09Zm-2.28-229a40.21,40.21,0,0,0-4,.21c-12.12,1.21-22,10.7-32.36,20.74a182.82,182.82,0,0,1-14.14,12.71c-37.33,28.95-51.45,62.95-43.18,103.94,4.34,21.46,20.64,34.35,35,45.71,3.52,2.78,6.86,5.42,10,8.13,4.15,3.61,8.14,7.43,12,11.13,11.81,11.32,23,22,35.72,23.41,17.46,1.81,27.14-11.68,36.42-24.81,2.69-3.8,5.23-7.4,7.94-10.6,7.73-9.09,17.9-16.46,34-24.64,3.08-1.57,6.22-3,9.35-4.47,6.76-3.12,13.75-6.35,20-10.76,23.16-16.45,23.88-18.92,26.11-46.51,2-24.54-2.34-58.77-34.31-82.53-11.07-8.23-24.39-8.81-38.49-9.41a156.1,156.1,0,0,1-20.48-1.81,88.77,88.77,0,0,1-15.38-4.73C563.58,361,555.79,358.08,546.94,358.08Z"/><path class="cls-16" d="M555.74,570l-1,0c-13.83-.41-27.74-12.07-39.68-23-13.32-12.13-26.82-25.54-32.51-44.37-8.52-28.16-9.14-68.55,36.26-101l4-2.92c10.79-7.82,21.93-15.92,34.4-17.88a54.42,54.42,0,0,1,8.53-.64A112.8,112.8,0,0,1,583.62,382c2.54.41,5.07.81,7.61,1.13,2.2.28,4.39.53,6.59.78,12.94,1.5,26.3,3,37.52,9.57,29.07,16.87,44,44.12,38,69.4-4.4,18.9-15.26,22.56-29,27.19-4.36,1.46-8.87,3-13.78,5.12l-1,.42c-7.45,3.24-15.15,6.58-21.73,12-10.6,8.7-16,19.09-20.32,29-.62,1.45-1.23,2.91-1.84,4.37C579.74,555.27,573.58,570,555.74,570ZM565.8,383a51,51,0,0,0-8.08.62c-11.79,1.85-22.17,9.37-33.17,17.36l-4.06,2.93c-44,31.49-43.42,70.61-35.18,97.88C490.79,520,504,533.05,517,544.91c11.56,10.54,25,21.83,37.83,22.21h.9c15.94,0,21.46-13.21,27.31-27.2.61-1.48,1.22-2.95,1.86-4.4,4.21-9.79,10-21,21.12-30.11,6.89-5.65,14.77-9.08,22.4-12.39l1-.42c5-2.18,9.8-3.8,14-5.22,13.91-4.68,23.11-7.78,27.15-25.12,5.67-24-8.71-50-36.66-66.28-10.7-6.22-23.19-7.66-36.42-9.19-2.2-.26-4.41-.5-6.61-.79-2.58-.33-5.13-.73-7.71-1.13A109.65,109.65,0,0,0,565.8,383Z"/></g></g></svg>