<svg xmlns="http://www.w3.org/2000/svg" xmlns:xlink="http://www.w3.org/1999/xlink" viewBox="0 0 217.71 93.29"><defs><style>.cls-1{fill:url(#linear-gradient);}.cls-2{fill:url(#linear-gradient-2);}.cls-3{fill:url(#linear-gradient-3);}.cls-4{fill:url(#linear-gradient-4);}.cls-5{fill:url(#linear-gradient-5);}.cls-6{fill:url(#linear-gradient-6);}.cls-7{fill:url(#linear-gradient-7);}.cls-8{fill:url(#linear-gradient-8);}.cls-9{fill:url(#linear-gradient-9);}.cls-10{fill:url(#linear-gradient-10);}.cls-11{fill:url(#linear-gradient-11);}.cls-12{fill:url(#linear-gradient-12);}.cls-13{fill:url(#linear-gradient-13);}.cls-14{fill:url(#linear-gradient-14);}.cls-15{fill:url(#linear-gradient-15);}.cls-16{fill:url(#linear-gradient-16);}.cls-17{fill:#fff;}.cls-18{fill:#1a171b;}</style><linearGradient id="linear-gradient" y1="46.64" x2="113.92" y2="46.64" gradientUnits="userSpaceOnUse"><stop offset="0" stop-color="#b943fa"/><stop offset="1" stop-color="#c521a0"/></linearGradient><linearGradient id="linear-gradient-2" x1="3.64" y1="47.1" x2="111.12" y2="47.1" xlink:href="#linear-gradient"/><linearGradient id="linear-gradient-3" x1="7.27" y1="47.56" x2="108.37" y2="47.56" xlink:href="#linear-gradient"/><linearGradient id="linear-gradient-4" x1="10.91" y1="48.03" x2="105.58" y2="48.03" xlink:href="#linear-gradient"/><linearGradient id="linear-gradient-5" x1="14.54" y1="48.49" x2="102.78" y2="48.49" xlink:href="#linear-gradient"/><linearGradient id="linear-gradient-6" x1="18.17" y1="48.95" x2="100" y2="48.95" xlink:href="#linear-gradient"/><linearGradient id="linear-gradient-7" x1="21.8" y1="49.41" x2="97.21" y2="49.41" xlink:href="#linear-gradient"/><linearGradient id="linear-gradient-8" x1="25.42" y1="49.87" x2="94.44" y2="49.87" xlink:href="#linear-gradient"/><linearGradient id="linear-gradient-9" x1="29.04" y1="50.33" x2="91.67" y2="50.33" xlink:href="#linear-gradient"/><linearGradient id="linear-gradient-10" x1="32.66" y1="50.79" x2="88.94" y2="50.79" xlink:href="#linear-gradient"/><linearGradient id="linear-gradient-11" x1="36.27" y1="51.25" x2="86.2" y2="51.25" xlink:href="#linear-gradient"/><linearGradient id="linear-gradient-12" x1="39.87" y1="51.72" x2="83.5" y2="51.72" xlink:href="#linear-gradient"/><linearGradient id="linear-gradient-13" x1="43.45" y1="52.18" x2="80.91" y2="52.18" xlink:href="#linear-gradient"/><linearGradient id="linear-gradient-14" x1="47" y1="52.64" x2="78.49" y2="52.64" xlink:href="#linear-gradient"/><linearGradient id="linear-gradient-15" x1="50.48" y1="53.09" x2="76.98" y2="53.09" xlink:href="#linear-gradient"/><linearGradient id="linear-gradient-16" x1="53.86" y1="53.54" x2="76.03" y2="53.54" xlink:href="#linear-gradient"/></defs><title>Asset 1</title><g id="Layer_2" data-name="Layer 2"><g id="Слой_1" data-name="Слой 1"><path class="cls-1" d="M50.2,93.29a9.54,9.54,0,0,1-2.94-.46c-5.32-1.72-8.65-7-12.18-12.5-2.56-4-5.21-8.2-8.69-10.85-2.37-1.81-5.74-3.17-9.31-4.62C8.52,61.39-1.17,57.46.12,46,.86,39.31,5.8,35.14,11,30.72a78.49,78.49,0,0,0,6.63-6.05c2.56-2.72,4.75-6.81,6.86-10.77C28.17,7.07,31.94,0,37.78,0h.14c6,.11,10.28,4.31,14,8,2.51,2.49,4.88,4.83,7.46,5.63a15.78,15.78,0,0,0,4.68.64h0a49.87,49.87,0,0,0,8.67-1.07,48.8,48.8,0,0,1,8.45-1c4.58,0,7.84,1.56,10.25,4.92,4.12,5.73,2.33,12.65.6,19.33-1.47,5.67-2.86,11-.54,15.26,1.74,3.17,5.57,6.2,9.63,9.39,7.55,5.95,16.1,12.68,11.45,21.74-2.19,4.27-5.73,6.34-10.8,6.34h0c-4.4,0-9.44-1.53-14.31-3-4.58-1.38-8.9-2.69-12.64-2.79-4.51-.13-8.77,2.53-12.88,5.09s-7.78,4.84-11.76,4.84ZM37.78.35c-5.63,0-9.35,7-12.95,13.72-2.12,4-4.31,8.09-6.91,10.84A78.74,78.74,0,0,1,11.26,31C6.08,35.36,1.19,39.49.46,46-.79,57.24,8.77,61.11,17.21,64.53c3.59,1.46,7,2.83,9.39,4.67,3.53,2.69,6.19,6.88,8.77,10.94,3.49,5.49,6.79,10.67,12,12.35a9.1,9.1,0,0,0,2.83.44h0c3.89,0,7.62-2.33,11.58-4.79,4.16-2.59,8.45-5.25,13.08-5.14,3.78.1,8.13,1.41,12.73,2.8,4.85,1.47,9.86,3,14.21,3h0c4.93,0,8.36-2,10.49-6.15,4.52-8.8-3.55-15.16-11.35-21.31-4.09-3.22-8-6.26-9.72-9.5-2.38-4.35-1-9.77.51-15.51,1.71-6.61,3.48-13.44-.55-19-2.34-3.26-5.51-4.78-10-4.78a48.76,48.76,0,0,0-8.39,1,49.93,49.93,0,0,1-8.73,1.08h0A16.09,16.09,0,0,1,59.3,14c-2.67-.82-5.07-3.2-7.61-5.71C48,4.6,43.82.46,37.91.35Z"/><path class="cls-2" d="M51,91.35a9.14,9.14,0,0,1-2.76-.43c-5-1.61-8.21-6.54-11.56-11.77C34.29,75.37,31.77,71.46,28.5,69c-2.23-1.71-5.39-3-8.74-4.38-8-3.3-17.15-7-16-17.91C4.4,40.17,9.2,36,14.28,31.67c2-1.76,4.15-3.58,6.1-5.62,2.44-2.56,4.51-6.41,6.52-10.13,3.46-6.42,7-13.05,12.56-13.05h.11c5.7.1,9.71,4,13.24,7.48,2.37,2.33,4.62,4.52,7.06,5.27a15.08,15.08,0,0,0,4.45.6,47.5,47.5,0,0,0,8.12-1,46.79,46.79,0,0,1,7.92-1c4.35,0,7.45,1.47,9.76,4.63,4,5.46,2.35,12,.78,18.42-1.32,5.34-2.56,10.38-.44,14.38,1.61,3,5.19,5.9,9,8.93,7,5.57,14.83,11.89,10.39,20.37-2.11,4-5.5,6-10.37,6a22.92,22.92,0,0,1-2.63-.16,68.24,68.24,0,0,1-10.7-2.51c-4.3-1.25-8.37-2.44-11.87-2.48h-.14C70,81.84,66,84.31,62.24,86.7S54.85,91.35,51,91.35ZM39.46,3.21c-5.32,0-8.84,6.54-12.25,12.87-2,3.74-4.1,7.61-6.57,10.21-2,2.06-4.08,3.89-6.13,5.65-5,4.33-9.78,8.42-10.43,14.77C3,57.3,12,61,19.89,64.25c3.37,1.38,6.55,2.69,8.82,4.43C32,71.22,34.56,75.16,37,79,40.33,84.13,43.46,89,48.38,90.59A8.79,8.79,0,0,0,51,91c3.71,0,7.26-2.23,11-4.6s7.81-4.92,12.07-4.92h.14c3.55,0,7.64,1.24,12,2.5a67.59,67.59,0,0,0,10.64,2.5,22.43,22.43,0,0,0,2.59.16c4.79,0,8-1.85,10.06-5.81,4.31-8.23-3.12-14.18-10.3-19.94-3.81-3.05-7.41-5.94-9.06-9-2.19-4.12-.93-9.22.41-14.62,1.55-6.29,3.16-12.8-.72-18.13-2.23-3.06-5.24-4.49-9.47-4.49a46.43,46.43,0,0,0-7.86,1,47.65,47.65,0,0,1-8.18,1,15.4,15.4,0,0,1-4.55-.62c-2.53-.77-4.8-3-7.2-5.35-3.49-3.42-7.44-7.29-13-7.38Z"/><path class="cls-3" d="M51.87,89.41A8.68,8.68,0,0,1,49.29,89c-4.75-1.5-7.76-6.13-10.94-11-2.29-3.53-4.66-7.18-7.74-9.54a38.2,38.2,0,0,0-8.17-4.14c-7.53-3.14-16.06-6.7-15.09-16.92.6-6.35,5.27-10.46,10.21-14.8,1.84-1.62,3.75-3.3,5.55-5.16,2.31-2.4,4.27-6,6.18-9.49,3.27-6,6.65-12.2,11.86-12.2h.09c5.36.08,9.13,3.73,12.47,7,2.24,2.16,4.36,4.21,6.66,4.9a14.42,14.42,0,0,0,4.22.57,45.38,45.38,0,0,0,7.57-.89,44.51,44.51,0,0,1,7.4-.88c4.12,0,7.06,1.38,9.26,4.35,3.84,5.19,2.38,11.46,1,17.52-1.17,5-2.27,9.72-.34,13.49,1.49,2.89,4.8,5.6,8.3,8.46,6.67,5.45,13.57,11.09,9.33,19-2,3.81-5.28,5.66-9.95,5.66a21.85,21.85,0,0,1-2.32-.13,63.73,63.73,0,0,1-10-2.22c-4-1.12-7.83-2.18-11.11-2.18-3.91,0-7.6,2.36-11.17,4.63S55.51,89.41,51.87,89.41ZM41.14,6.07c-5,0-8.19,5.84-11.56,12-1.91,3.51-3.89,7.13-6.23,9.57-1.81,1.88-3.72,3.56-5.57,5.18-5.1,4.48-9.5,8.35-10.09,14.57-.94,10,7.46,13.47,14.88,16.57a38.15,38.15,0,0,1,8.24,4.18c3.12,2.39,5.51,6.07,7.82,9.63,3.15,4.85,6.12,9.43,10.75,10.89a8.32,8.32,0,0,0,2.48.38c3.54,0,6.9-2.14,10.45-4.4S69.67,80,73.68,80C77,80,80.84,81,84.88,82.16a63.47,63.47,0,0,0,9.95,2.21,21.71,21.71,0,0,0,2.29.13c4.59,0,7.65-1.74,9.64-5.47,4.1-7.66-2.69-13.21-9.25-18.57-3.53-2.89-6.87-5.62-8.39-8.57-2-3.88-.87-8.67.31-13.73,1.4-6,2.85-12.17-.9-17.23-2.12-2.87-5-4.2-9-4.2a44.27,44.27,0,0,0-7.34.87,45.68,45.68,0,0,1-7.63.9,14.76,14.76,0,0,1-4.32-.58c-2.38-.72-4.53-2.79-6.8-5-3.29-3.18-7-6.77-12.23-6.85Z"/><path class="cls-4" d="M52.72,87.47a8.19,8.19,0,0,1-2.42-.37C45.83,85.73,43,81.39,40,76.8c-2.15-3.28-4.38-6.68-7.25-8.89A36.08,36.08,0,0,0,25.12,64c-7-3-15-6.36-14.16-15.93.53-6.23,4.87-10.13,9.9-14.64,1.64-1.47,3.33-3,5-4.66,2.18-2.24,4-5.6,5.83-8.85,3.08-5.58,6.27-11.36,11.17-11.36h.07c5,.07,8.56,3.44,11.7,6.42,2.11,2,4.1,3.9,6.26,4.54a13.72,13.72,0,0,0,4,.53,43.19,43.19,0,0,0,7-.8,42.39,42.39,0,0,1,6.87-.79c3.89,0,6.68,1.29,8.76,4.06,3.7,4.92,2.4,10.87,1.14,16.62-1,4.66-2,9.06-.24,12.59,1.36,2.75,4.41,5.3,7.63,8,6,5.06,12.31,10.3,8.29,17.65-1.94,3.58-5.06,5.31-9.53,5.31-.63,0-1.3,0-2-.1a59.44,59.44,0,0,1-9.32-1.94c-3.76-1-7.31-1.93-10.36-1.87-3.59.06-7,2.27-10.3,4.4S56.19,87.47,52.72,87.47ZM42.83,8.93c-4.69,0-7.69,5.43-10.87,11.18-1.81,3.27-3.67,6.65-5.89,8.92-1.63,1.68-3.33,3.2-5,4.67-5,4.46-9.27,8.32-9.79,14.41-.79,9.32,7,12.65,13.95,15.58a36.34,36.34,0,0,1,7.67,3.94c2.92,2.25,5.16,5.66,7.33,9,3,4.54,5.79,8.82,10.14,10.17a7.91,7.91,0,0,0,2.32.35c3.36,0,6.53-2,9.88-4.22s6.79-4.39,10.48-4.45c3.11,0,6.67.89,10.45,1.88a59.14,59.14,0,0,0,9.26,1.93c.69.07,1.35.1,2,.1,4.39,0,7.32-1.63,9.23-5.13,3.88-7.1-2.26-12.24-8.2-17.21-3.25-2.72-6.32-5.29-7.72-8.11-1.8-3.65-.82-8.11.21-12.82,1.24-5.68,2.53-11.54-1.07-16.34-2-2.67-4.7-3.92-8.48-3.92a42.3,42.3,0,0,0-6.81.79,43.4,43.4,0,0,1-7.08.81,14,14,0,0,1-4.08-.54c-2.24-.67-4.26-2.59-6.4-4.63C51.27,12.32,47.77,9,42.89,8.93Z"/><path class="cls-5" d="M53.57,85.54a7.77,7.77,0,0,1-2.25-.33c-4.19-1.27-6.87-5.31-9.71-9.58-2-3-4.1-6.17-6.77-8.23a34.11,34.11,0,0,0-7-3.66c-6.51-2.82-13.89-6-13.22-14.94.46-6.14,4.71-10,9.65-14.55,1.42-1.3,2.88-2.64,4.32-4.09,2-2.08,3.79-5.19,5.48-8.2,2.9-5.17,5.9-10.52,10.48-10.52h.05c4.66,0,8,3.15,10.92,5.89,2,1.84,3.83,3.59,5.85,4.18a13.07,13.07,0,0,0,3.76.49,41.17,41.17,0,0,0,6.47-.72,40.48,40.48,0,0,1,6.34-.71c3.67,0,6.29,1.2,8.27,3.77,3.56,4.66,2.42,10.29,1.32,15.73-.87,4.31-1.7,8.39-.14,11.69,1.24,2.61,4,5,6.94,7.52,5.43,4.67,11,9.5,7.25,16.29-1.9,3.39-4.8,5-9.14,5-.52,0-1.08,0-1.66-.07a54.91,54.91,0,0,1-8.62-1.65c-3.49-.86-6.77-1.67-9.6-1.56-3.29.12-6.41,2.18-9.44,4.16S56.86,85.54,53.57,85.54ZM44.51,11.79c-4.38,0-7.2,5-10.18,10.34-1.7,3-3.46,6.17-5.54,8.28-1.44,1.46-2.91,2.8-4.33,4.1-4.88,4.46-9.09,8.32-9.53,14.31-.64,8.68,6.61,11.82,13,14.59a34.24,34.24,0,0,1,7.1,3.7c2.72,2.1,4.82,5.26,6.85,8.31,2.8,4.22,5.45,8.2,9.53,9.44a7.42,7.42,0,0,0,2.15.32c3.18,0,6.16-2,9.32-4s6.23-4.09,9.61-4.22c2.87-.1,6.19.71,9.7,1.58a54.92,54.92,0,0,0,8.57,1.64c.57,0,1.12.07,1.63.07,4.2,0,7-1.52,8.84-4.8,3.66-6.54-1.85-11.28-7.17-15.86-3-2.55-5.76-5-7-7.64-1.61-3.41-.77-7.54.12-11.91,1.09-5.37,2.21-10.92-1.26-15.45-1.9-2.48-4.44-3.64-8-3.64a40.13,40.13,0,0,0-6.28.7,41.27,41.27,0,0,1-6.53.72,13.39,13.39,0,0,1-3.86-.51c-2.1-.62-4-2.39-6-4.26-2.89-2.7-6.16-5.75-10.69-5.8Z"/><path class="cls-6" d="M54.41,83.6a7.3,7.3,0,0,1-2.08-.3c-3.91-1.16-6.43-4.9-9.1-8.85-1.88-2.78-3.82-5.66-6.29-7.57a32.21,32.21,0,0,0-6.45-3.42c-6-2.66-12.8-5.67-12.29-14,.38-6.07,4.59-10,9.46-14.53,1.18-1.1,2.4-2.23,3.6-3.44A36.77,36.77,0,0,0,36.39,24c2.72-4.76,5.53-9.68,9.8-9.68s7.44,2.87,10.17,5.37c1.84,1.68,3.57,3.27,5.45,3.82a12.42,12.42,0,0,0,3.53.46,39,39,0,0,0,5.92-.63,38.38,38.38,0,0,1,5.81-.62c3.44,0,5.91,1.11,7.77,3.49,3.43,4.39,2.45,9.71,1.51,14.85-.73,4-1.42,7.71-.05,10.78,1.11,2.47,3.61,4.69,6.26,7,4.82,4.28,9.8,8.71,6.21,14.94C97,77,94.16,78.43,90,78.43c-.4,0-.83,0-1.27,0A51.63,51.63,0,0,1,80.82,77c-3.23-.73-6.28-1.41-8.89-1.26-3,.18-5.82,2.08-8.57,3.92S57.53,83.6,54.41,83.6Zm-8.2-68.95c-4.09,0-6.73,4.62-9.52,9.5a37.09,37.09,0,0,1-5.19,7.63C30.3,33,29.08,34.13,27.9,35.23c-4.82,4.49-9,8.37-9.35,14.3-.5,8,6.19,11,12.08,13.61a32.36,32.36,0,0,1,6.53,3.46c2.51,1.95,4.47,4.85,6.36,7.65,2.64,3.9,5.13,7.59,8.91,8.71a7,7,0,0,0,2,.29c3,0,5.93-2,8.75-3.85s5.67-3.8,8.74-4c2.67-.16,5.73.53,9,1.27A51.49,51.49,0,0,0,88.73,78c.43,0,.85,0,1.25,0,4,0,6.74-1.42,8.49-4.46,3.44-6-1.43-10.31-6.14-14.5C89.66,56.74,87.13,54.49,86,52c-1.41-3.17-.71-7,0-11,.93-5.07,1.9-10.31-1.44-14.57C82.79,24.11,80.4,23,77.08,23a38.24,38.24,0,0,0-5.75.62,39.3,39.3,0,0,1-6,.63,12.7,12.7,0,0,1-3.63-.47c-2-.57-3.72-2.18-5.59-3.89C53.45,17.47,50.4,14.68,46.21,14.65Z"/><path class="cls-7" d="M55.25,81.66a6.87,6.87,0,0,1-1.91-.27c-3.63-1-6-4.49-8.49-8.13-1.74-2.53-3.54-5.15-5.8-6.91a30.45,30.45,0,0,0-5.88-3.17c-5.5-2.5-11.73-5.33-11.36-13,.29-6,4.51-10,9.39-14.64C32.1,34.71,33,33.83,34,32.9A33.85,33.85,0,0,0,38.76,26c2.54-4.35,5.16-8.84,9.12-8.84s6.85,2.58,9.38,4.84c1.7,1.52,3.31,3,5,3.46a11.73,11.73,0,0,0,3.31.42A37.13,37.13,0,0,0,71,25.33a36.64,36.64,0,0,1,5.27-.54A8.6,8.6,0,0,1,83.53,28c3.3,4.13,2.49,9.14,1.7,14-.59,3.62-1.15,7,0,9.86,1,2.33,3.31,4.49,5.56,6.58C95,62.3,99.38,66.33,96,72c-1.75,2.94-4.44,4.3-8.46,4.3l-.87,0A48.09,48.09,0,0,1,79.5,75.2a38,38,0,0,0-7.12-1c-.36,0-.71,0-1,0-2.67.23-5.23,2-7.71,3.68C61,79.76,58.2,81.66,55.25,81.66ZM47.88,17.51c-3.76,0-6.22,4.21-8.82,8.67a34.22,34.22,0,0,1-4.84,7c-.94.93-1.88,1.81-2.79,2.67-4.82,4.56-9,8.5-9.28,14.41-.36,7.39,5.75,10.17,11.15,12.63a30.56,30.56,0,0,1,6,3.21c2.31,1.8,4.12,4.44,5.88,7,2.46,3.59,4.79,7,8.3,8a6.54,6.54,0,0,0,1.81.26c2.84,0,5.56-1.86,8.19-3.67s5.11-3.5,7.88-3.74c.34,0,.7,0,1.07,0a38.28,38.28,0,0,1,7.18,1,47.36,47.36,0,0,0,7.13,1.06l.85,0c3.89,0,6.48-1.31,8.16-4.13,3.23-5.42-1-9.34-5.12-13.14C88.31,56.56,86,54.38,84.94,52c-1.23-2.92-.66-6.39-.06-10.05.78-4.77,1.58-9.7-1.62-13.71-1.7-2.12-3.86-3.07-7-3.07a36.22,36.22,0,0,0-5.22.53,37.28,37.28,0,0,1-5.42.55,12.1,12.1,0,0,1-3.4-.44c-1.81-.52-3.45-2-5.18-3.53C54.54,20,51.72,17.53,47.88,17.51Z"/><path class="cls-8" d="M56.09,79.72a6.46,6.46,0,0,1-1.73-.24c-3.35-.94-5.55-4.08-7.88-7.4a28.77,28.77,0,0,0-5.32-6.25,28.49,28.49,0,0,0-5.31-2.93c-5-2.34-10.65-5-10.42-12,.2-6.09,4.5-10.19,9.48-14.93l1.79-1.71A31,31,0,0,0,41.12,28c2.35-3.94,4.78-8,8.41-8s6.28,2.3,8.61,4.31a13.54,13.54,0,0,0,4.65,3.09,11.16,11.16,0,0,0,3.09.39,35.29,35.29,0,0,0,4.81-.46,34.82,34.82,0,0,1,4.73-.45,8.12,8.12,0,0,1,6.79,2.92c3.19,3.87,2.53,8.58,1.9,13.13-.45,3.26-.88,6.34.12,8.92.85,2.19,2.89,4.17,4.86,6.09,3.6,3.5,7.33,7.13,4.16,12.23-2.21,3.56-5.73,4-8.19,4h-.4a44,44,0,0,1-6.46-.78,37.37,37.37,0,0,0-6.05-.72,11.79,11.79,0,0,0-1.37.07c-2.37.29-4.64,1.89-6.84,3.44C61.44,77.92,58.87,79.72,56.09,79.72ZM49.54,20.37c-3.45,0-5.72,3.81-8.12,7.84a31.36,31.36,0,0,1-4.48,6.32l-1.79,1.71C30,41.13,26,45,25.78,50.94,25.55,57.69,31.1,60.29,36,62.58a28.68,28.68,0,0,1,5.37,3,28.94,28.94,0,0,1,5.39,6.33c2.3,3.27,4.47,6.37,7.69,7.27a6.13,6.13,0,0,0,1.64.23c2.67,0,5.19-1.78,7.63-3.49,2.24-1.57,4.55-3.2,7-3.5a12.06,12.06,0,0,1,1.41-.08,37.66,37.66,0,0,1,6.11.72,43.6,43.6,0,0,0,6.41.78h.4c3.83,0,6.26-1.17,7.9-3.81,3-4.86-.45-8.23-4.11-11.79-2-1.94-4.06-4-4.94-6.21-1-2.67-.6-5.79-.14-9.09C84.38,38.42,85,33.79,81.94,30a7.71,7.71,0,0,0-6.53-2.79,34.59,34.59,0,0,0-4.68.45,35.48,35.48,0,0,1-4.86.46,11.51,11.51,0,0,1-3.18-.4C61,27.29,59.51,26,57.91,24.59,55.62,22.62,53,20.38,49.54,20.37Z"/><path class="cls-9" d="M56.93,77.79a6,6,0,0,1-1.56-.21c-3.07-.83-5.11-3.67-7.28-6.68a27.12,27.12,0,0,0-4.83-5.59,26.89,26.89,0,0,0-4.74-2.68C34,60.44,28.94,58,29,51.64s4.41-10.33,9.88-15.52l.49-.47a28.37,28.37,0,0,0,4.06-5.58c2.27-3.68,4.41-7.16,7.73-7.19h.06c3.26,0,5.66,2,7.77,3.78a12.46,12.46,0,0,0,4.23,2.73,10.59,10.59,0,0,0,2.87.35,38.4,38.4,0,0,0,4.54-.39A28.62,28.62,0,0,1,74.57,29a7.67,7.67,0,0,1,6.32,2.63c3.08,3.63,2.58,8,2.11,12.32-.32,2.89-.63,5.62.19,7.95.72,2,2.46,3.85,4.14,5.59,3,3.12,6.11,6.35,3.16,10.9C88.4,71.59,85.19,72,82.62,72h-.17a41.94,41.94,0,0,1-5.56-.51A37.89,37.89,0,0,0,72,71.08a11.24,11.24,0,0,0-1.79.13c-2.07.33-4.06,1.78-6,3.19C61.91,76.06,59.54,77.79,56.93,77.79ZM51.26,23.23H51.2c-3.13,0-5.22,3.42-7.43,7a28.7,28.7,0,0,1-4.11,5.65l-.49.47c-5.4,5.13-9.67,9.19-9.77,15.27s4.89,8.53,9.29,10.67A27,27,0,0,1,43.48,65a27.49,27.49,0,0,1,4.89,5.66c2.13,3,4.14,5.76,7.09,6.55a5.66,5.66,0,0,0,1.47.19c2.5,0,4.82-1.69,7.06-3.32,2-1.43,4-2.91,6.14-3.25A11.48,11.48,0,0,1,72,70.73a37.94,37.94,0,0,1,5,.46,41.9,41.9,0,0,0,5.51.5h.16c2.48,0,5.58-.44,7.57-3.5,2.8-4.32-.07-7.3-3.12-10.46C85.36,56,83.59,54.13,82.85,52c-.84-2.4-.54-5.17-.21-8.1.47-4.2,1-8.54-2-12.05a7.25,7.25,0,0,0-6.05-2.51,27.82,27.82,0,0,0-3.81.33,38.58,38.58,0,0,1-4.62.41,11,11,0,0,1-3-.36,12.74,12.74,0,0,1-4.37-2.8C56.63,25.11,54.39,23.23,51.26,23.23Z"/><path class="cls-10" d="M57.77,75.85a5.52,5.52,0,0,1-1.38-.18c-2.79-.71-4.68-3.26-6.68-6a25.86,25.86,0,0,0-4.33-4.92,25.25,25.25,0,0,0-4.17-2.44c-4-2-8.53-4.32-8.55-10,0-6,3.91-10.15,9.47-15.33a25.89,25.89,0,0,0,3.69-4.91c2.07-3.25,4-6.32,7-6.37H53c2.9,0,5.06,1.73,7,3.25a11.52,11.52,0,0,0,3.82,2.36,10.12,10.12,0,0,0,2.65.32,31.86,31.86,0,0,0,3.68-.29,31.92,31.92,0,0,1,3.63-.29,7.16,7.16,0,0,1,5.86,2.36c3,3.39,2.66,7.54,2.34,11.55-.2,2.51-.39,4.88.24,6.93A14.9,14.9,0,0,0,85.54,57c2.53,2.87,4.92,5.57,2.17,9.57-1.91,2.78-4.71,3-7,3.08a37.94,37.94,0,0,1-5-.05c-1.29-.12-2.61-.13-3.77-.13a11.41,11.41,0,0,0-2.35.21c-1.76.37-3.4,1.61-5.13,2.93C62.39,74.21,60.22,75.85,57.77,75.85ZM53,26.09h-.1c-2.81,0-4.72,3-6.74,6.21a26.14,26.14,0,0,1-3.74,5C36.87,42.4,33,46.47,33,52.35c0,5.47,4.45,7.71,8.36,9.69a25.39,25.39,0,0,1,4.23,2.47,26.05,26.05,0,0,1,4.39,5c2,2.65,3.82,5.15,6.49,5.84a5.24,5.24,0,0,0,1.29.16c2.33,0,4.45-1.61,6.5-3.16,1.68-1.28,3.43-2.6,5.27-3A11.69,11.69,0,0,1,72,69.13c1.17,0,2.4.11,3.7.23a42.61,42.61,0,0,0,5.25,0c2.37-.1,4.71-.3,6.52-2.94,2.6-3.78.29-6.38-2.14-9.14A15.17,15.17,0,0,1,81.81,52c-.65-2.12-.46-4.52-.26-7.06.32-3.94.64-8-2.25-11.29a6.83,6.83,0,0,0-5.59-2.24,31.42,31.42,0,0,0-3.59.29A32.38,32.38,0,0,1,66.4,32a10.52,10.52,0,0,1-2.75-.32,11.77,11.77,0,0,1-3.95-2.43C57.75,27.71,55.73,26.09,53,26.09Z"/><path class="cls-11" d="M58.61,73.91a5.13,5.13,0,0,1-1.2-.14c-2.51-.6-4.25-2.86-6.09-5.25a24.51,24.51,0,0,0-3.82-4.25,23.91,23.91,0,0,0-3.59-2.18c-3.51-1.87-7.48-4-7.62-9-.16-5.58,3.16-9.75,8.58-14.67a23.37,23.37,0,0,0,3.31-4.24c1.89-2.82,3.67-5.49,6.35-5.55h.15c2.53,0,4.45,1.45,6.15,2.73a10.69,10.69,0,0,0,3.41,2,9.75,9.75,0,0,0,2.46.28c1,0,2.07-.11,3.08-.21s2.06-.21,3.05-.21a6.77,6.77,0,0,1,5.41,2.08c2.93,3.17,2.76,7.08,2.59,10.85A20.3,20.3,0,0,0,81.1,52a13,13,0,0,0,2.65,4.55c1.93,2.47,3.75,4.81,1.2,8.27-1.73,2.34-4.19,2.84-6.38,3-.62.05-1.29.08-2.06.08s-1.44,0-2.14,0-1.34,0-2,0a12.41,12.41,0,0,0-3.36.36,13.18,13.18,0,0,0-4.26,2.65C62.87,72.34,60.91,73.91,58.61,73.91Zm-3.94-45h-.14c-2.5.06-4.23,2.65-6.07,5.4a23.54,23.54,0,0,1-3.37,4.31c-5.34,4.85-8.62,9-8.46,14.4.13,4.83,4,6.9,7.43,8.72A24.13,24.13,0,0,1,47.71,64a24.75,24.75,0,0,1,3.88,4.31c1.8,2.34,3.51,4.56,5.9,5.13a4.85,4.85,0,0,0,1.12.13c2.18,0,4.09-1.53,5.94-3a13.43,13.43,0,0,1,4.39-2.72,12.66,12.66,0,0,1,3.45-.37c.65,0,1.3,0,2,0s1.41,0,2.13,0,1.42,0,2-.08c2.11-.18,4.48-.67,6.12-2.89,2.4-3.25.73-5.38-1.19-7.85A13.21,13.21,0,0,1,80.76,52a20.53,20.53,0,0,1-.28-5.95c.17-3.7.34-7.53-2.5-10.6a6.45,6.45,0,0,0-5.15-2c-1,0-2,.1-3,.21s-2.09.21-3.12.21a10.06,10.06,0,0,1-2.55-.29,10.88,10.88,0,0,1-3.54-2.06C58.87,30.3,57.08,28.95,54.67,28.95Z"/><path class="cls-12" d="M59.44,72a4.74,4.74,0,0,1-1-.11c-2.24-.49-3.84-2.47-5.52-4.56a23.75,23.75,0,0,0-3.3-3.56,22.65,22.65,0,0,0-3-1.92c-3-1.72-6.44-3.66-6.69-8-.28-4.88,1.95-8.94,7.68-14a20.93,20.93,0,0,0,2.92-3.56c1.63-2.29,3.31-4.66,5.68-4.74s4,1.14,5.53,2.2a9.77,9.77,0,0,0,3,1.63,9.53,9.53,0,0,0,2.3.25c.81,0,1.65-.07,2.46-.13s1.64-.13,2.44-.13a6.58,6.58,0,0,1,5,1.8c2.93,3,2.9,6.7,2.88,10.29A23.6,23.6,0,0,0,80.06,52a11.46,11.46,0,0,0,1.87,4c1.35,2.09,2.62,4.07.25,7a8.16,8.16,0,0,1-5.63,2.72c-1.14.16-2.28.22-3.37.27a16,16,0,0,0-4.71.67A12.46,12.46,0,0,0,65.06,69C63.36,70.46,61.6,72,59.44,72ZM56.38,31.81h-.19c-2.2.07-3.75,2.27-5.41,4.6a21.31,21.31,0,0,1-3,3.62c-5.64,5-7.83,9-7.56,13.73.24,4.2,3.57,6.09,6.51,7.77a22.73,22.73,0,0,1,3.06,2,23.8,23.8,0,0,1,3.35,3.62c1.65,2,3.21,4,5.33,4.43a4.37,4.37,0,0,0,.94.1c2,0,3.74-1.46,5.39-2.88a12.77,12.77,0,0,1,3.51-2.42,16.3,16.3,0,0,1,4.82-.69c1.09-.05,2.21-.11,3.34-.27a7.85,7.85,0,0,0,5.41-2.59c2.21-2.74,1.12-4.44-.27-6.6a11.89,11.89,0,0,1-1.92-4.1,23.86,23.86,0,0,1-.27-4.7c0-3.52,0-7.15-2.78-10a6.27,6.27,0,0,0-4.75-1.7c-.79,0-1.62.07-2.41.13s-1.67.13-2.49.13a9.82,9.82,0,0,1-2.38-.26,10,10,0,0,1-3.12-1.68C60,32.9,58.43,31.81,56.38,31.81Z"/><path class="cls-13" d="M60.27,70a4.36,4.36,0,0,1-.83-.08c-2-.38-3.44-2.08-5-3.87a23.55,23.55,0,0,0-2.75-2.86,22.51,22.51,0,0,0-2.43-1.64c-2.54-1.57-5.42-3.35-5.77-7.09-.45-4.84,1.64-9,6.78-13.35a19.27,19.27,0,0,0,2.52-2.87c1.46-1.89,3-3.85,5-3.95A8.11,8.11,0,0,1,62.61,36a9.14,9.14,0,0,0,2.59,1.26,9.61,9.61,0,0,0,2.2.21c.59,0,1.19,0,1.77-.06s1.18-.06,1.76-.06a6.36,6.36,0,0,1,4.67,1.54c3,2.88,3.14,6.67,3.24,10,0,1.1.06,2.14.19,3.12a11.15,11.15,0,0,0,1.08,3.34c.86,1.89,1.54,3.38-.69,5.82a8.76,8.76,0,0,1-4.88,2.4c-.84.19-1.65.32-2.44.44a14.14,14.14,0,0,0-4.2,1.09,12.2,12.2,0,0,0-2.54,2C63.85,68.57,62.31,70,60.27,70ZM58.1,34.66h-.25c-1.9.09-3.29,1.9-4.76,3.81a19.44,19.44,0,0,1-2.57,2.92c-5,4.31-7.1,8.34-6.66,13.05.33,3.57,3.13,5.3,5.61,6.83A22.43,22.43,0,0,1,51.93,63a23.78,23.78,0,0,1,2.79,2.9c1.5,1.75,2.92,3.4,4.78,3.76a4,4,0,0,0,.76.08c1.9,0,3.39-1.42,4.84-2.79a12.44,12.44,0,0,1,2.62-2.09A14.43,14.43,0,0,1,72,63.68c.78-.12,1.59-.25,2.42-.44A8.35,8.35,0,0,0,79.15,61c2.07-2.27,1.47-3.6.63-5.44a11.47,11.47,0,0,1-1.11-3.44c-.12-1-.16-2-.19-3.15-.1-3.44-.2-7-3.14-9.77a6,6,0,0,0-4.43-1.44c-.57,0-1.17,0-1.74.06s-1.2.06-1.79.06a10,10,0,0,1-2.28-.22,9.34,9.34,0,0,1-2.69-1.31A8.16,8.16,0,0,0,58.1,34.66Z"/><path class="cls-14" d="M61.09,68.1a4.09,4.09,0,0,1-.63-.05c-1.74-.28-3.08-1.71-4.5-3.24a25.89,25.89,0,0,0-2.14-2.12c-.54-.45-1.16-.88-1.81-1.33-2.08-1.43-4.45-3-4.88-6.17-.67-4.82,1.2-8.86,5.88-12.69a18.27,18.27,0,0,0,2.08-2.16c1.3-1.5,2.64-3,4.39-3.17a7.39,7.39,0,0,1,4,1.16,8.82,8.82,0,0,0,2.15.89,11.58,11.58,0,0,0,2.36.19h1.58a6.76,6.76,0,0,1,4.65,1.3c3.47,3,3.58,7,3.69,10.57l0,.79a15.7,15.7,0,0,0,.31,2.46c.33,1.77.54,2.83-1.65,4.86a10.6,10.6,0,0,1-4.07,2.06l0,0-1.14.37a13.55,13.55,0,0,0-4,1.75,12.86,12.86,0,0,0-1.7,1.66C64.42,66.58,63,68.1,61.09,68.1ZM59.83,37.52h-.32c-1.61.11-2.84,1.54-4.15,3a18.45,18.45,0,0,1-2.13,2.2c-4.58,3.75-6.41,7.69-5.76,12.38.41,3,2.7,4.54,4.73,5.93.66.46,1.29.88,1.84,1.35a25.54,25.54,0,0,1,2.17,2.14c1.38,1.48,2.69,2.87,4.3,3.13a3.75,3.75,0,0,0,.57,0c1.79,0,3.06-1.4,4.29-2.74a12.87,12.87,0,0,1,1.75-1.7,13.75,13.75,0,0,1,4.14-1.8l1.13-.37,0,0a10.32,10.32,0,0,0,3.94-2c2-1.9,1.87-2.83,1.55-4.54a15.67,15.67,0,0,1-.32-2.52c0-.26,0-.53,0-.8C77.5,47.8,77.39,43.86,74,41a6.37,6.37,0,0,0-4.42-1.22H68a11.89,11.89,0,0,1-2.43-.2,9,9,0,0,1-2.24-.92A7.58,7.58,0,0,0,59.83,37.52Z"/><path class="cls-15" d="M61.89,66.17l-.41,0c-1.55-.17-2.85-1.41-4.22-2.73-.43-.41-.88-.84-1.34-1.24s-.72-.59-1.11-.9c-1.67-1.32-3.56-2.81-4.07-5.35-1-4.75.67-8.69,5-12a20.3,20.3,0,0,0,1.57-1.41c1.16-1.12,2.36-2.28,3.84-2.43l.49,0a7.92,7.92,0,0,1,2.84.67,9.88,9.88,0,0,0,1.68.52,17.52,17.52,0,0,0,2.26.2,7.8,7.8,0,0,1,4.53,1.13,10.38,10.38,0,0,1,4,9.59c-.25,3.15-.37,3.56-3.08,5.49a14.17,14.17,0,0,1-2.31,1.25l-1,.5A11.23,11.23,0,0,0,66.78,62c-.3.35-.58.75-.88,1.17C64.92,64.6,63.81,66.17,61.89,66.17Zm-.26-25.8-.45,0c-1.36.14-2.47,1.2-3.64,2.34a20.78,20.78,0,0,1-1.59,1.43c-4.2,3.26-5.79,7.09-4.86,11.7.49,2.41,2.32,3.86,3.94,5.14.4.31.77.61,1.12.91s.92.84,1.35,1.25c1.33,1.27,2.58,2.48,4,2.63,2,.22,3-1.31,4.09-2.79.3-.43.59-.84.9-1.2A11.68,11.68,0,0,1,70.35,59c.34-.18.7-.34,1.05-.5a13.71,13.71,0,0,0,2.25-1.21c2.6-1.85,2.68-2.13,2.94-5.23a10,10,0,0,0-3.86-9.29,7.43,7.43,0,0,0-4.33-1.06,17.68,17.68,0,0,1-2.31-.2A10.14,10.14,0,0,1,64.35,41,7.69,7.69,0,0,0,61.63,40.37Z"/><path class="cls-16" d="M62.62,64.24h-.11c-1.56,0-3.13-1.36-4.48-2.59a11.46,11.46,0,0,1-3.67-5,9.56,9.56,0,0,1,1-8.31,12.05,12.05,0,0,1,3.08-3.09l.46-.33a9.58,9.58,0,0,1,3.88-2,6.15,6.15,0,0,1,1-.07,12.82,12.82,0,0,1,2,.21l.86.13.74.09a10.8,10.8,0,0,1,4.24,1.08c3.28,1.91,5,5,4.29,7.83-.5,2.14-1.72,2.55-3.28,3.07-.49.16-1,.33-1.55.58l-.11,0a10.11,10.11,0,0,0-2.45,1.35,8.11,8.11,0,0,0-2.28,3.27L66,61C65.34,62.58,64.64,64.24,62.62,64.24Zm1.13-21.06a5.68,5.68,0,0,0-.91.07,9.19,9.19,0,0,0-3.73,2l-.46.33a11.6,11.6,0,0,0-3,3,9.24,9.24,0,0,0-.94,8,11.16,11.16,0,0,0,3.57,4.85c1.3,1.19,2.81,2.46,4.26,2.5h.1c1.79,0,2.41-1.48,3.06-3.06l.21-.5a8.54,8.54,0,0,1,2.38-3.4,10.31,10.31,0,0,1,2.53-1.4l.11,0c.57-.25,1.11-.43,1.58-.59,1.56-.53,2.59-.87,3-2.82.64-2.7-1-5.63-4.12-7.45a10.38,10.38,0,0,0-4.1-1l-.74-.09-.87-.13A12.33,12.33,0,0,0,63.75,43.18Z"/><path class="cls-17" d="M214.66,56c-.13-.18-.38-.54-.81-1.24l-.52-.79a21,21,0,0,0-1.61-2.33,4.17,4.17,0,0,0,4.72-4.17A4,4,0,0,0,215,44.39a4.55,4.55,0,0,0-3-1,5.08,5.08,0,0,0-3,.93,3.09,3.09,0,0,0-1.9-.63h0l-1.79,0h-.13c-.31,0-.79,0-1.43,0s-1.12,0-1.43,0l-2,0a3,3,0,0,0-1.81.62,5.05,5.05,0,0,0-2.95-.91,4.55,4.55,0,0,0-3.07,1.05,4.13,4.13,0,0,0-.51.55,7.46,7.46,0,0,0-.75-.55,8.22,8.22,0,0,0-8.18-.17,3.64,3.64,0,0,0-2.06-.58h-4a3,3,0,0,0-1.82.62,7.25,7.25,0,0,0-3.69-.91,9.83,9.83,0,0,0-8.6,5,10,10,0,0,0-.63,1.37A8.06,8.06,0,0,0,159.6,49a3.2,3.2,0,0,0,.82-2.17,3.07,3.07,0,0,0-3-3.15c-.65,0-1.18,0-1.57,0l-1.8,0-1.62,0c-.35,0-.83,0-1.42,0a3,3,0,0,0-2,.77c-.12-.06-.22-.14-.34-.2a10.16,10.16,0,0,0-10.51,1.5,3,3,0,0,0-2.83-2.07c-.59,0-1.08,0-1.44,0l-1.56,0-1.62,0c-.35,0-.83,0-1.42,0a3,3,0,0,0-1.43.36,3,3,0,0,0-1.4-.36c-.59,0-1.08,0-1.44,0l-1.56,0-1.62,0c-.35,0-.83,0-1.42,0a3,3,0,0,0-2.72,1.73,9.52,9.52,0,0,0-.94-.71,9,9,0,0,0-5-1.44,10.91,10.91,0,0,0-4.54,1,9.39,9.39,0,0,0-3.88,3.25,9.16,9.16,0,0,0-1.56,5.32,11.17,11.17,0,0,0,.13,1.61c-.48-.58-1.08-1.38-1.79-2.36V48.4H97.38c-.19-.25-.39-.49-.6-.7L99.2,44.6a8.83,8.83,0,0,1,2.07-2.14,2.62,2.62,0,0,1,1.45-.38,3.15,3.15,0,0,0-.08-6.29h0l-1.28,0a37.94,37.94,0,0,1-4.41,0l-1.49,0a3,3,0,0,0-1.89.68,3.11,3.11,0,0,0-1.94-.68h0l-1.66,0c-.88,0-1.64.06-2.27.06s-1.27,0-2.18-.07l-1.68,0a3.15,3.15,0,0,0-.11,6.29v2.57a3.15,3.15,0,0,0-2.43-1c-.49,0-.95,0-1.34,0l-4.41,0-4.35,0c-.38,0-.83,0-1.32,0A3.08,3.08,0,0,0,67.21,45l0,.07a7.58,7.58,0,0,0-.87-.63,8.22,8.22,0,0,0-8.18-.17,3.64,3.64,0,0,0-2.06-.58h-4c-1.71,0-4.2,4.14-4.2,4.14l-5-10.54A3.09,3.09,0,0,0,40,35.39a3.26,3.26,0,0,0-.57,0l-.64.18a3.19,3.19,0,0,0-1.51,1.25L30.08,53.73a12.87,12.87,0,0,1-1,2,2.29,2.29,0,0,1-.18.24h-.15a3.15,3.15,0,0,0,0,6.29c.49,0,1.11,0,1.82-.07s1.3-.06,1.81-.06,1.22,0,2,.06,1.45.07,1.89.07a3.17,3.17,0,0,0,.81-.12h6.58a3.1,3.1,0,0,0,.8.12c.42,0,1,0,1.79-.07l.88,0h1.55l1,0c.94,0,1.65.07,2.09.07h.12v2.84a3.16,3.16,0,0,0,.54,6.25c.63,0,1.14,0,1.5,0l1.79,0,2.35,0c.47,0,1.11,0,1.91,0a3.15,3.15,0,0,0,0-6.29h-.35V62.73a10.33,10.33,0,0,0,3.63-.53H71.8a2.9,2.9,0,0,0,.76.12c.63,0,1.14,0,1.5,0l1.56,0,1.59,0c.35,0,.82,0,1.41,0a3,3,0,0,0,.82-.12H83a2.85,2.85,0,0,0,.78.12c.73,0,1.32,0,1.75,0l2.1,0,2.32,0c.43,0,1,0,1.72,0a2.9,2.9,0,0,0,.76-.12H99a4.43,4.43,0,0,0,1,.12h4.16a3,3,0,0,0,2.15-.93,9.07,9.07,0,0,0,4.88,1.36A10.31,10.31,0,0,0,116,61.56a9.64,9.64,0,0,0,1.61-1.09,3,3,0,0,0,2.77,1.84c.61,0,1.1,0,1.44,0l1.62,0,1.53,0c.37,0,.87,0,1.48,0A3,3,0,0,0,127.8,62a3,3,0,0,0,1.42.35c.59,0,1.06,0,1.41,0l1.66,0,1.53,0c.37,0,.87,0,1.48,0a3,3,0,0,0,2.64-1.62,9.11,9.11,0,0,0,.81.6,9.41,9.41,0,0,0,5.2,1.42,9.63,9.63,0,0,0,3.67-.7,10,10,0,0,0,1.18-.59,3,3,0,0,0,2.14.89c.61,0,1.1,0,1.44,0l1.63,0c.41,0,1.13,0,2.11.06s1.67.07,2,.07a7.64,7.64,0,0,0,5.2-1.91,6.93,6.93,0,0,0,.65-.67,8.89,8.89,0,0,0,1.77,1.53,8.73,8.73,0,0,0,4.89,1.38,10.05,10.05,0,0,0,6.26-2.24v4.67a3.16,3.16,0,0,0,.54,6.25c.63,0,1.14,0,1.5,0l1.79,0,2.36,0c.47,0,1.11,0,1.91,0a3.15,3.15,0,0,0,0-6.29h-.35V62.73h.55a10.06,10.06,0,0,0,4.55-1.14,9.42,9.42,0,0,0,.84-.5,3,3,0,0,0,2.4,1.21h3.63a3.42,3.42,0,0,0,2.19-.76,3,3,0,0,0,2,.76c.59,0,1.06,0,1.41,0l1.59,0,1.56,0c.37,0,.88,0,1.51,0a3,3,0,0,0,2-.76,3.36,3.36,0,0,0,2.18.76h3.63a3.15,3.15,0,0,0,0-6.29Z"/><path class="cls-18" d="M51.91,59.16c0,.13,0,.2-.13.2q-.63,0-1.95-.07t-1.91-.07q-.73,0-1.85.07t-1.62.07c-.09,0-.13-.07-.13-.2s0-.2.13-.2a5,5,0,0,0,1.78-.23.8.8,0,0,0,.56-.79,4,4,0,0,0-.43-1.42l-2.94-6.24H35.57l-2.08,4.88A5.06,5.06,0,0,0,33,57a1.62,1.62,0,0,0,.81,1.5,4.86,4.86,0,0,0,2.42.48c.11,0,.16.07.16.2s-.05.2-.16.2c-.4,0-1,0-1.72-.07s-1.56-.07-2.18-.07-1.23,0-2,.07-1.21.07-1.65.07c-.11,0-.16-.07-.16-.2s.06-.2.16-.2a3.28,3.28,0,0,0,1.57-.35,3.58,3.58,0,0,0,1.22-1.22,15.88,15.88,0,0,0,1.27-2.52l7-16.43a.25.25,0,0,1,.23-.1c.11,0,.18,0,.2.1L48,54.84a13.36,13.36,0,0,0,1.91,3.28,2.5,2.5,0,0,0,1.88.84C51.86,59,51.91,59,51.91,59.16ZM35.84,49.63h7.29l-3.86-8.15Z"/><path class="cls-18" d="M51.77,59.48c-.42,0-1.08,0-2-.07s-1.53-.07-1.91-.07-1.07,0-1.84.07-1.25.07-1.62.07c-.06,0-.25,0-.25-.31s.19-.31.25-.31a5,5,0,0,0,1.74-.22.7.7,0,0,0,.49-.69,3.91,3.91,0,0,0-.42-1.37L43.35,50.4H35.65l-2,4.81A5,5,0,0,0,33.14,57a1.5,1.5,0,0,0,.75,1.4,4.78,4.78,0,0,0,2.37.46c.17,0,.28.12.28.31s-.1.31-.28.31c-.4,0-1,0-1.72-.07s-1.57-.07-2.17-.07-1.2,0-2,.07-1.22.07-1.66.07c-.17,0-.28-.12-.28-.31s.1-.31.28-.31a3.16,3.16,0,0,0,1.51-.33,3.49,3.49,0,0,0,1.18-1.18,16,16,0,0,0,1.26-2.51l7-16.43a.36.36,0,0,1,.34-.17c.2,0,.28.1.3.18l7.78,16.39A13.34,13.34,0,0,0,50,58a2.4,2.4,0,0,0,1.8.8c.06,0,.25,0,.25.31S51.83,59.48,51.77,59.48Zm-7.33-.4s0,0,0,.08a.16.16,0,0,0,0,.09c.37,0,.92,0,1.61-.07s1.38-.07,1.86-.07,1,0,1.92.07,1.53.07,1.94.07h0a.18.18,0,0,0,0-.08.17.17,0,0,0,0-.09h0a2.61,2.61,0,0,1-2-.87,13.51,13.51,0,0,1-1.93-3.31l-7.79-16.4s0,0-.09,0-.13,0-.14,0l-7,16.42a16.25,16.25,0,0,1-1.28,2.54,3.71,3.71,0,0,1-1.26,1.26,3.41,3.41,0,0,1-1.62.36s-.05,0-.05.08,0,.09.05.09c.44,0,1,0,1.64-.07s1.43-.07,2-.07,1.32,0,2.18.07,1.32.07,1.71.07c0,0,.05,0,.05-.09s0-.08-.05-.08a5,5,0,0,1-2.48-.5,1.73,1.73,0,0,1-.86-1.6,5.19,5.19,0,0,1,.47-1.86l2.08-4.89a.12.12,0,0,1,.11-.07h7.85a.11.11,0,0,1,.1.06l2.94,6.24a4,4,0,0,1,.44,1.47.91.91,0,0,1-.63.9,5,5,0,0,1-1.83.24Zm-1.32-9.34H35.84a.11.11,0,0,1-.11-.16l3.43-8.15a.11.11,0,0,1,.1-.07h0a.11.11,0,0,1,.1.06l3.86,8.15a.11.11,0,0,1-.1.16ZM36,49.51h6.94l-3.67-7.76Z"/><path class="cls-18" d="M64.74,46.92A5.13,5.13,0,0,1,66.59,49a7.15,7.15,0,0,1,.69,3.23,7.41,7.41,0,0,1-1.12,4.17,7.26,7.26,0,0,1-6,3.35,8.39,8.39,0,0,1-1.85-.18,6.05,6.05,0,0,1-1.65-.68v6.83a3.21,3.21,0,0,0,.25,1.45,1.39,1.39,0,0,0,.94.64A9,9,0,0,0,60,68c.07,0,.1.07.1.2s0,.2-.1.2q-1.15,0-1.81,0l-2.41,0-1.95,0c-.33,0-.79,0-1.39,0-.07,0-.1-.07-.1-.2s0-.2.1-.2A4.85,4.85,0,0,0,54,67.86a1.09,1.09,0,0,0,.68-.64,4.26,4.26,0,0,0,.18-1.45V49.3a3.22,3.22,0,0,0-.25-1.44,1.33,1.33,0,0,0-.82-.66,6.05,6.05,0,0,0-1.7-.18c-.07,0-.1-.07-.1-.2s0-.2.1-.2h4c.26,0,.43.05.51.16a1.38,1.38,0,0,1,.12.69V49a11,11,0,0,1,2.77-2.15,6,6,0,0,1,2.77-.69A4.63,4.63,0,0,1,64.74,46.92Zm-.69,10.63a7.13,7.13,0,0,0,1.12-4.26A6.76,6.76,0,0,0,64,49a3.83,3.83,0,0,0-3.13-1.53,4.28,4.28,0,0,0-2.14.56,8.56,8.56,0,0,0-2,1.62V57a6.73,6.73,0,0,0,1.93,1.57,5.49,5.49,0,0,0,2.56.54A3.41,3.41,0,0,0,64.05,57.55Z"/><path class="cls-18" d="M60,68.55c-.77,0-1.38,0-1.82,0l-2.41,0-1.94,0c-.33,0-.79,0-1.39,0-.06,0-.21,0-.21-.31s.15-.31.21-.31a4.79,4.79,0,0,0,1.51-.17,1,1,0,0,0,.61-.58,4.2,4.2,0,0,0,.17-1.41V49.3a3.13,3.13,0,0,0-.24-1.38,1.22,1.22,0,0,0-.76-.6,6,6,0,0,0-1.66-.18c-.06,0-.21,0-.21-.31s.15-.31.21-.31h4a.7.7,0,0,1,.61.21,1.43,1.43,0,0,1,.13.76v1.28a10.82,10.82,0,0,1,2.61-2,6.15,6.15,0,0,1,2.82-.71,4.75,4.75,0,0,1,2.57.74A5.26,5.26,0,0,1,66.69,49a7.3,7.3,0,0,1,.7,3.29,7.55,7.55,0,0,1-1.14,4.24,7.38,7.38,0,0,1-6.07,3.4,8.48,8.48,0,0,1-1.87-.18,6,6,0,0,1-1.51-.59v6.64a3.14,3.14,0,0,0,.23,1.4,1.29,1.29,0,0,0,.87.59,9,9,0,0,0,2.08.18c.06,0,.21,0,.21.31S60.07,68.55,60,68.55Zm-4.23-.29,2.41,0c.43,0,1,0,1.79,0a.34.34,0,0,0,0-.09.39.39,0,0,0,0-.08A9,9,0,0,1,57.85,68a1.51,1.51,0,0,1-1-.7,3.31,3.31,0,0,1-.26-1.51V58.93a.11.11,0,0,1,.06-.1.11.11,0,0,1,.11,0,6,6,0,0,0,1.62.67,8.33,8.33,0,0,0,1.82.18,7.15,7.15,0,0,0,5.88-3.3,7.33,7.33,0,0,0,1.1-4.11,7.08,7.08,0,0,0-.68-3.18A5,5,0,0,0,64.68,47a4.54,4.54,0,0,0-2.45-.71,5.93,5.93,0,0,0-2.72.68,10.93,10.93,0,0,0-2.74,2.12.11.11,0,0,1-.12,0,.11.11,0,0,1-.07-.11V47.48a1.22,1.22,0,0,0-.1-.63c-.05-.07-.2-.12-.42-.12h-4a.31.31,0,0,0,0,.08.33.33,0,0,0,0,.09,6.12,6.12,0,0,1,1.71.19,1.44,1.44,0,0,1,.89.72A3.32,3.32,0,0,1,55,49.3V65.76a4.32,4.32,0,0,1-.19,1.49A1.2,1.2,0,0,1,54,68a4.93,4.93,0,0,1-1.57.19.4.4,0,0,0,0,.08.34.34,0,0,0,0,.09c.58,0,1,0,1.35,0Zm5.41-9a5.61,5.61,0,0,1-2.61-.56,6.85,6.85,0,0,1-2-1.59.11.11,0,0,1,0-.07V49.63a.11.11,0,0,1,0-.08,8.71,8.71,0,0,1,2-1.64,4.41,4.41,0,0,1,2.2-.58A4,4,0,0,1,64,48.91a6.9,6.9,0,0,1,1.25,4.38,7.28,7.28,0,0,1-1.14,4.32A3.53,3.53,0,0,1,61.18,59.21ZM56.8,56.94a6.64,6.64,0,0,0,1.87,1.51,5.4,5.4,0,0,0,2.51.53A3.31,3.31,0,0,0,64,57.48a7.06,7.06,0,0,0,1.1-4.19,6.69,6.69,0,0,0-1.2-4.24,3.74,3.74,0,0,0-3-1.49,4.18,4.18,0,0,0-2.09.55,8.41,8.41,0,0,0-1.92,1.56Z"/><path class="cls-18" d="M72.5,59.16c0-.13,0-.2.07-.2a4.21,4.21,0,0,0,1.37-.17,1,1,0,0,0,.59-.64,5.36,5.36,0,0,0,.15-1.47V49.36a3.64,3.64,0,0,0-.3-1.8c-.2-.3-.63-.45-1.29-.45a2.59,2.59,0,0,0-2.18.89,5,5,0,0,0-.76,2.9S70.09,51,70,51s-.18,0-.18-.07l-.07-2c0-.24,0-.53-.07-.87s0-.73,0-1.17a.53.53,0,0,1,0-.25s.1,0,.23,0q.69,0,1.22,0l4.42,0,4.52,0q.56,0,1.25,0c.15,0,.24,0,.26,0a.56.56,0,0,1,0,.25q-.17,3.3-.17,4s-.06.07-.18.07-.19,0-.21-.07a5.06,5.06,0,0,0-.76-2.9,2.55,2.55,0,0,0-2.14-.89c-.66,0-1.09.15-1.29.45a3.63,3.63,0,0,0-.3,1.8v7.33a5.32,5.32,0,0,0,.15,1.47,1,1,0,0,0,.58.64,4,4,0,0,0,1.35.17c.07,0,.1.07.1.2s0,.2-.1.2q-.83,0-1.29,0l-1.71,0-1.68,0q-.5,0-1.39,0S72.5,59.3,72.5,59.16Z"/><path class="cls-18" d="M78.64,59.48c-.55,0-1,0-1.3,0l-1.71,0-1.68,0c-.33,0-.79,0-1.39,0-.18,0-.18-.24-.18-.31s0-.31.18-.31a4.16,4.16,0,0,0,1.33-.16.83.83,0,0,0,.52-.57,5.24,5.24,0,0,0,.14-1.44V49.36a3.59,3.59,0,0,0-.28-1.74c-.17-.26-.58-.39-1.19-.39a2.49,2.49,0,0,0-2.09.85,5,5,0,0,0-.74,2.84c0,.08-.05.18-.29.18s-.3-.1-.3-.18l-.07-2c0-.24,0-.53-.07-.87s0-.72,0-1.18a.56.56,0,0,1,.05-.31c0-.07.14-.1.32-.1.46,0,.88,0,1.23,0l4.42,0,4.52,0c.37,0,.79,0,1.25,0,.21,0,.31,0,.36.1a.54.54,0,0,1,.05.31c-.11,2.19-.17,3.54-.17,4,0,.08-.05.18-.29.18s-.26,0-.32-.13a.13.13,0,0,1,0,0,5,5,0,0,0-.74-2.84,2.45,2.45,0,0,0-2.05-.85c-.62,0-1,.13-1.19.39a3.56,3.56,0,0,0-.28,1.74v7.33a5.3,5.3,0,0,0,.14,1.44.84.84,0,0,0,.51.57,4,4,0,0,0,1.31.16c.06,0,.21,0,.21.31S78.71,59.48,78.64,59.48Zm-3-.29,1.72,0c.3,0,.73,0,1.26,0a.32.32,0,0,0,0-.09.39.39,0,0,0,0-.08,4.1,4.1,0,0,1-1.37-.17,1.07,1.07,0,0,1-.65-.72,5.44,5.44,0,0,1-.15-1.5V49.36a3.68,3.68,0,0,1,.32-1.86,1.57,1.57,0,0,1,1.38-.5,2.67,2.67,0,0,1,2.24.94,5.13,5.13,0,0,1,.78,2.92h.17c0-.53.06-1.87.17-4a.82.82,0,0,0,0-.17h-.17c-.46,0-.88,0-1.25,0l-4.53,0-4.42,0c-.36,0-.76,0-1.22,0h-.14a.76.76,0,0,0,0,.17c0,.45,0,.84,0,1.16s0,.63.07.87l.06,1.94H70a5.13,5.13,0,0,1,.78-2.92A2.71,2.71,0,0,1,73.09,47a1.58,1.58,0,0,1,1.38.5,3.7,3.7,0,0,1,.32,1.86v7.33a5.41,5.41,0,0,1-.15,1.5,1.06,1.06,0,0,1-.66.72,4.17,4.17,0,0,1-1.36.17.92.92,0,0,0,0,.17c.56,0,1,0,1.33,0Z"/><path class="cls-18" d="M104.14,59.16c0,.13,0,.2-.07.2H99.92a1.36,1.36,0,0,1-.81-.25A7.15,7.15,0,0,1,98,57.81q-.79-1.05-2.84-4-1.62-2.31-2.34-3.2a4.71,4.71,0,0,0-1.49-1.27,4.63,4.63,0,0,0-2-.38,2,2,0,0,0-.43,0v7.69A3.76,3.76,0,0,0,89,58.16a1.16,1.16,0,0,0,.79.64A7.46,7.46,0,0,0,91.7,59s.07.07.07.2,0,.2-.07.2c-.68,0-1.22,0-1.62,0l-2.38,0-2.24,0c-.4,0-.95,0-1.65,0,0,0-.07-.07-.07-.2s0-.2.07-.2a7.5,7.5,0,0,0,1.85-.17,1.17,1.17,0,0,0,.81-.64,3.8,3.8,0,0,0,.21-1.47V41.41A3.66,3.66,0,0,0,86.47,40a1.22,1.22,0,0,0-.79-.64,6.66,6.66,0,0,0-1.83-.18s-.07-.07-.07-.2,0-.2.07-.2l1.62,0c.92,0,1.67.07,2.24.07s1.44,0,2.41-.07l1.58,0s.07.07.07.2,0,.2-.07.2a6.28,6.28,0,0,0-1.85.2A1.26,1.26,0,0,0,89,40a3.76,3.76,0,0,0-.21,1.47v7L91,48.37h.63l4-5.58A6.55,6.55,0,0,0,97.15,40a.65.65,0,0,0-.41-.63,3.06,3.06,0,0,0-1.27-.2s-.07-.07-.07-.2,0-.2.07-.2l1.42,0c.83,0,1.62.07,2.34.07s1.52,0,2.31-.07l1.19,0c.07,0,.1.07.1.2s0,.2-.1.2a5.52,5.52,0,0,0-3,.84,11.73,11.73,0,0,0-2.84,2.86l-4.42,5.64a3.33,3.33,0,0,1,1.49.59,6.25,6.25,0,0,1,1.22,1.24q.59.77,2.08,2.86t2.51,3.33a8.17,8.17,0,0,0,2,1.8,4.66,4.66,0,0,0,2.34.68S104.14,59,104.14,59.16Z"/><path class="cls-18" d="M104.08,59.48H99.92a1.47,1.47,0,0,1-.87-.27,7.19,7.19,0,0,1-1.16-1.33c-.53-.7-1.46-2-2.84-4-1.06-1.52-1.85-2.59-2.34-3.19a4.61,4.61,0,0,0-1.45-1.24,4.55,4.55,0,0,0-2-.37h-.32v7.59a3.69,3.69,0,0,0,.21,1.42,1,1,0,0,0,.72.58,7.5,7.5,0,0,0,1.83.16c.12,0,.18.1.18.31s-.06.31-.18.31c-.68,0-1.23,0-1.62,0l-2.37,0-2.24,0c-.39,0-.95,0-1.65,0-.12,0-.18-.11-.18-.31s.06-.31.18-.31a7.48,7.48,0,0,0,1.82-.16,1.06,1.06,0,0,0,.74-.58,3.73,3.73,0,0,0,.2-1.42V41.41a3.59,3.59,0,0,0-.2-1.4,1.11,1.11,0,0,0-.72-.58,6.65,6.65,0,0,0-1.8-.18c-.18,0-.18-.23-.18-.31s0-.31.18-.31l1.62,0c.89,0,1.64.07,2.24.07s1.48,0,2.4-.07l1.59,0c.12,0,.18.11.18.31s-.06.31-.18.31a6.17,6.17,0,0,0-1.81.19,1.16,1.16,0,0,0-.74.61,3.68,3.68,0,0,0-.21,1.42v6.84l2.1-.06h.57l4-5.53A6.54,6.54,0,0,0,97,40a.54.54,0,0,0-.35-.52,3,3,0,0,0-1.22-.19c-.18,0-.18-.23-.18-.31s0-.31.18-.31l1.42,0a40.65,40.65,0,0,0,4.64,0l1.19,0c.08,0,.22,0,.22.31s-.15.31-.21.31a5.44,5.44,0,0,0-3,.82,11.69,11.69,0,0,0-2.81,2.83l-4.31,5.5A3.38,3.38,0,0,1,94,49a6.3,6.3,0,0,1,1.24,1.26c.39.52,1.08,1.45,2.08,2.86s1.87,2.56,2.5,3.33a8.07,8.07,0,0,0,2,1.77,4.54,4.54,0,0,0,2.29.66c.12,0,.18.1.18.31S104.2,59.48,104.08,59.48ZM89.26,48.85a4.76,4.76,0,0,1,2.1.39,4.83,4.83,0,0,1,1.52,1.3c.49.61,1.28,1.68,2.35,3.21,1.38,2,2.31,3.29,2.83,4A7.18,7.18,0,0,0,99.18,59a1.25,1.25,0,0,0,.74.23H104a.77.77,0,0,0,0-.09.79.79,0,0,0,0-.09,4.77,4.77,0,0,1-2.35-.69,8.33,8.33,0,0,1-2-1.82c-.64-.77-1.49-1.9-2.51-3.34S95.44,50.89,95,50.37a6.1,6.1,0,0,0-1.2-1.21,3.21,3.21,0,0,0-1.43-.57.11.11,0,0,1-.07-.18l4.42-5.64a11.88,11.88,0,0,1,2.87-2.88A5.66,5.66,0,0,1,102.7,39a.39.39,0,0,0,0-.08.4.4,0,0,0,0-.08l-1.16,0a41,41,0,0,1-4.66,0l-1.36,0a.53.53,0,0,0,0,.08.55.55,0,0,0,0,.08,3.06,3.06,0,0,1,1.27.21.77.77,0,0,1,.48.73,6.52,6.52,0,0,1-1.51,2.9l-4,5.58a.11.11,0,0,1-.09,0H91l-2.21.07a.13.13,0,0,1-.08,0,.12.12,0,0,1,0-.08v-7A3.85,3.85,0,0,1,88.94,40a1.37,1.37,0,0,1,.87-.74A6.19,6.19,0,0,1,91.65,39a.76.76,0,0,0,0-.08.74.74,0,0,0,0-.08l-1.53,0c-.93,0-1.74.07-2.41.07s-1.36,0-2.25-.07l-1.56,0a.52.52,0,0,0,0,.08.54.54,0,0,0,0,.08,6.71,6.71,0,0,1,1.81.19,1.34,1.34,0,0,1,.86.71,3.8,3.8,0,0,1,.22,1.5V56.69a3.87,3.87,0,0,1-.22,1.51,1.29,1.29,0,0,1-.88.71,7.53,7.53,0,0,1-1.83.17.92.92,0,0,0,0,.17c.67,0,1.21,0,1.59,0l2.25,0,2.38,0c.39,0,.91,0,1.56,0a.92.92,0,0,0,0-.17,7.49,7.49,0,0,1-1.84-.17,1.28,1.28,0,0,1-.86-.71,3.84,3.84,0,0,1-.22-1.51V49a.11.11,0,0,1,.09-.11A2,2,0,0,1,89.26,48.85Z"/><path class="cls-18" d="M107.72,58.85a6.25,6.25,0,0,1-2.26-2.54,7.75,7.75,0,0,1-.79-3.48,6.24,6.24,0,0,1,1-3.65,6.45,6.45,0,0,1,2.67-2.25,8,8,0,0,1,3.32-.74,6,6,0,0,1,3.4,1,6.35,6.35,0,0,1,2.23,2.53A7.38,7.38,0,0,1,118.1,53a6.62,6.62,0,0,1-1,3.58,6.55,6.55,0,0,1-2.56,2.38,7.35,7.35,0,0,1-3.48.84A6.14,6.14,0,0,1,107.72,58.85Zm7.14-1a6.48,6.48,0,0,0,1-4,9.41,9.41,0,0,0-.68-3.66,6,6,0,0,0-1.86-2.52,4.34,4.34,0,0,0-2.71-.91,3.25,3.25,0,0,0-2.76,1.29,6,6,0,0,0-1,3.7,10,10,0,0,0,.66,3.7,6.47,6.47,0,0,0,1.85,2.67,4.06,4.06,0,0,0,2.67,1A3.34,3.34,0,0,0,114.87,57.88Z"/><path class="cls-18" d="M111.11,59.9a6.28,6.28,0,0,1-3.44-1,6.39,6.39,0,0,1-2.3-2.59,7.89,7.89,0,0,1-.8-3.53,6.39,6.39,0,0,1,1.06-3.71,6.59,6.59,0,0,1,2.72-2.28,8.09,8.09,0,0,1,3.36-.75,6.18,6.18,0,0,1,3.46,1,6.49,6.49,0,0,1,2.27,2.57,7.52,7.52,0,0,1,.79,3.37,6.77,6.77,0,0,1-1,3.64,6.7,6.7,0,0,1-2.6,2.42A7.51,7.51,0,0,1,111.11,59.9Zm.59-13.6a7.87,7.87,0,0,0-3.27.73,6.35,6.35,0,0,0-2.63,2.21,6.16,6.16,0,0,0-1,3.58,7.67,7.67,0,0,0,.78,3.43,6.17,6.17,0,0,0,2.22,2.5,6.06,6.06,0,0,0,3.32.92,7.28,7.28,0,0,0,3.43-.83A6.39,6.39,0,0,0,118,53a7.29,7.29,0,0,0-.76-3.27A6.26,6.26,0,0,0,115,47.25,6,6,0,0,0,111.7,46.31Zm.36,13a4.18,4.18,0,0,1-2.75-1,6.6,6.6,0,0,1-1.88-2.72,10.2,10.2,0,0,1-.67-3.74,6.17,6.17,0,0,1,1-3.76,3.37,3.37,0,0,1,2.85-1.33,4.47,4.47,0,0,1,2.78.93,6.14,6.14,0,0,1,1.9,2.57,9.55,9.55,0,0,1,.68,3.71,6.61,6.61,0,0,1-1,4A3.46,3.46,0,0,1,112.06,59.28Zm-1.45-12.34a3.16,3.16,0,0,0-2.66,1.24,6,6,0,0,0-1,3.63,10,10,0,0,0,.65,3.66,6.38,6.38,0,0,0,1.82,2.63,4,4,0,0,0,2.6,1,3.24,3.24,0,0,0,2.71-1.24,6.4,6.4,0,0,0,1-3.89,9.33,9.33,0,0,0-.67-3.62,5.92,5.92,0,0,0-1.83-2.48A4.25,4.25,0,0,0,110.61,46.93Z"/><path class="cls-18" d="M135.36,59.16c0,.13,0,.2-.07.2q-.86,0-1.35,0l-1.65,0-1.78,0q-.46,0-1.29,0c-.07,0-.1-.07-.1-.2s0-.2.1-.2a4.05,4.05,0,0,0,1.35-.17,1,1,0,0,0,.59-.64,4.85,4.85,0,0,0,.17-1.47V53.32h-7v3.37a5.31,5.31,0,0,0,.15,1.47,1,1,0,0,0,.59.64,4.21,4.21,0,0,0,1.37.17s.07.07.07.2,0,.2-.07.2c-.57,0-1,0-1.35,0l-1.65,0-1.75,0q-.46,0-1.32,0c-.07,0-.1-.07-.1-.2s0-.2.1-.2a4.21,4.21,0,0,0,1.37-.17,1,1,0,0,0,.59-.64,5.36,5.36,0,0,0,.15-1.47V49.3a5.36,5.36,0,0,0-.15-1.47,1,1,0,0,0-.58-.64,4.06,4.06,0,0,0-1.35-.17c-.07,0-.1-.07-.1-.2s0-.2.1-.2q.82,0,1.29,0l1.75,0,1.68,0q.5,0,1.32,0s.07.07.07.2,0,.2-.07.2a3.57,3.57,0,0,0-1.37.2,1,1,0,0,0-.59.68,5.32,5.32,0,0,0-.15,1.47v3.3h7V49.3a5.32,5.32,0,0,0-.15-1.47,1,1,0,0,0-.58-.64,4.08,4.08,0,0,0-1.35-.17c-.07,0-.1-.07-.1-.2s0-.2.1-.2q.82,0,1.29,0l1.75,0,1.68,0q.5,0,1.32,0s.07.07.07.2,0,.2-.07.2a3.56,3.56,0,0,0-1.37.2,1,1,0,0,0-.59.68,5.37,5.37,0,0,0-.15,1.47v7.33a5.36,5.36,0,0,0,.15,1.47,1,1,0,0,0,.59.64,4.2,4.2,0,0,0,1.37.17S135.36,59,135.36,59.16Z"/><path class="cls-18" d="M135.29,59.48c-.57,0-1,0-1.36,0l-1.64,0-1.78,0c-.3,0-.74,0-1.29,0-.06,0-.21,0-.21-.31s.15-.31.21-.31a4,4,0,0,0,1.31-.16.88.88,0,0,0,.53-.57,4.77,4.77,0,0,0,.16-1.43V53.44h-6.8v3.25a5.25,5.25,0,0,0,.14,1.44.83.83,0,0,0,.52.57,4.15,4.15,0,0,0,1.33.16c.12,0,.18.1.18.31s-.06.31-.18.31c-.57,0-1,0-1.36,0l-1.64,0-1.74,0c-.3,0-.75,0-1.32,0-.06,0-.21,0-.21-.31s.15-.31.21-.31a4.15,4.15,0,0,0,1.33-.16.83.83,0,0,0,.53-.57,5.31,5.31,0,0,0,.14-1.44V49.3a5.3,5.3,0,0,0-.14-1.44.84.84,0,0,0-.51-.57,4,4,0,0,0-1.31-.16c-.08,0-.21,0-.21-.31s.15-.31.21-.31c.55,0,1,0,1.29,0l1.74,0,1.68,0c.33,0,.77,0,1.32,0,.12,0,.18.1.18.31s-.06.31-.18.31a3.48,3.48,0,0,0-1.32.19.92.92,0,0,0-.53.61,5.24,5.24,0,0,0-.14,1.44v3.19h6.8V49.3a5.24,5.24,0,0,0-.14-1.44.83.83,0,0,0-.51-.57,4,4,0,0,0-1.31-.16c-.06,0-.21,0-.21-.31s.15-.31.21-.31c.55,0,1,0,1.29,0l1.74,0,1.68,0c.33,0,.77,0,1.32,0,.12,0,.18.1.18.31s-.06.31-.18.31a3.48,3.48,0,0,0-1.32.19.93.93,0,0,0-.53.61,5.29,5.29,0,0,0-.14,1.44v7.33a5.3,5.3,0,0,0,.14,1.44.83.83,0,0,0,.53.57,4.14,4.14,0,0,0,1.33.16c.12,0,.18.1.18.31S135.41,59.48,135.29,59.48Zm-14.93-.4a.38.38,0,0,0,0,.08.32.32,0,0,0,0,.09c.55,0,1,0,1.29,0l1.75,0,1.66,0c.32,0,.76,0,1.3,0a.73.73,0,0,0,0-.17,4.18,4.18,0,0,1-1.36-.17,1.06,1.06,0,0,1-.66-.72,5.38,5.38,0,0,1-.15-1.5V53.32a.11.11,0,0,1,.11-.11h7a.11.11,0,0,1,.11.11v3.37a5,5,0,0,1-.17,1.51,1.11,1.11,0,0,1-.66.71,4.12,4.12,0,0,1-1.37.17.41.41,0,0,0,0,.17c.53,0,1,0,1.26,0l1.79,0,1.65,0c.32,0,.76,0,1.3,0a.92.92,0,0,0,0-.17,4.17,4.17,0,0,1-1.36-.17,1.06,1.06,0,0,1-.66-.72,5.42,5.42,0,0,1-.15-1.5V49.36a5.43,5.43,0,0,1,.15-1.5,1.16,1.16,0,0,1,.66-.75,3.54,3.54,0,0,1,1.36-.21.81.81,0,0,0,0-.09.78.78,0,0,0,0-.08c-.52,0-.95,0-1.26,0l-1.69,0-1.75,0c-.3,0-.73,0-1.26,0a.39.39,0,0,0,0,.08.33.33,0,0,0,0,.09,4.11,4.11,0,0,1,1.37.17,1.06,1.06,0,0,1,.64.72,5.39,5.39,0,0,1,.15,1.5v3.37a.11.11,0,0,1-.11.11h-7a.11.11,0,0,1-.11-.11v-3.3a5.39,5.39,0,0,1,.15-1.5,1.16,1.16,0,0,1,.66-.75,3.55,3.55,0,0,1,1.36-.21.55.55,0,0,0,0-.09.54.54,0,0,0,0-.08c-.52,0-.94,0-1.26,0l-1.69,0-1.75,0c-.31,0-.73,0-1.26,0a.38.38,0,0,0,0,.08.32.32,0,0,0,0,.09,4.1,4.1,0,0,1,1.37.17,1.07,1.07,0,0,1,.65.72,5.45,5.45,0,0,1,.15,1.5v7.39a5.44,5.44,0,0,1-.15,1.5,1.07,1.07,0,0,1-.66.72A4.25,4.25,0,0,1,120.37,59.08Z"/><path class="cls-18" d="M140.34,58.82a5.74,5.74,0,0,1-2.14-2.43,7.32,7.32,0,0,1-.69-3.13,6.43,6.43,0,0,1,1.06-3.68,7.09,7.09,0,0,1,2.72-2.41,7.47,7.47,0,0,1,3.41-.84,6.06,6.06,0,0,1,2.66.58q1.2.58,1.21,1.44a1,1,0,0,1-.31.74,1.14,1.14,0,0,1-.84.31A1.66,1.66,0,0,1,146,48.31a3.43,3.43,0,0,0-.92-1,2.57,2.57,0,0,0-1.42-.33,3.36,3.36,0,0,0-2.89,1.43,6.43,6.43,0,0,0-1,3.84,7.19,7.19,0,0,0,1.39,4.55,4.94,4.94,0,0,0,4.16,1.78,5.2,5.2,0,0,0,3.37-1.09h0a.24.24,0,0,1,.18.1c.05.07.06.12,0,.16a8.19,8.19,0,0,1-2.33,1.5,6.67,6.67,0,0,1-2.56.48A6.48,6.48,0,0,1,140.34,58.82Z"/><path class="cls-18" d="M143.94,59.87a6.63,6.63,0,0,1-3.66-1,5.89,5.89,0,0,1-2.19-2.47,7.47,7.47,0,0,1-.7-3.18,6.56,6.56,0,0,1,1.08-3.74,7.22,7.22,0,0,1,2.77-2.45,7.62,7.62,0,0,1,3.47-.86,6.21,6.21,0,0,1,2.71.59c.84.4,1.27.92,1.27,1.54a1.13,1.13,0,0,1-.35.82,1.25,1.25,0,0,1-.92.35,1.77,1.77,0,0,1-1.55-1.15,3.3,3.3,0,0,0-.89-.95,2.46,2.46,0,0,0-1.36-.31,3.23,3.23,0,0,0-2.79,1.39,6.34,6.34,0,0,0-1,3.78,7.11,7.11,0,0,0,1.36,4.48,4.85,4.85,0,0,0,4.07,1.74,5.11,5.11,0,0,0,3.29-1.06l.07,0h0a.35.35,0,0,1,.27.14.22.22,0,0,1,0,.32,8.4,8.4,0,0,1-2.36,1.53A6.83,6.83,0,0,1,143.94,59.87Zm.76-13.43a7.41,7.41,0,0,0-3.36.83,7,7,0,0,0-2.68,2.37,6.35,6.35,0,0,0-1,3.62,7.23,7.23,0,0,0,.68,3.09,5.66,5.66,0,0,0,2.1,2.38,6.41,6.41,0,0,0,3.53.92,6.61,6.61,0,0,0,2.51-.47,8.16,8.16,0,0,0,2.28-1.47l0,0a.14.14,0,0,0-.09-.06,5.34,5.34,0,0,1-3.4,1.09A5.07,5.07,0,0,1,141,56.89a7.34,7.34,0,0,1-1.41-4.62,6.56,6.56,0,0,1,1.06-3.91,3.49,3.49,0,0,1,3-1.48,2.68,2.68,0,0,1,1.48.35,3.51,3.51,0,0,1,1,1c.36.7.8,1,1.36,1a1,1,0,0,0,.76-.28.9.9,0,0,0,.28-.66c0-.53-.37-1-1.14-1.33A6,6,0,0,0,144.7,46.44Z"/><path class="cls-18" d="M162.65,55.3a3.8,3.8,0,0,1-1.29,3,4.66,4.66,0,0,1-3.23,1.16q-.5,0-1.88-.07-1.58-.07-2.24-.07l-1.75,0q-.46,0-1.32,0c-.07,0-.1-.07-.1-.2s0-.2.1-.2a4.2,4.2,0,0,0,1.37-.17,1,1,0,0,0,.59-.64,5.36,5.36,0,0,0,.15-1.47V49.3a5.36,5.36,0,0,0-.15-1.47,1,1,0,0,0-.58-.64A4.07,4.07,0,0,0,151,47c-.07,0-.1-.07-.1-.2s0-.2.1-.2q.82,0,1.29,0l1.75,0,1.91,0q.53,0,1.45,0c.07,0,.1.07.1.2s0,.2-.1.2a4.76,4.76,0,0,0-1.6.2,1.14,1.14,0,0,0-.69.68,4.42,4.42,0,0,0-.18,1.47v3a10.54,10.54,0,0,1,3.4-.5Q162.65,51.87,162.65,55.3Zm-2.08.76a3.86,3.86,0,0,0-.84-2.64,3.28,3.28,0,0,0-2.59-1,6.88,6.88,0,0,0-2.24.36v3.86a2.34,2.34,0,0,0,.53,1.75,3.14,3.14,0,0,0,2.08.5Q160.57,58.93,160.57,56.06Z"/><path class="cls-18" d="M158.13,59.54c-.33,0-1,0-1.89-.07s-1.8-.07-2.24-.07l-1.75,0c-.3,0-.75,0-1.32,0-.08,0-.21,0-.21-.31s.15-.31.21-.31a4.15,4.15,0,0,0,1.33-.16.83.83,0,0,0,.53-.57,5.31,5.31,0,0,0,.14-1.44V49.3a5.3,5.3,0,0,0-.14-1.44.84.84,0,0,0-.51-.57,4,4,0,0,0-1.31-.16c-.08,0-.21,0-.21-.31s.15-.31.21-.31c.55,0,1,0,1.29,0l1.74,0,1.91,0c.35,0,.84,0,1.45,0,.06,0,.21,0,.21.31s-.13.31-.21.31a4.69,4.69,0,0,0-1.56.19,1,1,0,0,0-.63.61,4.35,4.35,0,0,0-.17,1.43v2.84a10.92,10.92,0,0,1,3.29-.45c3,0,4.47,1.19,4.47,3.54a3.93,3.93,0,0,1-1.33,3.05A4.79,4.79,0,0,1,158.13,59.54ZM154,59.18c.44,0,1.2,0,2.25.07s1.55.07,1.88.07a4.56,4.56,0,0,0,3.16-1.13,3.71,3.71,0,0,0,1.25-2.88c0-2.23-1.39-3.32-4.24-3.32a10.46,10.46,0,0,0-3.36.49.11.11,0,0,1-.15-.11v-3a4.49,4.49,0,0,1,.19-1.51,1.26,1.26,0,0,1,.76-.74,4.78,4.78,0,0,1,1.62-.21.33.33,0,0,0,0-.09.39.39,0,0,0,0-.08c-.6,0-1.08,0-1.42,0l-1.92,0-1.75,0c-.31,0-.73,0-1.26,0a.39.39,0,0,0,0,.08.33.33,0,0,0,0,.09,4.1,4.1,0,0,1,1.37.17,1.07,1.07,0,0,1,.65.72,5.45,5.45,0,0,1,.15,1.5v7.39a5.44,5.44,0,0,1-.15,1.5,1.07,1.07,0,0,1-.66.72,4.25,4.25,0,0,1-1.39.17.39.39,0,0,0,0,.08.32.32,0,0,0,0,.09c.55,0,1,0,1.29,0Zm3.5-.14a3.2,3.2,0,0,1-2.16-.53,2.46,2.46,0,0,1-.56-1.83V52.83a.11.11,0,0,1,.08-.11,7,7,0,0,1,2.28-.37,3.4,3.4,0,0,1,2.68,1,4,4,0,0,1,.87,2.72C160.69,58,159.62,59,157.5,59ZM155,52.91v3.78a2.25,2.25,0,0,0,.49,1.67,3.07,3.07,0,0,0,2,.46c2,0,3-.9,3-2.76a3.78,3.78,0,0,0-.81-2.57,3.18,3.18,0,0,0-2.51-.92A6.8,6.8,0,0,0,155,52.91Z"/><path class="cls-18" d="M175.26,57.51a.23.23,0,0,1,.18.12.18.18,0,0,1,0,.21,7.14,7.14,0,0,1-4.82,1.91,5.67,5.67,0,0,1-5.33-3.23,7,7,0,0,1-.71-3.1,7.14,7.14,0,0,1,.92-3.58,6.87,6.87,0,0,1,6-3.51,3.84,3.84,0,0,1,2.84,1,3.75,3.75,0,0,1,1,2.77,1.89,1.89,0,0,1-.08.66.28.28,0,0,1-.28.2l-8.18,0q-.07.73-.07,1.19a7.48,7.48,0,0,0,1.35,4.65,4.49,4.49,0,0,0,3.79,1.78,4.89,4.89,0,0,0,1.7-.26,9,9,0,0,0,1.6-.83Zm-7.13-9.59a4.83,4.83,0,0,0-1.22,2.62l6.27-.13a3.91,3.91,0,0,0-.73-2.56,2.43,2.43,0,0,0-2-.87A3.14,3.14,0,0,0,168.13,47.93Z"/><path class="cls-18" d="M170.64,59.87a5.78,5.78,0,0,1-5.43-3.3,7.12,7.12,0,0,1-.72-3.15,7.29,7.29,0,0,1,.94-3.64,7,7,0,0,1,6.14-3.57,4,4,0,0,1,2.92,1,3.88,3.88,0,0,1,1,2.85,2,2,0,0,1-.09.7.4.4,0,0,1-.39.27l-8.08,0c0,.43-.06.79-.06,1.08a7.41,7.41,0,0,0,1.33,4.58,4.4,4.4,0,0,0,3.7,1.74,4.81,4.81,0,0,0,1.66-.26,8.92,8.92,0,0,0,1.58-.82l.06,0h0a.34.34,0,0,1,.27.16.29.29,0,0,1,0,.34l0,0A7.28,7.28,0,0,1,170.64,59.87Zm.92-13.43a6.76,6.76,0,0,0-5.94,3.46,7.07,7.07,0,0,0-.91,3.52,6.89,6.89,0,0,0,.7,3.05,5.55,5.55,0,0,0,5.23,3.17,7.06,7.06,0,0,0,4.73-1.87s0,0,0-.08-.06-.07-.09-.07h0a9.06,9.06,0,0,1-1.59.82,5,5,0,0,1-1.74.27A4.62,4.62,0,0,1,168,56.89a7.63,7.63,0,0,1-1.38-4.72c0-.31,0-.71.07-1.2a.11.11,0,0,1,.11-.1l8.18,0a.18.18,0,0,0,.18-.13,1.81,1.81,0,0,0,.07-.62,3.65,3.65,0,0,0-1-2.69A3.75,3.75,0,0,0,171.56,46.44Zm-4.65,4.22a.11.11,0,0,1-.09,0,.12.12,0,0,1,0-.09A5,5,0,0,1,168,47.85a3.27,3.27,0,0,1,2.42-1,2.56,2.56,0,0,1,2.07.91,4,4,0,0,1,.75,2.63.11.11,0,0,1-.11.11l-6.27.13Zm3.56-3.56a3,3,0,0,0-2.26.91A4.66,4.66,0,0,0,167,50.43l6-.13a3.74,3.74,0,0,0-.7-2.37A2.34,2.34,0,0,0,170.47,47.1Z"/><path class="cls-18" d="M189.74,46.92A5.12,5.12,0,0,1,191.59,49a7.15,7.15,0,0,1,.69,3.23,7.41,7.41,0,0,1-1.12,4.17,7.26,7.26,0,0,1-6,3.35,8.39,8.39,0,0,1-1.85-.18,6.05,6.05,0,0,1-1.65-.68v6.83a3.23,3.23,0,0,0,.25,1.45,1.39,1.39,0,0,0,.94.64A9,9,0,0,0,185,68c.07,0,.1.07.1.2s0,.2-.1.2q-1.15,0-1.81,0l-2.41,0-1.95,0q-.49,0-1.39,0c-.07,0-.1-.07-.1-.2s0-.2.1-.2a4.85,4.85,0,0,0,1.55-.18,1.09,1.09,0,0,0,.68-.64,4.26,4.26,0,0,0,.18-1.45V49.3a3.23,3.23,0,0,0-.25-1.44,1.33,1.33,0,0,0-.82-.66,6.06,6.06,0,0,0-1.7-.18c-.07,0-.1-.07-.1-.2s0-.2.1-.2h4q.4,0,.51.16a1.37,1.37,0,0,1,.12.69V49a11,11,0,0,1,2.77-2.15,6,6,0,0,1,2.77-.69A4.63,4.63,0,0,1,189.74,46.92Zm-.69,10.63a7.14,7.14,0,0,0,1.12-4.26A6.76,6.76,0,0,0,189,49a3.83,3.83,0,0,0-3.13-1.53,4.27,4.27,0,0,0-2.15.56,8.56,8.56,0,0,0-2,1.62V57a6.73,6.73,0,0,0,1.93,1.57,5.48,5.48,0,0,0,2.56.54A3.41,3.41,0,0,0,189.05,57.55Z"/><path class="cls-18" d="M185,68.55c-.77,0-1.38,0-1.82,0l-2.41,0-1.94,0c-.33,0-.79,0-1.39,0-.06,0-.21,0-.21-.31s.15-.31.21-.31a4.77,4.77,0,0,0,1.51-.17,1,1,0,0,0,.61-.58,4.2,4.2,0,0,0,.17-1.41V49.3a3.15,3.15,0,0,0-.24-1.38,1.23,1.23,0,0,0-.76-.6,6,6,0,0,0-1.66-.18c-.06,0-.21,0-.21-.31s.15-.31.21-.31h4a.7.7,0,0,1,.6.21,1.43,1.43,0,0,1,.13.76v1.28a10.84,10.84,0,0,1,2.61-2,6.15,6.15,0,0,1,2.82-.71,4.75,4.75,0,0,1,2.57.74A5.26,5.26,0,0,1,191.69,49a7.29,7.29,0,0,1,.7,3.29,7.55,7.55,0,0,1-1.14,4.24,7.38,7.38,0,0,1-6.07,3.4,8.48,8.48,0,0,1-1.87-.18,6,6,0,0,1-1.51-.59v6.64a3.14,3.14,0,0,0,.23,1.4,1.29,1.29,0,0,0,.87.59,9,9,0,0,0,2.08.18c.06,0,.21,0,.21.31S185.07,68.55,185,68.55Zm-4.23-.29,2.41,0c.44,0,1,0,1.79,0a.34.34,0,0,0,0-.09.39.39,0,0,0,0-.08,9,9,0,0,1-2.12-.19,1.5,1.5,0,0,1-1-.7,3.3,3.3,0,0,1-.26-1.51V58.93a.11.11,0,0,1,.17-.1,6,6,0,0,0,1.62.67,8.33,8.33,0,0,0,1.82.18,7.15,7.15,0,0,0,5.88-3.3,7.33,7.33,0,0,0,1.1-4.11,7.08,7.08,0,0,0-.68-3.18A5,5,0,0,0,189.68,47a4.54,4.54,0,0,0-2.45-.71,5.93,5.93,0,0,0-2.72.68,11,11,0,0,0-2.74,2.12.11.11,0,0,1-.12,0,.11.11,0,0,1-.07-.11V47.48a1.24,1.24,0,0,0-.09-.63c-.05-.07-.2-.12-.42-.12h-4a.31.31,0,0,0,0,.08.33.33,0,0,0,0,.09,6.12,6.12,0,0,1,1.71.19,1.44,1.44,0,0,1,.89.72A3.32,3.32,0,0,1,180,49.3V65.76a4.34,4.34,0,0,1-.19,1.49A1.21,1.21,0,0,1,179,68a4.92,4.92,0,0,1-1.57.19.4.4,0,0,0,0,.08.34.34,0,0,0,0,.09c.58,0,1,0,1.35,0Zm5.41-9a5.61,5.61,0,0,1-2.61-.56,6.86,6.86,0,0,1-2-1.59.11.11,0,0,1,0-.07V49.63a.11.11,0,0,1,0-.08,8.71,8.71,0,0,1,2-1.64,4.41,4.41,0,0,1,2.2-.58A4,4,0,0,1,189,48.91a6.9,6.9,0,0,1,1.25,4.38,7.28,7.28,0,0,1-1.14,4.32A3.53,3.53,0,0,1,186.18,59.21Zm-4.37-2.27a6.64,6.64,0,0,0,1.87,1.51,5.4,5.4,0,0,0,2.51.53,3.31,3.31,0,0,0,2.78-1.5,7.06,7.06,0,0,0,1.1-4.19,6.69,6.69,0,0,0-1.2-4.24,3.73,3.73,0,0,0-3-1.49,4.19,4.19,0,0,0-2.09.55,8.43,8.43,0,0,0-1.92,1.56Z"/><path class="cls-18" d="M214.76,59.16c0,.13,0,.2-.1.2H211a.42.42,0,0,1-.33-.12,9.86,9.86,0,0,1-.54-.91q-.45-.79-1.24-2.15a18.47,18.47,0,0,0-1.37-2,3.1,3.1,0,0,0-1.12-.91A3.75,3.75,0,0,0,205,53h-.23v3.66a4.83,4.83,0,0,0,.17,1.47,1,1,0,0,0,.59.64,4.19,4.19,0,0,0,1.39.17s.07.07.07.2,0,.2-.07.2q-.89,0-1.39,0l-1.68,0-1.72,0q-.46,0-1.29,0c-.07,0-.1-.07-.1-.2s0-.2.1-.2a4,4,0,0,0,1.35-.17,1,1,0,0,0,.58-.64,5.31,5.31,0,0,0,.15-1.47V53h-.23a3.62,3.62,0,0,0-1.45.25,3.19,3.19,0,0,0-1.11.89,16.16,16.16,0,0,0-1.37,2L197.4,58.5a5.39,5.39,0,0,1-.46.76.45.45,0,0,1-.33.1H193c-.07,0-.1-.07-.1-.2s0-.2.1-.2a2.88,2.88,0,0,0,1.35-.28,2.69,2.69,0,0,0,.91-.79q.38-.51,1-1.54l.53-.82a15,15,0,0,1,1.7-2.33,2.68,2.68,0,0,1,1.57-.74A6,6,0,0,1,199,51q-1.52-2.71-2.18-2.71a1.39,1.39,0,0,0-.63.23,1.52,1.52,0,0,1-.76.23,1.21,1.21,0,0,1-1.29-1.25,1,1,0,0,1,.38-.83,1.7,1.7,0,0,1,1.14-.33,2.09,2.09,0,0,1,1.4.5,4.88,4.88,0,0,1,1,1.25q.45.76,1.44,2.74.76,1.58,1.65,1.58l1.72.07v-3.1a5,5,0,0,0-.16-1.5,1,1,0,0,0-.68-.66A5.34,5.34,0,0,0,200.4,47s-.07-.07-.07-.2,0-.2.07-.2l1.78,0c.35,0,.89,0,1.62,0s1.26,0,1.62,0l1.78,0c.07,0,.1.07.1.2s0,.2-.1.2a5.2,5.2,0,0,0-1.6.18,1.09,1.09,0,0,0-.69.64,4.27,4.27,0,0,0-.18,1.45v3.17l1.75-.07q.82,0,1.65-1.58l.33-.63q.76-1.52,1.22-2.26a4.34,4.34,0,0,1,1-1.17,2.12,2.12,0,0,1,1.32-.43,1.66,1.66,0,0,1,1.09.33,1,1,0,0,1,.4.83,1.22,1.22,0,0,1-1.29,1.25,1.56,1.56,0,0,1-.79-.23,1.39,1.39,0,0,0-.59-.23q-.69,0-2.21,2.71a6.33,6.33,0,0,1-1,1.48,2.68,2.68,0,0,1,1.57.74,14,14,0,0,1,1.67,2.33l.56.86q.63,1,1,1.52a2.76,2.76,0,0,0,.91.77,2.88,2.88,0,0,0,1.35.28C214.72,59,214.76,59,214.76,59.16Z"/><path class="cls-18" d="M214.66,59.48H211a.52.52,0,0,1-.42-.16,7.12,7.12,0,0,1-.56-.92c-.3-.53-.72-1.25-1.24-2.14a18.48,18.48,0,0,0-1.36-2,3,3,0,0,0-1.08-.88,3.68,3.68,0,0,0-1.42-.24h-.12v3.55a4.74,4.74,0,0,0,.16,1.43.88.88,0,0,0,.53.58,4.16,4.16,0,0,0,1.35.16c.12,0,.18.1.18.31s-.06.31-.18.31c-.59,0-1.06,0-1.39,0l-1.68,0-1.71,0c-.3,0-.74,0-1.29,0-.08,0-.21,0-.21-.31s.15-.31.21-.31a4,4,0,0,0,1.31-.16.83.83,0,0,0,.51-.57,5.24,5.24,0,0,0,.14-1.44V53.14h-.12a3.54,3.54,0,0,0-1.41.24,3.1,3.1,0,0,0-1.06.86,16,16,0,0,0-1.36,2l-1.32,2.31a4.56,4.56,0,0,1-.48.78.56.56,0,0,1-.41.13H193c-.08,0-.21,0-.21-.31s.15-.31.21-.31a2.79,2.79,0,0,0,1.3-.27,2.61,2.61,0,0,0,.87-.76c.25-.34.59-.85,1-1.53l.53-.83a15.21,15.21,0,0,1,1.71-2.35,2.74,2.74,0,0,1,1.42-.74,6.32,6.32,0,0,1-.93-1.36c-1.29-2.3-1.86-2.65-2.08-2.65a1.29,1.29,0,0,0-.57.22,1.62,1.62,0,0,1-.82.25,1.33,1.33,0,0,1-1.4-1.37,1.16,1.16,0,0,1,.42-.91,1.8,1.8,0,0,1,1.21-.36,2.2,2.2,0,0,1,1.48.52,5.05,5.05,0,0,1,1,1.28c.3.51.78,1.43,1.44,2.75.48,1,1,1.52,1.55,1.52l1.6.06v-3a4.93,4.93,0,0,0-.16-1.47.93.93,0,0,0-.61-.59,5.26,5.26,0,0,0-1.6-.17c-.12,0-.18-.11-.18-.31s.06-.31.18-.31l1.79,0c.35,0,.89,0,1.61,0s1.26,0,1.61,0l1.79,0c.07,0,.21,0,.21.31s-.15.31-.21.31a5.1,5.1,0,0,0-1.56.17,1,1,0,0,0-.62.58,4.22,4.22,0,0,0-.17,1.41v3l1.63-.06c.5,0,1-.51,1.55-1.52l.33-.63c.5-1,.92-1.77,1.23-2.27a4.45,4.45,0,0,1,1-1.2,2.23,2.23,0,0,1,1.39-.45,1.77,1.77,0,0,1,1.16.36,1.15,1.15,0,0,1,.44.91,1.33,1.33,0,0,1-1.4,1.37,1.67,1.67,0,0,1-.85-.25,1.24,1.24,0,0,0-.54-.22c-.29,0-.88.46-2.11,2.65a7.27,7.27,0,0,1-.89,1.35,2.75,2.75,0,0,1,1.42.74,14.24,14.24,0,0,1,1.68,2.35l.56.85c.41.67.75,1.18,1,1.51a2.68,2.68,0,0,0,.87.74,2.78,2.78,0,0,0,1.3.27c.06,0,.21,0,.21.31S214.74,59.48,214.66,59.48Zm-9.93-6.56H205a3.87,3.87,0,0,1,1.51.26,3.21,3.21,0,0,1,1.17.94,18.61,18.61,0,0,1,1.38,2c.52.89.94,1.62,1.24,2.15a8.34,8.34,0,0,0,.53.89.31.31,0,0,0,.24.08h3.61a.46.46,0,0,0,0-.17,3,3,0,0,1-1.38-.29,2.9,2.9,0,0,1-.94-.81c-.26-.34-.6-.85-1-1.53l-.56-.85a13.88,13.88,0,0,0-1.65-2.31,2.57,2.57,0,0,0-1.5-.71.12.12,0,0,1-.09-.08.12.12,0,0,1,0-.12,6.27,6.27,0,0,0,1-1.46c1.39-2.48,2-2.77,2.31-2.77a1.43,1.43,0,0,1,.65.25,1.46,1.46,0,0,0,.74.21,1.1,1.1,0,0,0,1.17-1.14.92.92,0,0,0-.36-.74,1.56,1.56,0,0,0-1-.3,2,2,0,0,0-1.25.41,4.24,4.24,0,0,0-1,1.14c-.31.49-.71,1.25-1.22,2.25l-.33.63c-.58,1.11-1.15,1.64-1.75,1.64l-1.75.07h0a.11.11,0,0,1-.11-.11V49.3a4.35,4.35,0,0,1,.19-1.5,1.21,1.21,0,0,1,.76-.71,5.25,5.25,0,0,1,1.62-.19.32.32,0,0,0,0-.09.38.38,0,0,0,0-.08l-1.76,0c-.35,0-.89,0-1.62,0s-1.27,0-1.62,0l-1.72,0a.54.54,0,0,0,0,.08.56.56,0,0,0,0,.09,5.28,5.28,0,0,1,1.62.19,1.15,1.15,0,0,1,.75.73,5,5,0,0,1,.17,1.54v3.1a.12.12,0,0,1,0,.08.16.16,0,0,1-.08,0l-1.72-.07c-.63,0-1.22-.55-1.75-1.65-.65-1.31-1.14-2.23-1.43-2.73a4.83,4.83,0,0,0-1-1.23,2,2,0,0,0-1.33-.47,1.59,1.59,0,0,0-1.06.3.93.93,0,0,0-.34.74,1.1,1.1,0,0,0,1.17,1.14,1.41,1.41,0,0,0,.7-.21,1.46,1.46,0,0,1,.68-.25c.31,0,.89.29,2.28,2.76a5.89,5.89,0,0,0,1,1.46.11.11,0,0,1,0,.12.11.11,0,0,1-.09.08,2.58,2.58,0,0,0-1.5.71,14.91,14.91,0,0,0-1.68,2.31l-.53.82c-.42.68-.76,1.2-1,1.54a2.83,2.83,0,0,1-.95.83,3,3,0,0,1-1.38.29.39.39,0,0,0,0,.08.32.32,0,0,0,0,.09h3.61a.36.36,0,0,0,.25-.07,5,5,0,0,0,.44-.73l1.32-2.31a16.32,16.32,0,0,1,1.38-2,3.34,3.34,0,0,1,1.15-.92,3.76,3.76,0,0,1,1.5-.26h.23A.11.11,0,0,1,203,53v3.66a5.38,5.38,0,0,1-.15,1.5,1.06,1.06,0,0,1-.64.72,4.12,4.12,0,0,1-1.37.17.39.39,0,0,0,0,.08.32.32,0,0,0,0,.09c.53,0,1,0,1.26,0l1.72,0,1.69,0c.32,0,.77,0,1.33,0a.75.75,0,0,0,0-.17,4.15,4.15,0,0,1-1.37-.17,1.11,1.11,0,0,1-.66-.71,4.87,4.87,0,0,1-.17-1.51V53A.11.11,0,0,1,204.73,52.91Z"/></g></g></svg>