<svg xmlns="http://www.w3.org/2000/svg" viewBox="0 0 846.57 611.72"><defs><style>.cls-1{fill:#18287d;}.cls-2{fill:#ff9739;}.cls-3{fill:#fd5e5a;}.cls-4{fill:#0f1d5b;}.cls-5{fill:#cd3179;}.cls-6{fill:#749cfe;}.cls-7{fill:#2846a6;}.cls-8{fill:#6068b2;}.cls-9{fill:#fc7575;}.cls-10{fill:#757ad8;}.cls-11{fill:#9195e0;}.cls-12{fill:#fff;}.cls-13{fill:#111f59;}.cls-14{fill:#ffcb57;}.cls-15{fill:#4c3115;}.cls-16{fill:#38200a;}.cls-17{fill:#474644;}.cls-18{fill:#282725;}.cls-19{fill:#6ba843;}.cls-20{fill:#31511c;}.cls-21{fill:#5a9136;}.cls-22{fill:#282b25;}.cls-23{fill:#0b0c0a;}.cls-24{fill:#a02060;}.cls-25{fill:#552e5d;}.cls-26{fill:#fb8603;}.cls-27{fill:#1d329e;}.cls-28{fill:#ecab01;}.cls-29{fill:#ffda88;}.cls-30{fill:#4f80ff;}.cls-31{fill:#47254f;}</style></defs><title>Asset 1</title><g id="Layer_2" data-name="Layer 2"><g id="_Layer_" data-name="&lt;Layer&gt;"><path class="cls-1" d="M653.58,32.21c24.8-15.9,48.62-2.24,44.31,9.83,2.52-11.69-20.57-21.39-40.3-4.67Z"/><path class="cls-1" d="M697.89,42s-1.41-7.35-6.68-8.65-20-2.69-27.81,8.65a25.47,25.47,0,0,1-20,11.12,71.12,71.12,0,0,1,6.9,5.43s4.48.76,9.89-4.34c0,0-.46,4.08-9.43,6.82,0,0,5.52,4.26,11.27,2.74A18.36,18.36,0,0,0,670.64,59l-3.61,8s4.26,1.06,9.52-3.91S697.89,42,697.89,42Z"/><path class="cls-2" d="M702.93,44.89s-1.59-4.11-5-4.11-13,1.66-13.79,6.3,5.06,6.08,10.81,6.08S702.93,44.89,702.93,44.89Z"/><path class="cls-3" d="M707.11,139.41s12.3-1.52,17.48,3.37S737.07,227,757,231.05c0,0,23.85-6.16,34.6-13.81C803.42,208.86,807,201.4,807,197.53s4.82-10.28,6.42-10.28,1.43,2.86,1.43,2.86,13-14.32,15.16-12.3-7.31,11.29-7.31,11.29,10.17-11.29,12.31-11.29-.7,5.35-3.75,8.23c0,0,4.82-2.72,6.24,0s-10.88,14.34-14.09,21.25-8.06,4.19-9.63,6.57c-23.54,35.71-65.45,47.1-75.62,32.68S690.53,143.45,707.11,139.41Z"/><path class="cls-4" d="M724.59,142.78c-5.17-4.88-17.48-3.37-17.48-3.37-7.26,1.77-4.17,19.74,2.45,40.6,7.31-3.1,14.41-7.49,21.85-10.41C728.55,155.72,726.43,144.52,724.59,142.78Z"/><path class="cls-5" d="M826.17,185.37c-2,2.06-3.49,3.74-3.49,3.74S824.37,187.44,826.17,185.37Z"/><polygon class="cls-6" points="824.59 171.75 809.35 202.58 820.71 208.01 843.32 178.07 824.59 171.75"/><polygon class="cls-7" points="846.57 177.4 827.8 170.74 824.59 171.75 843.32 178.07 820.71 208.01 823.39 207.3 846.57 177.4"/><path class="cls-3" d="M813.4,187.25a4.68,4.68,0,0,1,4.1,3.12c.89,2.95,0,3.88-1.34,3.88s-2.32-2.86-3.39-2.86-4.58,2-4.58,2S810.91,188,813.4,187.25Z"/><path class="cls-3" d="M542.38,557.91l-6.66,8s-2.41,2,2.41,7.58a28.1,28.1,0,0,1,6.24,16.68c0,3.45,8.65,6.23,8.65,6.23s-5.62-23.33-3.21-30.24c1.25-3.58,27.88-37.71,54.53-71.63-7.22-4.91-14-10.53-22.2-14.52C564,515.14,542.38,557.91,542.38,557.91Z"/><path class="cls-8" d="M710.64,338.95c-18.94-5-37-12.89-52.73-24.25-11,29.2-20.48,64.85-20.48,100.15,0,0-22.7,5-32.86,22.72-3.6,6.27-13,23.23-23,42.5,6.88,6.5,15.52,12.13,22.75,17,24.73-31.49,49.49-65.32,54-71.89C664.85,415.71,691.52,372.46,710.64,338.95Z"/><path class="cls-9" d="M712.48,140.41a22.68,22.68,0,0,1-2.87-8.07s7.61-16.85,10.76-25.61-17.44-11-17.44-11-4.15,24.71-15.91,35.91C694.39,139.46,703.2,140.53,712.48,140.41Z"/><path class="cls-3" d="M702.93,95.73s-.53,3.12-1.72,7.6a29.11,29.11,0,0,0,13.7,11.76l1.86.77c1.38-3.32,2.68-6.57,3.6-9.13C723.52,98,702.93,95.73,702.93,95.73Z"/><path class="cls-10" d="M652.44,309.54c15.73,11.36,39.26,24.36,58.2,29.41,2.45-4.28,4.77-8.42,6.91-12.29a118.18,118.18,0,0,0,12.55-34.53c-18.94-3.39-36.6-12.81-54.14-18.43C670.36,284.7,658.45,293.56,652.44,309.54Z"/><path class="cls-9" d="M768.52,502.92A136.83,136.83,0,0,0,741.79,513c18.56,38.75,39.87,81.41,39.87,81.41s-4.17,10-2.63,11.41,17.75.58,20.29.58,18.21.75,18.21.75l-23.45-10.69C792.15,594,780,547.63,768.52,502.92Z"/><path class="cls-10" d="M747.42,419.73c-2.67-10.36-25.07-75.65-36.1-107.67-4.23-12.26-16.94-20.1-30.52-18.74-17.25,1.73-36.19,10.17-29.47,40.35,0,0,56.5,77.63,60.07,87.07s-3.57,11.45,4.28,34.37c3.09,9,10.82,36.29,22.91,61.54,8.42-4.27,21.06-11.25,30.37-13.72C759,463.93,749.08,426.17,747.42,419.73Z"/><path class="cls-11" d="M747.42,419.73c-4.26-11.94-23.2-62.1-37.33-106.92-3.32-11.62-15.91-20.3-29.29-19.49a29.24,29.24,0,0,1,32,18.66C722.53,338,741.38,393.21,747.42,419.73Z"/><polygon class="cls-12" points="826.17 174.58 839.59 179.08 821.76 204.47 813.03 200.08 821.57 203.87 838.83 179.32 826.17 174.58"/><path class="cls-3" d="M822.54,208.86a41.25,41.25,0,0,1,6.56-5.35c3.39-2.11,7.74-7.55,6.42-9.26s-13.38-1-14.8,1.52,6.91,1.28,7.52,1.85S822.54,208.86,822.54,208.86Z"/><path class="cls-13" d="M625.59,172.33c-.4.3-39.83,30.64-47.49,72a.54.54,0,0,0,.46.62h.1a.55.55,0,0,0,.56-.44c7.59-41,46.69-71.07,47.09-71.37a.51.51,0,0,0,.08-.75A.59.59,0,0,0,625.59,172.33Z"/><path class="cls-9" d="M726.28,62.08s12-1,13.91,7.83-5.26,16.93-3.48,20.3,5.75,5.22,6.82,5.67-.94,3.35-2.68,4c0,0-.77,1.61-.27,2.09s1.74,1.33,1.34,2.46-2.47,1.71-2.47,1.71,2,2,1,3a8.81,8.81,0,0,1-3.21,1.52s.54,4.49-1.74,5.81-9.14-.42-15-2.78c-1.42-.57-3.4-1.34-5.58-2.18-10.9-4.19-18.17-14.21-18-25.33C697.12,72.27,702.4,56.92,726.28,62.08Z"/><path class="cls-7" d="M720.37,65.5A10.12,10.12,0,0,1,724,73.83c0,5.43-.67,6.07-.67,6.07h7.22s1.47-6.82.8-8.72a67.38,67.38,0,0,1,.94,8.72h17.56s3.57-20.72-13.41-32.34-36.78-1.26-36.78-1.26S686.29,45,681.07,54.76s-7.21,36,1.18,45c4.07,4.36,24.36,6.64,26.1-4.61s7.36-15.79,7.36-15.79,3.21,2.78,3.21,8.59a55,55,0,0,0,.13-14.53C718,66.76,720.37,65.5,720.37,65.5Z"/><path class="cls-7" d="M734.92,103.75c-1.15,1.13,2.69,2.06,4.54,2.37-1.44-.12-4.83-.48-5.18-1.8-.12-.48.23-1.25.62-1a.26.26,0,0,1,.05.37l0,0Z"/><path class="cls-7" d="M735.57,88.92a2,2,0,0,1-1.32,2.45Z"/><path class="cls-4" d="M730.34,88c2.58.38,7.25.66,9.12-1.07C738.32,89.27,733.14,89.55,730.34,88Z"/><path class="cls-14" d="M746,174.79c-5.94-5.61-26-20.58-33.51-34.38-9.28.13-18.09-.94-25.46-8.77a22,22,0,0,1-4.17,3.22c-15,8.59,0,55.09,0,55.09s11.68,54.89,7.73,58.63a89.45,89.45,0,0,0-19.48,25.13C685,286.84,717.92,300,736.86,303.36c.54-2.77,3.31-88.37,7-96.9C749.2,194,753.12,181.53,746,174.79Z"/><path d="M36.33,484.33C13.09,470.47,3,445.55,13.79,427.63s38.68-22.37,63.15-10.52l3-5c-27.41-13.4-58.89-8-71.37,12.66s-1.37,49,24.78,64.48Z"/><path d="M36.33,484.33C13.09,470.47,3,445.55,13.79,427.63s38.68-22.37,63.15-10.52l3-5c-27.41-13.4-58.89-8-71.37,12.66s-1.37,49,24.78,64.48Z"/><path d="M44.87,479.7C19.66,465.1,5.95,443,14.15,429.37s35.37-13.7,61.5-.63L77.92,425c-29.3-14.75-59.94-14.31-69.4,1.35s5.74,40.8,34.08,57.12Z"/><path class="cls-15" d="M1.5,452.54l16.37-3.48s-4.27-19.22,17.92-28.83l-6.51-15.37S14.57,408.39,4,426.09C-3.16,438,1.5,452.54,1.5,452.54Z"/><path class="cls-16" d="M15.87,449.48l2-.43s-4.27-19.22,17.92-28.83l-.64-1.51C13.21,427.26,14.92,444.65,15.87,449.48Z"/><polygon class="cls-17" points="266.48 308.56 194.58 427.61 183.03 421.38 254.93 302.33 266.48 308.56"/><polygon class="cls-18" points="254.93 302.33 254.93 302.33 261.67 305.97 189.77 425.01 194.58 427.61 266.48 308.56 254.93 302.33"/><path class="cls-19" d="M200.52,417.77a12.33,12.33,0,0,0-4.42-17.05q-2.22-1.33-4.53-2.58c-52-28-118.25-10.93-147.93,38.21S32.07,548,84.09,576.08q2.31,1.24,4.65,2.37a13.9,13.9,0,0,0,17.79-5.08Z"/><path class="cls-20" d="M195.9,399.7c-26.1-15.61-60.35-20.3-92.55-9.71,32.3-9.47,65.12-4.91,91.68,11a11.61,11.61,0,0,1,5.56,14.69c-.7,1.88-56.84,93.6-94.05,157.67,19.56-31.16,94.4-153.66,95.66-157.09C204.56,410.51,202.55,403.39,195.9,399.7Z"/><path class="cls-21" d="M196.1,400.72q-2.22-1.33-4.53-2.58a113.89,113.89,0,0,0-94.4-6,112.27,112.27,0,0,1,50.63,12q3.64,1.84,7.06,3.9a12.37,12.37,0,0,1,4.38,17.11L72.47,568.86a110.17,110.17,0,0,0,11.62,7.22q2.31,1.25,4.65,2.37a13.9,13.9,0,0,0,17.79-5.08l94-155.61A12.33,12.33,0,0,0,196.1,400.72Z"/><path class="cls-22" d="M191.59,432.57l-1.42-.79C151,410.66,102.71,420.85,82.36,454.55s-5.09,78.14,34.1,99.26c.48.26,1,.49,1.45.74Z"/><path class="cls-23" d="M190.16,431.78c-30-16.18-65.36-14-89.4,3.11,22.6-9.47,50.75-8.55,75.33,4.7l1.42.79L111,550.57c1.78,1.13,3.61,2.22,5.5,3.24.48.26,1,.49,1.45.74l73.68-122Z"/><polygon points="229.3 344.76 240.86 350.99 266.48 308.56 250.62 300.01 229.3 344.76"/><path d="M110.43,560.8c10.67,5.75,14.39,18.59,8.3,28.67s-19.68,13.59-30.35,7.84S74,578.72,80.08,568.64,99.76,555,110.43,560.8Z"/><path class="cls-17" d="M106,568.21a12.12,12.12,0,0,1,4.93,17,13.64,13.64,0,0,1-18,4.66,12.12,12.12,0,0,1-4.93-17A13.64,13.64,0,0,1,106,568.21Z"/><path d="M442.63,562.78a15.81,15.81,0,0,1,5.57,21.14,14.66,14.66,0,0,1-20.38,5.78,15.81,15.81,0,0,1-5.57-21.14A14.66,14.66,0,0,1,442.63,562.78Z"/><path class="cls-5" d="M421.17,571.87,358.74,542c-8.52-4.07-11.93-13.9-7.61-21.94L418.58,394.2c15.46-28.85,52.76-40.4,83.31-25.79l40.42,19.33L448.1,563.53C443.1,572.85,431,576.59,421.17,571.87Z"/><path class="cls-5" d="M501.2,464.45l-93.63-44.78A12.09,12.09,0,0,1,401.78,403l13.91-26c11.75-21.92,40.08-30.7,63.29-19.6l63.33,30.29Z"/><path class="cls-24" d="M426.6,574.46l-17.41-8.32a11.71,11.71,0,0,1-5.6-16.14l76.92-143.52c11.38-21.23,38.82-29.73,61.29-19l.51.25-97,180.92C441.87,575.15,433.47,577.75,426.6,574.46Z"/><path class="cls-25" d="M578.41,311.88l-16.4-1a10.56,10.56,0,0,0-9.92,5.29l-53.54,98.47h11.8l52-95.94a10.21,10.21,0,0,1,9.91-5.22l5,.43L521.91,414.58l6,.08,52.47-96.06a5,5,0,0,0-1.95-6.72Z"/><path class="cls-25" d="M562,310.9c-12.07-.38-7.77,8.84-63.45,103.76,4.79-9.55,50.76-97.82,55.84-101.55A11,11,0,0,1,562,310.9Z"/><polygon class="cls-25" points="487.13 414.44 527.88 414.66 460.98 539.5 419.07 539.5 487.13 414.44"/><path d="M405.69,553.54A20.77,20.77,0,0,1,413,581.31a19.26,19.26,0,0,1-26.78,7.59,20.77,20.77,0,0,1-7.32-27.78A19.26,19.26,0,0,1,405.69,553.54Z"/><path class="cls-17" d="M401.74,560.72a12.34,12.34,0,0,1,4.35,16.49,11.44,11.44,0,0,1-15.9,4.51,12.34,12.34,0,0,1-4.35-16.5A11.44,11.44,0,0,1,401.74,560.72Z"/><path class="cls-3" d="M385.35,107.44s-6.79-3.67-24.88,11.16C324.76,147.88,275.65,204.68,259,288.08L241.68,306.2s-4.66,1.62,3.79,4.27c0,0,2.07,4.14,4.79,3.64,0,0,2.07,2.2,4.32,1.35s1.47-3.44,1.47-3.44l10.43-24s38.31-67.48,57.68-91.09S400.84,120.26,385.35,107.44Z"/><path class="cls-26" d="M306.33,170.7l26.36,26.09s52.42-62.5,55.29-74.71.54-16.41-5.32-16.14C358.06,107,306.33,170.7,306.33,170.7Z"/><path class="cls-1" d="M407.74,113.68s-12.29-10.05-28-5S336.32,193,329,230.77c-1.13,5.81-12.13,52-8.7,63.9C339.18,360.22,412.46,460,412.46,460L462.3,591.41s-4.22,13.86-2.7,17.44,9.36,0,15.94,0,23.53,2.87,24.79,2.87S514,608.61,514,608.61s-26.82-3.82-35.92-19.6-28.59-146.26-28.59-146.26-35.84-179.71-37-197.64,14-114.23,7.67-122.84S407.74,113.68,407.74,113.68Z"/><path class="cls-27" d="M320.28,294.67l1.18,133s-49.08,131-56.17,137.65-24.9,21.22-24.9,21.22,11.78,7.91,18.71,13.49c8.78,7.07,16.31,6.77,37.56,6.77s-6.15-5.23-11.13-9.94c-9.17-8.67-4-27.72-4-27.72l78.43-122.89s37.28-106.84,52.54-110.84l3.8-54.49Z"/><path class="cls-6" d="M411.81,335c-15.3,5.59-48.14,96.22-53.17,110.76-3.22,5.13-49.76,78.1-77.15,123.44,24.25-36,61.52-94,79.7-122.33l.05-.15c42.53-118.19,51.28-109.64,51.88-110.77,0-.14,1.53-28.62,1.94-37.78C413.89,310.43,412.89,322.71,411.81,335Z"/><path class="cls-7" d="M341,435.2l.07-.22c.64-5.26,15.68-128.94,15.68-136.56a.71.71,0,0,0-1.42,0c0,7.43-15.11,131.76-15.66,136.29L272.36,562.49,268.52,560l-.63,1.22L281.56,570c0-.55-.06-.85-.06-.85l.37-.58-8.32-5.35Z"/><path class="cls-14" d="M421.42,245c-1.18-17.92,5-114.08-1.28-122.69s-12.39-8.6-12.39-8.6-10.79-14.68-29.6-8.36c-15.6,5.24-50.35,85.56-57.68,123.31-1.13,5.81-11.55,66.71-8.11,78.64,0,.08,122.68,7.43,122.68,7.43C431.43,295,421.71,249.5,421.42,245Z"/><path class="cls-28" d="M413.24,297.44c5.68-1.48,10.95-3.26,16.84-7.95l-1.43-7.07c-34,20.62-81.11,16.45-116.3,3.86-.26,3-.46,5.81-.57,8.39a203.65,203.65,0,0,0,31.11,6.4,16.59,16.59,0,0,0,5,8.4l54.93,3.31A16.91,16.91,0,0,0,413.24,297.44Z"/><path class="cls-9" d="M416.26,81.16s-20.54,17.26-25.73,25.35c-2.63,4.1,8.83,11.06,18.57,15.71a7.55,7.55,0,0,0,9.61-2.75L435,92.89Z"/><path class="cls-3" d="M416.26,81.16s-3.75,3.15-8.45,7.39c4.89,4.22,7.56,12.67,12.86,20.32a12.51,12.51,0,0,0,2.77,2.89L435,92.89Z"/><path class="cls-13" d="M414.91,14.71c-2.37,6.18-3,14.66,1.53,20.14l-.36.34c-6.06-5-7.24-14.3-6.08-21.68Z"/><path class="cls-13" d="M400.05,26.27c4.47,3.36,14.3,9.83,19.91,8.79l.1.47c-5.82,1.55-16.62-4.28-21.59-7.45Z"/><path class="cls-9" d="M449.82,34.38s12.48,6.69,12.48,20.07-6.24,33.62-6.24,33.62l-5.4-1.27s1.1,3.58-.84,5.42c0,0,.63,1.16,0,1.75s-4.39,1.91-6.49,5.5-15.26,6.05-21.08-1.43S416.17,84.41,410,81.54,408.07,22,449.82,34.38Z"/><path class="cls-1" d="M436.07,42.19s18.21,15.29,27.83,15.29,26.92-11.19,22.77-24.86c-1.15-3.78-6.83-14.33-6.83-14.33s-5.31,17.45-25,12.67l9.11-12.67-8.1-5.74-16.44,10s-7.34-6.21-16.19-1.91S416.26,35,416.26,35s-19.15-1.43-22.44,9.08,0,21.27,0,29.39S408,88.34,408,88.34l8.21-7.18s-2.45-9.58,1.34-17.7,7.34-1.67,7.34-1.67Z"/><path class="cls-9" d="M423,62s-.63-8.84-10-9.44S401.48,63.53,406,67.77s11.2,3.4,13.92.83A11.87,11.87,0,0,0,423,62Z"/><path class="cls-3" d="M420,62.86s.51-5.86-5.69-5.14-5.53,7.89-.93,8.72S420,62.86,420,62.86Z"/><path class="cls-7" d="M449.82,92.22c-6.46-1.49-4.36-2.49-4-2.07A14.48,14.48,0,0,0,449.82,92.22Z"/><path class="cls-7" d="M450.66,86.8a2.36,2.36,0,0,1-2.17-2.64c.12-2.28,1-1.36.92-1C448.77,84.95,448.64,86.06,450.66,86.8Z"/><path class="cls-12" d="M420.07,63.84a3.13,3.13,0,1,0-3.13,3,3.3,3.3,0,0,0,.78-.09V73h2.35V63.84Z"/><path class="cls-7" d="M454.2,70.57c-.78,1.27-2.16,1.89-3.09,1.38s-1.05-1.95-.27-3.22,2.16-1.89,3.09-1.38S455,69.29,454.2,70.57Z"/><path class="cls-7" d="M445.51,62.88c3.73-3.09,10-6.37,12.49-2.27.47.77-.77,1.44-1.24.67-1.91-3.13-7.69.42-10.31,2.61C445.74,64.48,444.8,63.47,445.51,62.88Z"/><path class="cls-13" d="M88.75,314.43c15.29-12.26,46.23-1,47.54-.51a.5.5,0,0,1,.3.65.55.55,0,0,1-.69.29c-.31-.12-31.65-11.54-46.46.34C88.9,315.63,88.21,314.86,88.75,314.43Z"/><path class="cls-13" d="M37.11,373.15c30.41-40,74.87-20,75.31-19.83.64.29.16,1.2-.47.91-.44-.2-44.1-19.76-74,19.52a.56.56,0,0,1-.75.12A.49.49,0,0,1,37.11,373.15Z"/><path class="cls-1" d="M493.08,40.09C499.32,18.47,474,1.1,473.69.92c-.57-.39,0-1.21.62-.82.26.18,26.24,18,19.8,40.26C493.93,41,492.9,40.74,493.08,40.09Z"/><path class="cls-9" d="M400.42,129.72c14.95,13.38-47.69,53.48-68,76.36s-55.15,92.73-55.15,92.73l-15.54,21.92L258,322c-2.28.76-4.26-1.51-4.26-1.51-2.74.41-4.64-3.81-4.64-3.81-3.19-1.13-4.46-2-4.82-2.74h0c-1.71-1.4.67-13.48,2.55-14.11,1.33-.45,1.94,5.51,2.19,9l14.54-14.07c20.06-82.72,50.07-132.29,87.08-160.09S400.42,129.72,400.42,129.72Z"/><path class="cls-29" d="M344.93,199.71,305.61,176s38-43.88,59.26-53.22,37.28-4,39.94,3.13,4.63,11.67-9,25.74S344.93,199.71,344.93,199.71Z"/><path class="cls-12" d="M383.35,117.91c7.76-.75,18.37.66,21.73,7.21,2.42,5.68,3.53,9.5.67,15-6.54,12.8-49.62,50-60.82,59.56,59.8-58.18,65.2-58.43,59.1-74.13a11.35,11.35,0,0,0-5.35-4.92C394.08,118.33,388.63,117.68,383.35,117.91Z"/><path class="cls-9" d="M692,141.94s-5.26-4.52-12-4.52S628.86,193,617.36,211.68c-11,17.9-44.27,71.14-51.39,82.29l-5.36,11.5a10.34,10.34,0,0,0,1.54,11.11l.87,1a23.52,23.52,0,0,0,4.67.51,21.79,21.79,0,0,0,4-1.74,8.76,8.76,0,0,0,2.23.07,16.62,16.62,0,0,0,3.39-2.53l-2.18-12.85C620.83,223.83,680,179.14,696.9,170.24,707,164.92,692,141.94,692,141.94Z"/><path class="cls-1" d="M694.18,137.41c-2.12-3-6.33-6.37-15.26-2-4.36,2.15-29,31.77-46.62,55.07a97.76,97.76,0,0,1,16.33,17.56c21.83-20.77,40.07-33.53,48.27-37.84C707,164.92,699,144.28,694.18,137.41Z"/><path class="cls-30" d="M680.65,180.91a120.23,120.23,0,0,1,11.13-8.34c1.83-1.34,4.15-2.39,5.83-3.64a8.88,8.88,0,0,0,3.11-5.45c.83-4.36-.08-9-1.28-13.35a57.46,57.46,0,0,0-5.26-12.72,43.66,43.66,0,0,1,6.34,12.39c1.45,4.42,2.42,9.16,1.64,14a10.28,10.28,0,0,1-3.74,6.22,25.74,25.74,0,0,1-3.05,1.81l-3,1.71C688.42,175.87,684.55,178.4,680.65,180.91Z"/><path class="cls-31" d="M311.65,282.5c32.44,6.93,91.89,13.77,116.51-7.36l2.61,9.05c-8.92,8.46-15.48,9-26.59,11.94-29.12,6.78-68.56,2.44-93.84-5.51Z"/><path class="cls-25" d="M360,279.47h35.75a13.86,13.86,0,0,1,13.86,13.86V297a13.85,13.85,0,0,1-13.85,13.85H360A13.85,13.85,0,0,1,346.1,297v-3.7A13.86,13.86,0,0,1,360,279.47Z"/><path d="M376.61,299.29A52,52,0,0,1,355.9,295l-4.9-2.13a.85.85,0,0,1-.45-1.15,1,1,0,0,1,1.22-.43l4.9,2.13a49.85,49.85,0,0,0,45.54-2.94,1,1,0,0,1,1.27.26.84.84,0,0,1-.28,1.2A51.49,51.49,0,0,1,376.61,299.29Z"/><path class="cls-25" d="M540.43,560.27,529.12,567s5.75,5.65,7.36,10.86,3.79,16.8,10.35,18.56,10.46.88,10.46.88-5.17-6.84-5.52-8.36a10,10,0,0,1-6-5.21C544.07,579.74,543.36,560.27,540.43,560.27Z"/><path class="cls-25" d="M780,598.89l-2.77,8.25H820S807,600.7,803.4,600.7c0,0-11.31,1.83-15.76,1.1A21.22,21.22,0,0,1,780,598.89Z"/><path class="cls-9" d="M709,74.3c-4,3.76-4.91,13.46-1.69,14.62s9.28-.71,9.28-7.74C716.6,81.18,713,70.53,709,74.3Z"/><path class="cls-3" d="M714.06,82s-1.53-5.65-4-3.33-3.61,6.61-1.84,8.28S713.58,87.2,714.06,82Z"/></g></g></svg>